<svg width="583" height="140" viewBox="0 0 583 140" fill="none" xmlns="http://www.w3.org/2000/svg">
<g clip-path="url(#clip0_1727_785)">
<path d="M41.1719 122.445H20.9844L0 45.7461H22.4453L35.5938 99.5352L46.5508 45.7461H66.7383L80.1523 100.996L93.1016 45.7461H108.641L85.3984 122.445H65.2109L53.8555 75.8281L41.1719 122.445Z" fill="white"/>
<path d="M143.637 27.2188C143.637 28.901 143.305 30.4948 142.641 32C142.021 33.5052 141.158 34.8112 140.051 35.918C138.944 37.0247 137.638 37.9102 136.133 38.5742C134.628 39.194 133.034 39.5039 131.352 39.5039C129.669 39.5039 128.076 39.194 126.57 38.5742C125.109 37.9102 123.826 37.0247 122.719 35.918C121.612 34.8112 120.727 33.5052 120.062 32C119.443 30.4948 119.133 28.901 119.133 27.2188C119.133 25.5365 119.443 23.9648 120.062 22.5039C120.727 20.9987 121.612 19.6927 122.719 18.5859C123.826 17.4792 125.109 16.6159 126.57 15.9961C128.076 15.332 129.669 15 131.352 15C133.034 15 134.628 15.332 136.133 15.9961C137.638 16.6159 138.944 17.4792 140.051 18.5859C141.158 19.6927 142.021 20.9987 142.641 22.5039C143.305 23.9648 143.637 25.5365 143.637 27.2188ZM142.641 122.445H120.129V45.8125H142.641V122.445Z" fill="white"/>
<path d="M227.508 97.9414C227.508 101.306 227.021 104.294 226.047 106.906C225.073 109.518 223.745 111.798 222.062 113.746C220.38 115.65 218.388 117.266 216.086 118.594C213.784 119.878 211.305 120.918 208.648 121.715C206.036 122.512 203.292 123.087 200.414 123.441C197.536 123.796 194.681 123.973 191.848 123.973C188.04 123.973 184.676 123.729 181.754 123.242C178.832 122.755 176.043 121.98 173.387 120.918C170.73 119.811 168.074 118.395 165.418 116.668C162.806 114.941 159.884 112.839 156.652 110.359L169.734 99.668C170.93 101.926 172.501 103.984 174.449 105.844C176.441 107.659 178.5 109.23 180.625 110.559C182.75 111.887 184.809 112.905 186.801 113.613C188.793 114.322 190.409 114.676 191.648 114.676C192.667 114.676 193.818 114.654 195.102 114.609C196.385 114.521 197.691 114.388 199.02 114.211C200.348 113.99 201.654 113.68 202.938 113.281C204.221 112.883 205.35 112.352 206.324 111.688C207.342 110.979 208.139 110.116 208.715 109.098C209.335 108.035 209.645 106.773 209.645 105.312C209.645 103.807 209.246 102.501 208.449 101.395C207.697 100.243 206.701 99.2474 205.461 98.4062C204.221 97.5651 202.805 96.8568 201.211 96.2812C199.617 95.7057 198.001 95.1966 196.363 94.7539C194.77 94.3112 193.22 93.9349 191.715 93.625C190.21 93.2708 188.904 92.9388 187.797 92.6289C185.76 92.0534 183.613 91.4779 181.355 90.9023C179.098 90.2826 176.862 89.5964 174.648 88.8438C172.435 88.0469 170.31 87.1172 168.273 86.0547C166.281 84.9922 164.51 83.7305 162.961 82.2695C161.456 80.7643 160.238 79.0156 159.309 77.0234C158.423 74.987 157.98 72.6185 157.98 69.918C157.98 64.9596 158.954 60.8203 160.902 57.5C162.895 54.1354 165.507 51.457 168.738 49.4648C171.97 47.4284 175.645 45.9896 179.762 45.1484C183.879 44.3073 188.062 43.8867 192.312 43.8867C195.234 43.8867 198.311 44.1966 201.543 44.8164C204.775 45.3919 207.918 46.2773 210.973 47.4727C214.027 48.6237 216.883 50.0404 219.539 51.7227C222.195 53.4049 224.409 55.3307 226.18 57.5L213.098 68.2578C212.124 65.6016 210.84 63.3216 209.246 61.418C207.697 59.5143 205.992 57.9648 204.133 56.7695C202.318 55.5299 200.436 54.6224 198.488 54.0469C196.585 53.4714 194.814 53.1836 193.176 53.1836C191.582 53.1836 189.789 53.25 187.797 53.3828C185.805 53.5156 183.923 53.8919 182.152 54.5117C180.426 55.1315 178.943 56.0833 177.703 57.3672C176.508 58.6068 175.91 60.3333 175.91 62.5469C175.91 64.1406 176.264 65.513 176.973 66.6641C177.725 67.7708 178.699 68.7448 179.895 69.5859C181.09 70.3828 182.44 71.069 183.945 71.6445C185.495 72.1758 187.066 72.6628 188.66 73.1055C190.254 73.5039 191.803 73.8581 193.309 74.168C194.814 74.4779 196.164 74.8099 197.359 75.1641C199.396 75.7396 201.543 76.3372 203.801 76.957C206.103 77.5326 208.361 78.2188 210.574 79.0156C212.788 79.7682 214.913 80.6758 216.949 81.7383C219.03 82.7565 220.845 84.0182 222.395 85.5234C223.944 87.0286 225.184 88.7995 226.113 90.8359C227.043 92.8281 227.508 95.1966 227.508 97.9414Z" fill="white"/>
<path d="M319.016 122.445H310.383L300.422 105.777C299.448 108.566 298.098 111.09 296.371 113.348C294.689 115.605 292.719 117.553 290.461 119.191C288.247 120.785 285.79 122.025 283.09 122.91C280.434 123.796 277.622 124.238 274.656 124.238C268.812 124.238 263.589 123.198 258.984 121.117C254.38 119.036 250.484 116.203 247.297 112.617C244.109 108.987 241.674 104.737 239.992 99.8672C238.31 94.9974 237.469 89.7734 237.469 84.1953C237.469 78.6172 238.31 73.3932 239.992 68.5234C241.674 63.6536 244.109 59.4258 247.297 55.8398C250.484 52.2539 254.38 49.4206 258.984 47.3398C263.589 45.2591 268.812 44.2188 274.656 44.2188C279.128 44.2188 283.223 45.082 286.941 46.8086C290.704 48.5352 293.914 51.2357 296.57 54.9102V17.5234H319.016V122.445ZM296.438 84.1953C296.438 82.4245 296.305 80.4766 296.039 78.3516C295.773 76.2266 295.353 74.0794 294.777 71.9102C294.202 69.7409 293.449 67.638 292.52 65.6016C291.59 63.5651 290.439 61.75 289.066 60.1562C287.738 58.5625 286.167 57.3008 284.352 56.3711C282.581 55.3971 280.544 54.9102 278.242 54.9102C275.719 54.9102 273.527 55.375 271.668 56.3047C269.809 57.1901 268.215 58.4076 266.887 59.957C265.559 61.4622 264.452 63.2109 263.566 65.2031C262.725 67.1953 262.061 69.276 261.574 71.4453C261.087 73.6146 260.733 75.806 260.512 78.0195C260.335 80.1888 260.246 82.2474 260.246 84.1953C260.246 86.1432 260.335 88.224 260.512 90.4375C260.733 92.6068 261.087 94.776 261.574 96.9453C262.061 99.1146 262.725 101.217 263.566 103.254C264.452 105.246 265.559 107.017 266.887 108.566C268.215 110.072 269.809 111.289 271.668 112.219C273.527 113.104 275.719 113.547 278.242 113.547C280.766 113.547 282.979 113.104 284.883 112.219C286.786 111.333 288.402 110.138 289.73 108.633C291.103 107.083 292.21 105.335 293.051 103.387C293.936 101.395 294.622 99.3138 295.109 97.1445C295.596 94.931 295.928 92.7174 296.105 90.5039C296.327 88.2904 296.438 86.1875 296.438 84.1953Z" fill="white"/>
<path d="M418.758 83.9297C418.758 87.9141 418.227 91.6549 417.164 95.1523C416.102 98.6497 414.618 101.882 412.715 104.848C410.855 107.814 408.598 110.492 405.941 112.883C403.285 115.229 400.363 117.221 397.176 118.859C394.033 120.497 390.646 121.759 387.016 122.645C383.43 123.53 379.733 123.973 375.926 123.973C372.118 123.973 368.422 123.53 364.836 122.645C361.25 121.759 357.863 120.497 354.676 118.859C351.533 117.221 348.633 115.229 345.977 112.883C343.32 110.492 341.04 107.814 339.137 104.848C337.277 101.882 335.816 98.6497 334.754 95.1523C333.691 91.6107 333.16 87.8698 333.16 83.9297C333.16 79.9896 333.691 76.2708 334.754 72.7734C335.816 69.2318 337.277 65.9779 339.137 63.0117C341.04 60.0456 343.32 57.3893 345.977 55.043C348.633 52.6523 351.533 50.638 354.676 49C357.863 47.362 361.25 46.1003 364.836 45.2148C368.422 44.3294 372.118 43.8867 375.926 43.8867C379.733 43.8867 383.43 44.3294 387.016 45.2148C390.646 46.1003 394.033 47.362 397.176 49C400.363 50.638 403.285 52.6523 405.941 55.043C408.598 57.3893 410.855 60.0456 412.715 63.0117C414.618 65.9779 416.102 69.2318 417.164 72.7734C418.227 76.2708 418.758 79.9896 418.758 83.9297ZM395.914 83.9297C395.914 81.8047 395.781 79.569 395.516 77.2227C395.294 74.832 394.896 72.5078 394.32 70.25C393.745 67.9479 392.948 65.7565 391.93 63.6758C390.956 61.5508 389.738 59.7135 388.277 58.1641C386.816 56.5703 385.068 55.3086 383.031 54.3789C380.995 53.4049 378.626 52.918 375.926 52.918C373.358 52.918 371.078 53.4049 369.086 54.3789C367.094 55.3529 365.345 56.6589 363.84 58.2969C362.379 59.8906 361.139 61.75 360.121 63.875C359.147 66 358.35 68.2135 357.73 70.5156C357.111 72.7734 356.668 75.0755 356.402 77.4219C356.137 79.724 356.004 81.8932 356.004 83.9297C356.004 85.9661 356.137 88.1576 356.402 90.5039C356.668 92.806 357.111 95.1081 357.73 97.4102C358.35 99.7122 359.147 101.926 360.121 104.051C361.139 106.132 362.379 107.991 363.84 109.629C365.345 111.223 367.094 112.507 369.086 113.48C371.078 114.454 373.358 114.941 375.926 114.941C378.582 114.941 380.928 114.477 382.965 113.547C385.001 112.573 386.75 111.289 388.211 109.695C389.716 108.102 390.956 106.264 391.93 104.184C392.904 102.103 393.678 99.9115 394.254 97.6094C394.874 95.3073 395.294 92.9831 395.516 90.6367C395.781 88.2904 395.914 86.0547 395.914 83.9297Z" fill="white"/>
<path d="M498.18 52.5195L485.562 73.4375C485.031 71.6667 484.345 69.6745 483.504 67.4609C482.663 65.2474 481.622 63.1888 480.383 61.2852C479.143 59.3372 477.66 57.7214 475.934 56.4375C474.207 55.1094 472.215 54.4453 469.957 54.4453C467.876 54.4453 466.061 54.9766 464.512 56.0391C463.007 57.1016 461.723 58.4961 460.66 60.2227C459.598 61.9049 458.712 63.8307 458.004 66C457.34 68.125 456.809 70.2943 456.41 72.5078C456.056 74.6771 455.812 76.7799 455.68 78.8164C455.547 80.8086 455.48 82.5352 455.48 83.9961V122.445H432.969V45.7461H441.602L450.699 63.6094C451.939 60.7318 453.355 58.0977 454.949 55.707C456.543 53.2721 458.38 51.1914 460.461 49.4648C462.542 47.694 464.888 46.3216 467.5 45.3477C470.156 44.3737 473.145 43.8867 476.465 43.8867C478.191 43.8867 480.117 44.0417 482.242 44.3516C484.367 44.6172 486.448 45.1042 488.484 45.8125C490.521 46.4766 492.402 47.362 494.129 48.4688C495.855 49.5755 497.206 50.9258 498.18 52.5195Z" fill="white"/>
<path d="M583.246 122.445H560.801V113.281C558.145 116.911 554.935 119.612 551.172 121.383C547.453 123.109 543.358 123.973 538.887 123.973C533.043 123.973 527.819 122.932 523.215 120.852C518.611 118.771 514.715 115.938 511.527 112.352C508.34 108.721 505.905 104.471 504.223 99.6016C502.54 94.7318 501.699 89.5078 501.699 83.9297C501.699 78.3516 502.54 73.1276 504.223 68.2578C505.905 63.388 508.34 59.1602 511.527 55.5742C514.715 51.944 518.611 49.0885 523.215 47.0078C527.819 44.9271 533.043 43.8867 538.887 43.8867C541.853 43.8867 544.664 44.3294 547.32 45.2148C550.021 46.1003 552.478 47.362 554.691 49C556.949 50.5938 558.919 52.5417 560.602 54.8438C562.328 57.1016 563.678 59.625 564.652 62.4141L574.613 45.7461H583.246V122.445ZM560.668 83.9297C560.668 81.9375 560.557 79.8346 560.336 77.6211C560.159 75.4076 559.827 73.2161 559.34 71.0469C558.853 68.8776 558.167 66.819 557.281 64.8711C556.44 62.8789 555.333 61.1302 553.961 59.625C552.633 58.0755 551.017 56.8581 549.113 55.9727C547.21 55.0872 544.996 54.6445 542.473 54.6445C539.949 54.6445 537.758 55.1094 535.898 56.0391C534.039 56.9245 532.445 58.1419 531.117 59.6914C529.789 61.1966 528.682 62.9453 527.797 64.9375C526.956 66.9297 526.292 69.0104 525.805 71.1797C525.318 73.349 524.964 75.5404 524.742 77.7539C524.565 79.9232 524.477 81.9818 524.477 83.9297C524.477 85.8776 524.565 87.9583 524.742 90.1719C524.964 92.3854 525.318 94.5768 525.805 96.7461C526.292 98.9154 526.956 100.996 527.797 102.988C528.682 104.98 529.789 106.751 531.117 108.301C532.445 109.806 534.039 111.023 535.898 111.953C537.758 112.839 539.949 113.281 542.473 113.281C544.775 113.281 546.811 112.816 548.582 111.887C550.397 110.913 551.969 109.629 553.297 108.035C554.669 106.441 555.82 104.626 556.75 102.59C557.68 100.553 558.432 98.4505 559.008 96.2812C559.583 94.112 560.004 91.9648 560.27 89.8398C560.535 87.6706 560.668 85.7005 560.668 83.9297Z" fill="white"/>
</g>
<defs>
<clipPath id="clip0_1727_785">
<rect width="583" height="140" fill="white"/>
</clipPath>
</defs>
</svg>
