<?xml version="1.0" encoding="UTF-8"?>
<svg width="99px" height="24px" viewBox="0 0 99 24" version="1.1" xmlns="http://www.w3.org/2000/svg" xmlns:xlink="http://www.w3.org/1999/xlink">
    <!-- Generator: Sketch 42 (36781) - http://www.bohemiancoding.com/sketch -->
    <title>Group 3</title>
    <desc>Created with Sketch.</desc>
    <defs></defs>
    <g id="Page-1" stroke="none" stroke-width="1" fill="none" fill-rule="evenodd">
        <g id="Artboard-2-Copy-4" transform="translate(-795.000000, -1218.000000)">
            <g id="Group-5" transform="translate(391.000000, 1176.000000)">
                <g id="Adobe_Systems_Logo_002" transform="translate(404.000000, 42.000000)">
                    <g id="Ebene_1">
                        <g id="Group-3">
                            <path d="M16.4581119,0.692093023 L25.8795253,23.2024186 L25.8795253,0.692093023 L16.4581119,0.692093023 L16.4581119,0.692093023 Z M0.39204623,0.692093023 L0.39204623,23.2024186 L9.82073009,0.692093023 L0.39204623,0.692093023 L0.39204623,0.692093023 Z M9.01985962,18.6747907 L13.4129026,18.6747907 L15.20815,23.2024186 L19.1420347,23.2024186 L13.1399803,8.98772093 L9.01985962,18.6747907 L9.01985962,18.6747907 Z" id="Shape" fill="#D63939"></path>
                            <path d="M39.3343729,0.632930233 L34.2338571,23.2029767 L37.3210114,23.2029767 L38.6632524,16.9746977 L43.361096,16.9746977 L44.669781,23.2029767 L47.7904913,23.2029767 L42.9919797,0.632930233 L39.3343729,0.632930233 L39.3343729,0.632930233 Z M39.0323687,14.4625116 L40.1061615,9.07144186 C40.4081658,7.63144186 40.743726,5.55516279 40.9786182,3.9147907 L41.1128423,3.9147907 C41.3477345,5.52223256 41.6497387,7.53097674 41.9517429,9.07144186 L42.9919797,14.4625116 L39.0323687,14.4625116 L39.0323687,14.4625116 Z M59.5736896,0.0301395349 L56.4194233,0.0301395349 L56.4194233,8.50213953 L56.3523112,8.50213953 C55.7818588,7.26306977 54.741622,6.66027907 53.432937,6.66027907 C50.8496823,6.66027907 48.3995332,9.37172093 48.3995332,15.1322791 C48.3995332,20.1890233 50.2451146,23.4703256 53.2651569,23.4703256 C54.9082836,23.4703256 56.1504158,22.3652093 56.6873122,21.2260465 L56.7885395,21.2260465 L56.9893164,23.2018605 L59.7067952,23.2018605 C59.6396832,22.0632558 59.5725711,20.2554419 59.5725711,19.0163721 L59.5736896,0.0301395349 L59.5736896,0.0301395349 L59.5736896,0.0301395349 Z M56.4194233,17.4770233 C56.4194233,17.8448372 56.385308,18.2472558 56.3187552,18.5140465 C55.7818588,20.455814 54.8417308,20.8253023 54.1376135,20.8253023 C52.4598123,20.8253023 51.5873556,18.4816744 51.5873556,15.1328372 C51.5873556,12.1188837 52.2579168,9.37283721 54.2377223,9.37283721 C55.3786272,9.37283721 56.2175278,10.6453953 56.385308,12.1188837 C56.4194233,12.4543256 56.4194233,12.8226977 56.4194233,13.124093 L56.4194233,17.4770233 L56.4194233,17.4770233 Z M67.2541046,6.66027907 C64.2681776,6.66027907 61.4830275,9.17190698 61.4830275,15.0987907 C61.4830275,20.691907 63.8319493,23.4708837 67.087443,23.4708837 L67.1215583,23.4708837 C69.6041449,23.4708837 72.7925266,21.4950698 72.7925266,15.0323721 C72.7908488,9.54083721 70.475483,6.66027907 67.2541046,6.66027907 L67.2541046,6.66027907 Z M67.1875518,20.992186 L67.1534365,20.992186 C65.1070782,20.992186 64.6367346,17.7773023 64.6367346,15.0653023 C64.6367346,12.6206512 65.0399662,9.13786047 67.1193212,9.13786047 C69.1326827,9.13786047 69.5689111,12.6206512 69.5689111,15.0653023 C69.5700296,17.544 69.133242,20.992186 67.1875518,20.992186 L67.1875518,20.992186 Z M81.3353314,6.66027907 C79.8929815,6.66027907 78.7520767,7.29655814 77.913176,8.76948837 L77.846064,8.76948837 L77.846064,0.0301395349 L74.6917976,0.0301395349 L74.6917976,19.0174884 C74.6917976,20.2565581 74.6246856,22.0989767 74.5575735,23.2029767 L77.2756116,23.2029767 L77.4433917,21.1607442 L77.5770565,21.1607442 C78.2822923,22.6007442 79.1877457,23.472 80.798435,23.472 C83.482917,23.472 85.8659541,20.6243721 85.8659541,14.7985116 C85.8648355,9.80818605 84.1199222,6.66027907 81.3353314,6.66027907 L81.3353314,6.66027907 Z M80.0937584,20.8253023 C79.4556347,20.8253023 78.4830692,20.4228837 77.9797288,18.4476279 C77.8790607,18.1802791 77.846064,17.8107907 77.846064,17.4424186 L77.846064,12.8891163 C77.846064,12.5531163 77.8801793,12.1183256 77.9472913,11.784 C78.1821835,10.611907 79.0210841,9.37283721 80.0602024,9.37283721 C81.9393398,9.37283721 82.6786909,11.8844651 82.6786909,14.9988837 C82.6775724,18.3471628 81.9723366,20.8253023 80.0937584,20.8253023 L80.0937584,20.8253023 Z M93.2706503,6.66027907 C89.8809325,6.66027907 87.4324612,9.94213953 87.4324612,15.2656744 C87.4324612,20.2889302 89.5806061,23.3698605 93.6738819,23.3698605 C95.1162317,23.3698605 96.5932561,23.1025116 97.5663808,22.600186 L97.0960372,20.3229767 C96.3908014,20.6584186 95.4182359,20.9252093 94.2778903,20.9252093 C92.3646376,20.9252093 90.5531715,19.8876279 90.5190562,15.7021395 L98.16983,15.736186 C98.2039453,15.3008372 98.2363828,14.7979535 98.2363828,13.9947907 C98.2363828,9.90865116 96.6598089,6.66027907 93.2706503,6.66027907 L93.2706503,6.66027907 Z M90.5526123,13.4578605 C90.6538396,11.4150698 91.3915129,9.03739535 93.0351989,9.03739535 C94.2767718,9.03739535 95.2840118,10.5778605 95.2498965,13.4578605 L90.5526123,13.4578605 L90.5526123,13.4578605 Z M98.0982438,7.368 L98.0982438,7.36186047 C98.1849302,7.33618605 98.2559572,7.27144186 98.2559572,7.16483721 C98.2559572,7.08725581 98.2302309,7.03311628 98.1815746,6.99739535 C98.1334777,6.96223256 98.0535025,6.93655814 97.9304637,6.93655814 C97.8337105,6.93655814 97.7693948,6.94660465 97.7017235,6.95553488 L97.7017235,7.76372093 L97.8303549,7.76372093 L97.8303549,7.416 L97.9203969,7.416 C98.0238613,7.416 98.0747546,7.45451163 98.0948882,7.55776744 C98.1105477,7.66381395 98.1301221,7.73804651 98.1508149,7.76372093 L98.285039,7.76372093 C98.2732944,7.73804651 98.2526016,7.68948837 98.2335865,7.56446512 C98.2173677,7.44502326 98.1692708,7.38083721 98.0982438,7.368 L98.0982438,7.368 Z M97.9243118,7.31609302 L97.8309142,7.31609302 L97.8309142,7.04260465 C97.8532848,7.03981395 97.8823667,7.03646512 97.9243118,7.03646512 C98.0697212,7.03646512 98.1211738,7.1067907 98.1211738,7.17767442 C98.1206145,7.27813953 98.0305725,7.31609302 97.9243118,7.31609302 L97.9243118,7.31609302 Z M97.9696124,6.61786047 L97.9662568,6.61786047 C97.5697364,6.61786047 97.2470393,6.93990698 97.2470393,7.34232558 C97.2470393,7.75088372 97.5697364,8.0695814 97.9662568,8.0695814 C98.3661328,8.0695814 98.6821187,7.75144186 98.6821187,7.34232558 C98.6821187,6.93990698 98.3661328,6.61786047 97.9696124,6.61786047 L97.9696124,6.61786047 Z M97.9696124,7.95683721 C97.6469153,7.95683721 97.3857376,7.68725581 97.3857376,7.34232558 C97.3857376,7.00465116 97.6469153,6.73060465 97.9662568,6.73060465 L97.9696124,6.73060465 C98.2917502,6.73060465 98.5495724,7.00409302 98.5495724,7.34567442 C98.5495724,7.68613953 98.2917502,7.96018605 97.9696124,7.95683721 L97.9696124,7.95683721 Z" id="Shape" fill="#FFFFFF"></path>
                        </g>
                    </g>
                </g>
            </g>
        </g>
    </g>
</svg>