<?xml version="1.0" encoding="UTF-8" standalone="no"?>
<svg width="49px" height="42px" viewBox="0 0 49 42" version="1.1" xmlns="http://www.w3.org/2000/svg" xmlns:xlink="http://www.w3.org/1999/xlink">
    <!-- Generator: Sketch 39.1 (31720) - http://www.bohemiancoding.com/sketch -->
    <title></title>
    <desc>Created with Sketch.</desc>
    <defs></defs>
    <g id="Page-1" stroke="none" stroke-width="1" fill="none" fill-rule="evenodd">
        <g id="Artboard-2-Copy-4" transform="translate(-476.000000, -1711.000000)" fill="#000000">
            <path d="M521.361137,1719.0043 L510.561722,1719.0043 L510.585148,1715.39669 C510.569531,1714.89693 510.468019,1714.42841 510.280609,1713.99112 C510.0932,1713.55384 509.835516,1713.17512 509.507549,1712.85496 C509.179583,1712.5348 508.800865,1712.28102 508.371385,1712.09361 C507.941905,1711.9062 507.469485,1711.8125 506.954109,1711.8125 L494.983391,1711.8125 C494.468015,1711.8125 493.995595,1711.9062 493.566115,1712.09361 C493.136635,1712.28102 492.757917,1712.5348 492.429951,1712.85496 C492.101984,1713.17512 491.8443,1713.55384 491.656891,1713.99112 C491.469481,1714.42841 491.367969,1714.89693 491.352352,1715.39669 L491.375778,1719.0043 L480.576363,1719.0043 C480.092222,1719.0043 479.62761,1719.098 479.182513,1719.28541 C478.737415,1719.47282 478.354794,1719.73051 478.034636,1720.05847 C477.714478,1720.38644 477.456794,1720.76906 477.261576,1721.20635 C477.066358,1721.64364 476.976559,1722.10435 476.992176,1722.58849 L476.96875,1748.98966 C476.984367,1749.48942 477.081975,1749.95793 477.261576,1750.39522 C477.441176,1750.83251 477.698861,1751.21123 478.034636,1751.53139 C478.370411,1751.85155 478.753033,1752.10532 479.182513,1752.29273 C479.611993,1752.48014 480.084414,1752.57385 480.59979,1752.57385 L521.33771,1752.57385 C521.853086,1752.57385 522.325507,1752.48014 522.754987,1752.29273 C523.184467,1752.10532 523.567089,1751.85155 523.902864,1751.53139 C524.238639,1751.21123 524.496324,1750.83251 524.675924,1750.39522 C524.855525,1749.95793 524.953133,1749.48942 524.96875,1748.98966 L524.945324,1722.58849 C524.960941,1722.10435 524.871142,1721.64364 524.675924,1721.20635 C524.480706,1720.76906 524.223022,1720.38644 523.902864,1720.05847 C523.582706,1719.73051 523.200085,1719.47282 522.754987,1719.28541 C522.30989,1719.098 521.845278,1719.0043 521.361137,1719.0043 L521.361137,1719.0043 Z M493.765236,1715.39669 C493.780854,1715.24051 493.815992,1715.08825 493.870653,1714.93988 C493.925314,1714.79151 494.011209,1714.66267 494.12834,1714.55335 C494.245471,1714.44403 494.370409,1714.35813 494.503157,1714.29566 C494.635905,1714.23319 494.795982,1714.20196 494.983391,1714.20196 L506.954109,1714.20196 C507.141518,1714.20196 507.301595,1714.23319 507.434343,1714.29566 C507.567091,1714.35813 507.692029,1714.44403 507.80916,1714.55335 C507.926291,1714.66267 508.012186,1714.79151 508.066847,1714.93988 C508.121508,1715.08825 508.156646,1715.24051 508.172264,1715.39669 L508.148838,1719.0043 L493.788662,1719.0043 L493.765236,1715.39669 Z M480.59979,1721.39376 L521.33771,1721.39376 C521.52512,1721.39376 521.689101,1721.42499 521.829658,1721.48746 C521.970215,1721.54993 522.099057,1721.63583 522.216188,1721.74515 C522.333319,1721.85447 522.419213,1721.98331 522.473874,1722.13168 C522.528536,1722.28005 522.563674,1722.43231 522.579292,1722.58849 L522.555866,1740.5797 L517.776949,1740.5797 L517.753523,1739.38497 C517.769141,1739.2288 517.74181,1739.07653 517.671532,1738.92817 C517.601253,1738.7798 517.515359,1738.65096 517.413845,1738.54164 C517.312332,1738.43231 517.18349,1738.34642 517.027315,1738.28395 C516.871141,1738.22148 516.722777,1738.19025 516.58222,1738.19025 L511.756451,1738.19025 C511.600277,1738.19025 511.448009,1738.22148 511.299643,1738.28395 C511.151277,1738.34642 511.02634,1738.43231 510.924826,1738.54164 C510.823313,1738.65096 510.737418,1738.7798 510.667139,1738.92817 C510.596861,1739.07653 510.569531,1739.2288 510.585148,1739.38497 L510.561722,1740.5797 L491.375778,1740.5797 L491.352352,1739.38497 C491.367969,1739.2288 491.340639,1739.07653 491.270361,1738.92817 C491.200082,1738.7798 491.114187,1738.65096 491.012674,1738.54164 C490.91116,1738.43231 490.786223,1738.34642 490.637857,1738.28395 C490.489491,1738.22148 490.337223,1738.19025 490.181049,1738.19025 L485.35528,1738.19025 C485.214723,1738.19025 485.066359,1738.22148 484.910185,1738.28395 C484.75401,1738.34642 484.625168,1738.43231 484.523655,1738.54164 C484.422141,1738.65096 484.336247,1738.7798 484.265968,1738.92817 C484.19569,1739.07653 484.168359,1739.2288 484.183977,1739.38497 L484.160551,1740.5797 L479.381634,1740.5797 L479.358208,1722.58849 C479.373826,1722.43231 479.408964,1722.28005 479.463626,1722.13168 C479.518287,1721.98331 479.604181,1721.85447 479.721312,1721.74515 C479.838443,1721.63583 479.967285,1721.54993 480.107842,1721.48746 C480.248399,1721.42499 480.41238,1721.39376 480.59979,1721.39376 L480.59979,1721.39376 Z M515.340639,1740.5797 L515.364065,1742.99259 L512.95118,1742.99259 L512.974607,1740.5797 L515.340639,1740.5797 Z M488.98632,1740.5797 L488.962893,1742.99259 L486.596861,1742.99259 L486.573435,1740.5797 L488.98632,1740.5797 Z M521.33771,1750.18439 L480.59979,1750.18439 C480.41238,1750.18439 480.248399,1750.15315 480.107842,1750.09068 C479.967285,1750.02821 479.838443,1749.94232 479.721312,1749.833 C479.604181,1749.72368 479.518287,1749.59483 479.463626,1749.44647 C479.408964,1749.2981 479.373826,1749.14583 479.358208,1748.98966 L479.381634,1742.99259 L484.160551,1742.99259 L484.183977,1744.18732 C484.168359,1744.35911 484.19569,1744.51528 484.265968,1744.65584 C484.336247,1744.7964 484.422141,1744.92133 484.523655,1745.03066 C484.625168,1745.13998 484.75401,1745.22587 484.910185,1745.28834 C485.066359,1745.35081 485.214723,1745.38205 485.35528,1745.38205 L490.181049,1745.38205 C490.337223,1745.38205 490.489491,1745.35081 490.637857,1745.28834 C490.786223,1745.22587 490.91116,1745.13998 491.012674,1745.03066 C491.114187,1744.92133 491.200082,1744.7964 491.270361,1744.65584 C491.340639,1744.51528 491.367969,1744.35911 491.352352,1744.18732 L491.375778,1742.99259 L510.561722,1742.99259 L510.585148,1744.18732 C510.569531,1744.35911 510.596861,1744.51528 510.667139,1744.65584 C510.737418,1744.7964 510.823313,1744.92133 510.924826,1745.03066 C511.02634,1745.13998 511.151277,1745.22587 511.299643,1745.28834 C511.448009,1745.35081 511.600277,1745.38205 511.756451,1745.38205 L516.58222,1745.38205 C516.722777,1745.38205 516.871141,1745.35081 517.027315,1745.28834 C517.18349,1745.22587 517.312332,1745.13998 517.413845,1745.03066 C517.515359,1744.92133 517.601253,1744.7964 517.671532,1744.65584 C517.74181,1744.51528 517.769141,1744.35911 517.753523,1744.18732 L517.776949,1742.99259 L522.555866,1742.99259 L522.579292,1748.98966 C522.563674,1749.14583 522.528536,1749.2981 522.473874,1749.44647 C522.419213,1749.59483 522.333319,1749.72368 522.216188,1749.833 C522.099057,1749.94232 521.970215,1750.02821 521.829658,1750.09068 C521.689101,1750.15315 521.52512,1750.18439 521.33771,1750.18439 L521.33771,1750.18439 Z" id=""></path>
        </g>
    </g>
</svg>