<?xml version="1.0" encoding="UTF-8"?>
<svg width="48px" height="49px" viewBox="0 0 48 49" version="1.1" xmlns="http://www.w3.org/2000/svg" xmlns:xlink="http://www.w3.org/1999/xlink">
    <!-- Generator: Sketch 41.1 (35376) - http://www.bohemiancoding.com/sketch -->
    <title>chappal</title>
    <desc>Created with Sketch.</desc>
    <defs></defs>
    <g id="Page-1" stroke="none" stroke-width="1" fill="none" fill-rule="evenodd">
        <g id="Artboard-2-Copy-4" transform="translate(-136.000000, -1365.000000)" fill="#FFFFFF">
            <path d="M183.296875,1386.41406 C183.390625,1385.88281 183.480468,1385.32422 183.566406,1384.73828 C183.652344,1384.15234 183.726562,1383.53516 183.789062,1382.88672 C183.851563,1382.23828 183.902344,1381.5625 183.941406,1380.85938 C183.980469,1380.15625 184,1379.40625 184,1378.60938 C184,1377.28124 183.847658,1376.08985 183.542969,1375.03516 C183.23828,1373.98046 182.843752,1373.03907 182.359375,1372.21094 C181.874998,1371.38281 181.33594,1370.66407 180.742188,1370.05469 C180.148435,1369.44531 179.570315,1368.92188 179.007812,1368.48438 C178.351559,1368 177.648441,1367.56641 176.898438,1367.18359 C176.148434,1366.80078 175.371098,1366.47656 174.566406,1366.21094 C173.761715,1365.94531 172.937504,1365.74219 172.09375,1365.60156 C171.249996,1365.46094 170.421879,1365.39062 169.609375,1365.39062 C169.124998,1365.39062 168.61719,1365.44922 168.085938,1365.56641 C167.554685,1365.68359 167.019534,1365.90234 166.480469,1366.22266 C165.941404,1366.54297 165.42969,1366.98437 164.945312,1367.54688 C164.460935,1368.10938 164.031252,1368.83593 163.65625,1369.72656 C163.437499,1370.22656 163.250001,1370.75781 163.09375,1371.32031 C162.937499,1371.88282 162.808594,1372.48437 162.707031,1373.125 C162.605468,1373.76563 162.527344,1374.4414 162.472656,1375.15234 C162.417968,1375.86328 162.390625,1376.60937 162.390625,1377.39062 C162.390625,1378.70313 162.484374,1379.91406 162.671875,1381.02344 C162.859376,1382.13282 163.062499,1383.14843 163.28125,1384.07031 C163.015624,1384.74219 162.800782,1385.42187 162.636719,1386.10938 C162.472655,1386.79688 162.390625,1387.49218 162.390625,1388.19531 C162.390625,1388.97657 162.457031,1389.71484 162.589844,1390.41016 C162.722657,1391.10547 162.898436,1391.76172 163.117188,1392.37891 C163.335939,1392.9961 163.585936,1393.57031 163.867188,1394.10156 C164.148439,1394.63282 164.445311,1395.125 164.757812,1395.57812 C164.742187,1395.95313 164.726563,1396.33203 164.710938,1396.71484 C164.695312,1397.09766 164.679688,1397.47656 164.664062,1397.85156 C164.601562,1399.17969 164.558594,1400.48437 164.535156,1401.76562 C164.511719,1403.04688 164.562499,1404.26171 164.6875,1405.41016 C164.812501,1406.5586 165.046873,1407.61718 165.390625,1408.58594 C165.734377,1409.55469 166.249997,1410.39062 166.9375,1411.09375 C167.656254,1411.84375 168.531245,1412.40234 169.5625,1412.76953 C170.593755,1413.13672 171.804681,1413.32031 173.195312,1413.32031 C174.179692,1413.32031 175.078121,1413.20313 175.890625,1412.96875 C176.703129,1412.73437 177.429684,1412.38281 178.070312,1411.91406 C178.632815,1411.49219 179.128904,1410.98828 179.558594,1410.40234 C179.988283,1409.8164 180.343749,1409.14844 180.625,1408.39844 C180.875001,1407.74218 181.062499,1407.06641 181.1875,1406.37109 C181.312501,1405.67578 181.40625,1404.97266 181.46875,1404.26172 C181.53125,1403.55078 181.570312,1402.85157 181.585938,1402.16406 C181.601563,1401.47656 181.609375,1400.82032 181.609375,1400.19531 C181.609375,1399.49218 181.621094,1398.79688 181.644531,1398.10938 C181.667969,1397.42187 181.710937,1396.75 181.773438,1396.09375 C182.320315,1395.375 182.828123,1394.46094 183.296875,1393.35156 C183.765627,1392.24218 184,1390.92188 184,1389.39062 C184,1388.92187 183.941407,1388.44141 183.824219,1387.94922 C183.707031,1387.45703 183.531251,1386.94532 183.296875,1386.41406 Z M169.609375,1367.80469 C170.765631,1367.80469 172.039056,1367.99609 173.429688,1368.37891 C174.820319,1368.76172 176.121088,1369.38281 177.332031,1370.24219 C178.542975,1371.10157 179.55859,1372.21874 180.378906,1373.59375 C181.199223,1374.96876 181.609375,1376.64062 181.609375,1378.60938 C181.609375,1379.5 181.582032,1380.33984 181.527344,1381.12891 C181.472656,1381.91797 181.40625,1382.66406 181.328125,1383.36719 C180.828123,1382.77343 180.265628,1382.16407 179.640625,1381.53906 C179.015622,1380.91406 178.328129,1380.28125 177.578125,1379.64062 C176.999997,1379.15625 176.433597,1378.69922 175.878906,1378.26953 C175.324216,1377.83984 174.80469,1377.44922 174.320312,1377.09766 C173.835935,1376.74609 173.394533,1376.4375 172.996094,1376.17188 C172.597654,1375.90625 172.265626,1375.69531 172,1375.53906 L172,1373.80469 C172,1373.47656 171.882814,1373.19531 171.648438,1372.96094 C171.414061,1372.72656 171.132814,1372.60938 170.804688,1372.60938 C170.476561,1372.60938 170.195314,1372.72656 169.960938,1372.96094 C169.726561,1373.19531 169.609375,1373.47656 169.609375,1373.80469 L169.609375,1375.65625 C169.390624,1375.84375 169.109377,1376.10547 168.765625,1376.44141 C168.421873,1376.77735 168.046877,1377.16406 167.640625,1377.60156 C167.234373,1378.03906 166.808596,1378.52734 166.363281,1379.06641 C165.917967,1379.60547 165.484377,1380.1875 165.0625,1380.8125 C164.984375,1380.28125 164.921875,1379.73438 164.875,1379.17188 C164.828125,1378.60937 164.804688,1378.01563 164.804688,1377.39062 C164.804688,1376.5 164.859374,1375.50001 164.96875,1374.39062 C165.078126,1373.28124 165.30078,1372.23829 165.636719,1371.26172 C165.972658,1370.28515 166.457028,1369.46485 167.089844,1368.80078 C167.722659,1368.13672 168.562495,1367.80469 169.609375,1367.80469 Z M173.195312,1410.92969 C172.148432,1410.92969 171.25391,1410.80859 170.511719,1410.56641 C169.769528,1410.32422 169.156252,1409.95313 168.671875,1409.45312 C168.171873,1408.9375 167.796876,1408.28125 167.546875,1407.48438 C167.296874,1406.6875 167.128907,1405.80079 167.042969,1404.82422 C166.957031,1403.84765 166.921875,1402.80079 166.9375,1401.68359 C166.953125,1400.5664 166.992187,1399.41407 167.054688,1398.22656 C167.226563,1398.38281 167.367187,1398.50781 167.476562,1398.60156 C167.585938,1398.69531 167.65625,1398.75 167.6875,1398.76562 C167.953126,1398.95313 168.246092,1399.02344 168.566406,1398.97656 C168.88672,1398.92969 169.148436,1398.78125 169.351562,1398.53125 C169.554689,1398.26562 169.632813,1397.96875 169.585938,1397.64062 C169.539062,1397.3125 169.382814,1397.04688 169.117188,1396.84375 C169.117188,1396.82812 168.890627,1396.6211 168.4375,1396.22266 C167.984373,1395.82422 167.488284,1395.25 166.949219,1394.5 C166.410154,1393.75 165.917971,1392.84376 165.472656,1391.78125 C165.027342,1390.71874 164.804688,1389.52344 164.804688,1388.19531 C164.804688,1387.10156 165.042966,1386.01563 165.519531,1384.9375 C165.996096,1383.85937 166.566403,1382.84766 167.230469,1381.90234 C167.894535,1380.95703 168.570309,1380.11719 169.257812,1379.38281 C169.945316,1378.64843 170.499998,1378.08594 170.921875,1377.69531 C171.453128,1378.03906 172.183589,1378.53906 173.113281,1379.19531 C174.042973,1379.85157 175.01562,1380.60937 176.03125,1381.46875 C176.921879,1382.23438 177.71484,1382.98047 178.410156,1383.70703 C179.105472,1384.4336 179.687498,1385.13281 180.15625,1385.80469 C180.625002,1386.47657 180.984374,1387.11328 181.234375,1387.71484 C181.484376,1388.31641 181.609375,1388.875 181.609375,1389.39062 C181.609375,1390.46876 181.437502,1391.47656 181.09375,1392.41406 C180.749998,1393.35157 180.242191,1394.21093 179.570312,1394.99219 C179.054685,1395.58594 178.574221,1396.02344 178.128906,1396.30469 L177.460938,1396.72656 C177.164061,1396.86719 176.964844,1397.09765 176.863281,1397.41797 C176.761718,1397.73828 176.781249,1398.04687 176.921875,1398.34375 C177.031251,1398.54688 177.183593,1398.70703 177.378906,1398.82422 C177.57422,1398.94141 177.781249,1399 178,1399 C178.09375,1399 178.183593,1398.98828 178.269531,1398.96484 C178.355469,1398.94141 178.445312,1398.91406 178.539062,1398.88281 C178.554688,1398.86719 178.624999,1398.82422 178.75,1398.75391 C178.875001,1398.68359 179.031249,1398.58594 179.21875,1398.46094 C179.21875,1398.74219 179.214844,1399.02734 179.207031,1399.31641 C179.199219,1399.60547 179.195312,1399.89844 179.195312,1400.19531 C179.195312,1401.66407 179.144532,1403.05077 179.042969,1404.35547 C178.941406,1405.66016 178.687502,1406.79687 178.28125,1407.76562 C177.874998,1408.73438 177.273441,1409.5039 176.476562,1410.07422 C175.679684,1410.64453 174.585944,1410.92969 173.195312,1410.92969 Z M156.71875,1384 C156.937501,1383.07812 157.140624,1382.06251 157.328125,1380.95312 C157.515626,1379.84374 157.609375,1378.63282 157.609375,1377.32031 C157.609375,1376.53906 157.582032,1375.79297 157.527344,1375.08203 C157.472656,1374.37109 157.394532,1373.69532 157.292969,1373.05469 C157.191406,1372.41406 157.062501,1371.8125 156.90625,1371.25 C156.749999,1370.6875 156.562501,1370.15625 156.34375,1369.65625 C155.968748,1368.76562 155.539065,1368.03907 155.054688,1367.47656 C154.57031,1366.91406 154.058596,1366.47266 153.519531,1366.15234 C152.980466,1365.83203 152.445315,1365.61328 151.914062,1365.49609 C151.38281,1365.37891 150.875002,1365.32031 150.390625,1365.32031 C149.578121,1365.32031 148.750004,1365.39062 147.90625,1365.53125 C147.062496,1365.67188 146.238285,1365.875 145.433594,1366.14062 C144.628902,1366.40625 143.851566,1366.73047 143.101562,1367.11328 C142.351559,1367.4961 141.648441,1367.92969 140.992188,1368.41406 C140.429685,1368.83594 139.851565,1369.35547 139.257812,1369.97266 C138.66406,1370.58985 138.125002,1371.3125 137.640625,1372.14062 C137.156248,1372.96875 136.76172,1373.91015 136.457031,1374.96484 C136.152342,1376.01954 136,1377.21093 136,1378.53906 C136,1379.32032 136.019531,1380.0664 136.058594,1380.77734 C136.097656,1381.48828 136.148437,1382.16797 136.210938,1382.81641 C136.273438,1383.46485 136.347656,1384.07812 136.433594,1384.65625 C136.519532,1385.23438 136.609375,1385.79687 136.703125,1386.34375 C136.468749,1386.85938 136.292969,1387.36719 136.175781,1387.86719 C136.058593,1388.36719 136,1388.85156 136,1389.32031 C136,1390.85157 136.234373,1392.17187 136.703125,1393.28125 C137.171877,1394.39063 137.679685,1395.30468 138.226562,1396.02344 C138.289063,1396.67969 138.332031,1397.34765 138.355469,1398.02734 C138.378906,1398.70703 138.390625,1399.40625 138.390625,1400.125 C138.390625,1400.75 138.398437,1401.40625 138.414062,1402.09375 C138.429688,1402.78125 138.46875,1403.48047 138.53125,1404.19141 C138.59375,1404.90235 138.687499,1405.60547 138.8125,1406.30078 C138.937501,1406.9961 139.124999,1407.66406 139.375,1408.30469 C139.656251,1409.07032 140.011717,1409.74609 140.441406,1410.33203 C140.871096,1410.91797 141.367185,1411.42187 141.929688,1411.84375 C142.570316,1412.3125 143.296871,1412.66406 144.109375,1412.89844 C144.921879,1413.13281 145.820308,1413.25 146.804688,1413.25 C148.195319,1413.25 149.406245,1413.06641 150.4375,1412.69922 C151.468755,1412.33203 152.343746,1411.77344 153.0625,1411.02344 C153.750003,1410.32031 154.265623,1409.48438 154.609375,1408.51562 C154.953127,1407.54687 155.187499,1406.48829 155.3125,1405.33984 C155.437501,1404.1914 155.488281,1402.97657 155.464844,1401.69531 C155.441406,1400.41406 155.398438,1399.10157 155.335938,1397.75781 C155.320312,1397.39844 155.304688,1397.02735 155.289062,1396.64453 C155.273437,1396.26172 155.257813,1395.88281 155.242188,1395.50781 C155.554689,1395.05469 155.851561,1394.5625 156.132812,1394.03125 C156.414064,1393.5 156.664061,1392.92578 156.882812,1392.30859 C157.101564,1391.6914 157.277343,1391.03516 157.410156,1390.33984 C157.542969,1389.64453 157.609375,1388.90625 157.609375,1388.125 C157.609375,1387.42187 157.527345,1386.72657 157.363281,1386.03906 C157.199218,1385.35156 156.984376,1384.67188 156.71875,1384 Z M150.648438,1398.4375 C150.835938,1398.70313 151.093748,1398.85937 151.421875,1398.90625 C151.750002,1398.95313 152.046874,1398.88281 152.3125,1398.69531 C152.34375,1398.67969 152.414062,1398.625 152.523438,1398.53125 C152.632813,1398.4375 152.773437,1398.3125 152.945312,1398.15625 C153.007813,1399.32813 153.046875,1400.47656 153.0625,1401.60156 C153.078125,1402.72657 153.042969,1403.77734 152.957031,1404.75391 C152.871093,1405.73047 152.703126,1406.61718 152.453125,1407.41406 C152.203124,1408.21094 151.828127,1408.86718 151.328125,1409.38281 C150.843748,1409.88281 150.230472,1410.25391 149.488281,1410.49609 C148.74609,1410.73828 147.851568,1410.85938 146.804688,1410.85938 C145.414056,1410.85938 144.320316,1410.57422 143.523438,1410.00391 C142.726559,1409.43359 142.125002,1408.66407 141.71875,1407.69531 C141.312498,1406.72656 141.058594,1405.58985 140.957031,1404.28516 C140.855468,1402.98046 140.804688,1401.59376 140.804688,1400.125 C140.804688,1399.82812 140.800781,1399.53516 140.792969,1399.24609 C140.785156,1398.95703 140.78125,1398.67188 140.78125,1398.39062 C140.968751,1398.51563 141.124999,1398.61328 141.25,1398.68359 C141.375001,1398.75391 141.445312,1398.79687 141.460938,1398.8125 C141.554688,1398.84375 141.644531,1398.87109 141.730469,1398.89453 C141.816407,1398.91797 141.90625,1398.92969 142,1398.92969 C142.218751,1398.92969 142.42578,1398.87109 142.621094,1398.75391 C142.816407,1398.63672 142.968749,1398.47656 143.078125,1398.27344 C143.218751,1397.97656 143.238282,1397.66797 143.136719,1397.34766 C143.035156,1397.02734 142.835939,1396.79688 142.539062,1396.65625 C142.523437,1396.65625 142.300783,1396.51563 141.871094,1396.23438 C141.441404,1395.95312 140.968753,1395.51953 140.453125,1394.93359 C139.937497,1394.34765 139.464846,1393.59375 139.035156,1392.67188 C138.605467,1391.75 138.390625,1390.63282 138.390625,1389.32031 C138.390625,1388.80468 138.511718,1388.2461 138.753906,1387.64453 C138.996095,1387.04297 139.355466,1386.40625 139.832031,1385.73438 C140.308596,1385.0625 140.890622,1384.36328 141.578125,1383.63672 C142.265628,1382.91015 143.054683,1382.17188 143.945312,1381.42188 C144.960943,1380.5625 145.937495,1379.80078 146.875,1379.13672 C147.812505,1378.47265 148.546872,1377.96875 149.078125,1377.625 C149.500002,1378.01563 150.054684,1378.57812 150.742188,1379.3125 C151.429691,1380.04688 152.105465,1380.88671 152.769531,1381.83203 C153.433597,1382.77735 154.003904,1383.78906 154.480469,1384.86719 C154.957034,1385.94532 155.195312,1387.03124 155.195312,1388.125 C155.195312,1389.45313 154.972658,1390.64843 154.527344,1391.71094 C154.082029,1392.77344 153.589846,1393.67968 153.050781,1394.42969 C152.511716,1395.17969 152.015627,1395.7539 151.5625,1396.15234 C151.109373,1396.55078 150.882812,1396.75781 150.882812,1396.77344 C150.617186,1396.97656 150.460938,1397.24219 150.414062,1397.57031 C150.367187,1397.89844 150.445311,1398.1875 150.648438,1398.4375 Z M154.9375,1380.74219 C154.515623,1380.11718 154.082033,1379.53516 153.636719,1378.99609 C153.191404,1378.45703 152.765627,1377.96875 152.359375,1377.53125 C151.953123,1377.09375 151.578127,1376.70703 151.234375,1376.37109 C150.890623,1376.03515 150.609376,1375.77344 150.390625,1375.58594 L150.390625,1373.73438 C150.390625,1373.40625 150.273439,1373.125 150.039062,1372.89062 C149.804686,1372.65625 149.523439,1372.53906 149.195312,1372.53906 C148.867186,1372.53906 148.585939,1372.65625 148.351562,1372.89062 C148.117186,1373.125 148,1373.40625 148,1373.73438 L148,1375.46875 C147.734374,1375.625 147.402346,1375.83594 147.003906,1376.10156 C146.605467,1376.36719 146.164065,1376.67578 145.679688,1377.02734 C145.19531,1377.37891 144.675784,1377.76953 144.121094,1378.19922 C143.566403,1378.62891 143.000003,1379.08594 142.421875,1379.57031 C141.671871,1380.21094 140.984378,1380.83984 140.359375,1381.45703 C139.734372,1382.07422 139.171877,1382.6875 138.671875,1383.29688 C138.59375,1382.59375 138.527344,1381.84766 138.472656,1381.05859 C138.417968,1380.26953 138.390625,1379.42969 138.390625,1378.53906 C138.390625,1376.5703 138.800777,1374.89844 139.621094,1373.52344 C140.44141,1372.14843 141.457025,1371.03125 142.667969,1370.17188 C143.878912,1369.3125 145.179681,1368.69141 146.570312,1368.30859 C147.960944,1367.92578 149.234369,1367.73438 150.390625,1367.73438 C151.437505,1367.73438 152.277341,1368.0664 152.910156,1368.73047 C153.542972,1369.39453 154.027342,1370.21484 154.363281,1371.19141 C154.69922,1372.16797 154.921874,1373.21093 155.03125,1374.32031 C155.140626,1375.42969 155.195312,1376.42968 155.195312,1377.32031 C155.195312,1377.94532 155.171875,1378.53906 155.125,1379.10156 C155.078125,1379.66407 155.015625,1380.21093 154.9375,1380.74219 Z" id="chappal"></path>
        </g>
    </g>
</svg>