<?xml version="1.0" encoding="UTF-8"?>
<svg width="14px" height="376px" viewBox="0 0 14 376" version="1.1" xmlns="http://www.w3.org/2000/svg" xmlns:xlink="http://www.w3.org/1999/xlink">
    <!-- Generator: Sketch 42 (36781) - http://www.bohemiancoding.com/sketch -->
    <title>Varun Mohapatra ©201 Copy</title>
    <desc>Created with Sketch.</desc>
    <defs></defs>
    <g id="Page-1" stroke="none" stroke-width="1" fill="none" fill-rule="evenodd">
        <g id="Artboard" transform="translate(-308.000000, -155.000000)" fill="#FFFFFF">
            <path d="M132.543902,349.034682 C132.651902,349.034682 132.723902,348.962682 132.759902,348.854682 L136.647902,336.974682 C136.683902,336.866682 136.611902,336.794682 136.503902,336.794682 L134.757902,336.794682 C134.631902,336.794682 134.559902,336.848682 134.523902,336.974682 L131.895902,345.650682 L131.841902,345.650682 L129.105902,336.974682 C129.069902,336.848682 128.997902,336.794682 128.871902,336.794682 L127.125902,336.794682 C127.017902,336.794682 126.945902,336.866682 126.981902,336.974682 L130.851902,348.854682 C130.887902,348.962682 130.959902,349.034682 131.067902,349.034682 L132.543902,349.034682 Z M144.251902,348.854682 L148.445902,336.974682 C148.481902,336.866682 148.553902,336.794682 148.679902,336.794682 L150.335902,336.794682 C150.461902,336.794682 150.533902,336.866682 150.569902,336.974682 L154.709902,348.854682 C154.745902,348.962682 154.709902,349.034682 154.583902,349.034682 L152.819902,349.034682 C152.693902,349.034682 152.621902,348.980682 152.585902,348.854682 L151.775902,346.478682 L147.167902,346.478682 L146.357902,348.854682 C146.321902,348.980682 146.249902,349.034682 146.123902,349.034682 L144.377902,349.034682 C144.251902,349.034682 144.215902,348.962682 144.251902,348.854682 Z M147.815902,344.588682 L151.127902,344.588682 L149.507902,339.836682 L149.453902,339.836682 L147.815902,344.588682 Z M173.329902,349.034682 L171.331902,349.034682 C171.187902,349.034682 171.115902,348.980682 171.061902,348.854682 L168.721902,344.084682 L166.615902,344.084682 C166.543902,344.084682 166.507902,344.120682 166.507902,344.192682 L166.507902,348.854682 C166.507902,348.962682 166.435902,349.034682 166.327902,349.034682 L164.563902,349.034682 C164.455902,349.034682 164.383902,348.962682 164.383902,348.854682 L164.383902,336.974682 C164.383902,336.866682 164.455902,336.794682 164.563902,336.794682 L169.297902,336.794682 C171.547902,336.794682 173.203902,338.288682 173.203902,340.448682 C173.203902,342.050682 172.285902,343.292682 170.881902,343.814682 L173.455902,348.800682 C173.527902,348.926682 173.455902,349.034682 173.329902,349.034682 Z M169.225902,342.176682 C170.341902,342.176682 171.097902,341.492682 171.097902,340.448682 C171.097902,339.386682 170.341902,338.702682 169.225902,338.702682 L166.615902,338.702682 C166.543902,338.702682 166.507902,338.738682 166.507902,338.810682 L166.507902,342.068682 C166.507902,342.140682 166.543902,342.176682 166.615902,342.176682 L169.225902,342.176682 Z M187.953902,347.324682 C186.567902,347.324682 185.577902,346.388682 185.577902,344.696682 L185.577902,336.974682 C185.577902,336.866682 185.505902,336.794682 185.397902,336.794682 L183.633902,336.794682 C183.525902,336.794682 183.453902,336.866682 183.453902,336.974682 L183.453902,344.732682 C183.453902,347.576682 185.379902,349.232682 187.953902,349.232682 C190.545902,349.232682 192.471902,347.576682 192.471902,344.732682 L192.471902,336.974682 C192.471902,336.866682 192.399902,336.794682 192.291902,336.794682 L190.527902,336.794682 C190.419902,336.794682 190.347902,336.866682 190.347902,336.974682 L190.347902,344.696682 C190.347902,346.388682 189.357902,347.324682 187.953902,347.324682 Z M203.099902,348.854682 C203.099902,348.962682 203.171902,349.034682 203.279902,349.034682 L204.845902,349.034682 C204.953902,349.034682 205.025902,348.962682 205.025902,348.854682 L205.025902,340.430682 L205.097902,340.430682 L210.101902,348.854682 C210.173902,348.980682 210.263902,349.034682 210.407902,349.034682 L212.045902,349.034682 C212.153902,349.034682 212.225902,348.962682 212.225902,348.854682 L212.225902,336.974682 C212.225902,336.866682 212.153902,336.794682 212.045902,336.794682 L210.479902,336.794682 C210.371902,336.794682 210.299902,336.866682 210.299902,336.974682 L210.299902,345.416682 L210.227902,345.416682 L205.241902,336.974682 C205.169902,336.848682 205.079902,336.794682 204.935902,336.794682 L203.279902,336.794682 C203.171902,336.794682 203.099902,336.866682 203.099902,336.974682 L203.099902,348.854682 Z M235.173902,348.854682 C235.173902,348.962682 235.245902,349.034682 235.353902,349.034682 L236.919902,349.034682 C237.027902,349.034682 237.099902,348.962682 237.099902,348.854682 L237.099902,341.366682 L237.171902,341.366682 L239.763902,347.126682 C239.835902,347.288682 239.943902,347.360682 240.105902,347.360682 L241.149902,347.360682 C241.311902,347.360682 241.419902,347.288682 241.491902,347.126682 L244.083902,341.366682 L244.155902,341.366682 L244.155902,348.854682 C244.155902,348.962682 244.227902,349.034682 244.335902,349.034682 L245.901902,349.034682 C246.009902,349.034682 246.081902,348.962682 246.081902,348.854682 L246.081902,336.974682 C246.081902,336.866682 246.009902,336.794682 245.901902,336.794682 L244.317902,336.794682 C244.155902,336.794682 244.065902,336.848682 244.011902,336.974682 L240.699902,344.516682 L240.627902,344.516682 L237.261902,336.974682 C237.207902,336.848682 237.117902,336.794682 236.955902,336.794682 L235.353902,336.794682 C235.245902,336.794682 235.173902,336.866682 235.173902,336.974682 L235.173902,348.854682 Z M261.065902,349.232682 C258.959902,349.232682 257.375902,348.224682 256.745902,346.280682 C256.493902,345.524682 256.421902,344.840682 256.421902,342.914682 C256.421902,340.988682 256.493902,340.304682 256.745902,339.548682 C257.375902,337.604682 258.959902,336.596682 261.065902,336.596682 C263.189902,336.596682 264.773902,337.604682 265.403902,339.548682 C265.655902,340.304682 265.727902,340.988682 265.727902,342.914682 C265.727902,344.840682 265.655902,345.524682 265.403902,346.280682 C264.773902,348.224682 263.189902,349.232682 261.065902,349.232682 Z M261.065902,347.324682 C262.289902,347.324682 263.009902,346.712682 263.351902,345.722682 C263.495902,345.272682 263.567902,344.642682 263.567902,342.914682 C263.567902,341.168682 263.495902,340.556682 263.351902,340.106682 C263.009902,339.116682 262.289902,338.504682 261.065902,338.504682 C259.859902,338.504682 259.139902,339.116682 258.797902,340.106682 C258.653902,340.556682 258.581902,341.168682 258.581902,342.914682 C258.581902,344.642682 258.653902,345.272682 258.797902,345.722682 C259.139902,346.712682 259.859902,347.324682 261.065902,347.324682 Z M276.067902,348.854682 C276.067902,348.962682 276.139902,349.034682 276.247902,349.034682 L278.011902,349.034682 C278.119902,349.034682 278.191902,348.962682 278.191902,348.854682 L278.191902,343.922682 C278.191902,343.850682 278.227902,343.814682 278.299902,343.814682 L282.961902,343.814682 C283.033902,343.814682 283.069902,343.850682 283.069902,343.922682 L283.069902,348.854682 C283.069902,348.962682 283.141902,349.034682 283.249902,349.034682 L285.013902,349.034682 C285.121902,349.034682 285.193902,348.962682 285.193902,348.854682 L285.193902,336.974682 C285.193902,336.866682 285.121902,336.794682 285.013902,336.794682 L283.249902,336.794682 C283.141902,336.794682 283.069902,336.866682 283.069902,336.974682 L283.069902,341.798682 C283.069902,341.870682 283.033902,341.906682 282.961902,341.906682 L278.299902,341.906682 C278.227902,341.906682 278.191902,341.870682 278.191902,341.798682 L278.191902,336.974682 C278.191902,336.866682 278.119902,336.794682 278.011902,336.794682 L276.247902,336.794682 C276.139902,336.794682 276.067902,336.866682 276.067902,336.974682 L276.067902,348.854682 Z M294.867902,348.854682 L299.061902,336.974682 C299.097902,336.866682 299.169902,336.794682 299.295902,336.794682 L300.951902,336.794682 C301.077902,336.794682 301.149902,336.866682 301.185902,336.974682 L305.325902,348.854682 C305.361902,348.962682 305.325902,349.034682 305.199902,349.034682 L303.435902,349.034682 C303.309902,349.034682 303.237902,348.980682 303.201902,348.854682 L302.391902,346.478682 L297.783902,346.478682 L296.973902,348.854682 C296.937902,348.980682 296.865902,349.034682 296.739902,349.034682 L294.993902,349.034682 C294.867902,349.034682 294.831902,348.962682 294.867902,348.854682 Z M298.431902,344.588682 L301.743902,344.588682 L300.123902,339.836682 L300.069902,339.836682 L298.431902,344.588682 Z M316.943902,349.034682 L315.179902,349.034682 C315.071902,349.034682 314.999902,348.962682 314.999902,348.854682 L314.999902,336.974682 C314.999902,336.866682 315.071902,336.794682 315.179902,336.794682 L319.769902,336.794682 C322.145902,336.794682 323.801902,338.324682 323.801902,340.592682 C323.801902,342.878682 322.145902,344.408682 319.769902,344.408682 L317.231902,344.408682 C317.159902,344.408682 317.123902,344.444682 317.123902,344.516682 L317.123902,348.854682 C317.123902,348.962682 317.051902,349.034682 316.943902,349.034682 Z M319.643902,342.482682 C320.903902,342.482682 321.677902,341.726682 321.677902,340.592682 C321.677902,339.476682 320.903902,338.702682 319.643902,338.702682 L317.231902,338.702682 C317.159902,338.702682 317.123902,338.738682 317.123902,338.810682 L317.123902,342.374682 C317.123902,342.446682 317.159902,342.482682 317.231902,342.482682 L319.643902,342.482682 Z M331.531902,348.854682 L335.725902,336.974682 C335.761902,336.866682 335.833902,336.794682 335.959902,336.794682 L337.615902,336.794682 C337.741902,336.794682 337.813902,336.866682 337.849902,336.974682 L341.989902,348.854682 C342.025902,348.962682 341.989902,349.034682 341.863902,349.034682 L340.099902,349.034682 C339.973902,349.034682 339.901902,348.980682 339.865902,348.854682 L339.055902,346.478682 L334.447902,346.478682 L333.637902,348.854682 C333.601902,348.980682 333.529902,349.034682 333.403902,349.034682 L331.657902,349.034682 C331.531902,349.034682 331.495902,348.962682 331.531902,348.854682 Z M335.095902,344.588682 L338.407902,344.588682 L336.787902,339.836682 L336.733902,339.836682 L335.095902,344.588682 Z M355.065902,349.034682 C355.173902,349.034682 355.245902,348.962682 355.245902,348.854682 L355.245902,338.810682 C355.245902,338.738682 355.281902,338.702682 355.353902,338.702682 L358.557902,338.702682 C358.665902,338.702682 358.737902,338.630682 358.737902,338.522682 L358.737902,336.974682 C358.737902,336.866682 358.665902,336.794682 358.557902,336.794682 L349.809902,336.794682 C349.701902,336.794682 349.629902,336.866682 349.629902,336.974682 L349.629902,338.522682 C349.629902,338.630682 349.701902,338.702682 349.809902,338.702682 L353.013902,338.702682 C353.085902,338.702682 353.121902,338.738682 353.121902,338.810682 L353.121902,348.854682 C353.121902,348.962682 353.193902,349.034682 353.301902,349.034682 L355.065902,349.034682 Z M377.429902,349.034682 L375.431902,349.034682 C375.287902,349.034682 375.215902,348.980682 375.161902,348.854682 L372.821902,344.084682 L370.715902,344.084682 C370.643902,344.084682 370.607902,344.120682 370.607902,344.192682 L370.607902,348.854682 C370.607902,348.962682 370.535902,349.034682 370.427902,349.034682 L368.663902,349.034682 C368.555902,349.034682 368.483902,348.962682 368.483902,348.854682 L368.483902,336.974682 C368.483902,336.866682 368.555902,336.794682 368.663902,336.794682 L373.397902,336.794682 C375.647902,336.794682 377.303902,338.288682 377.303902,340.448682 C377.303902,342.050682 376.385902,343.292682 374.981902,343.814682 L377.555902,348.800682 C377.627902,348.926682 377.555902,349.034682 377.429902,349.034682 Z M373.325902,342.176682 C374.441902,342.176682 375.197902,341.492682 375.197902,340.448682 C375.197902,339.386682 374.441902,338.702682 373.325902,338.702682 L370.715902,338.702682 C370.643902,338.702682 370.607902,338.738682 370.607902,338.810682 L370.607902,342.068682 C370.607902,342.140682 370.643902,342.176682 370.715902,342.176682 L373.325902,342.176682 Z M386.599902,348.854682 L390.793902,336.974682 C390.829902,336.866682 390.901902,336.794682 391.027902,336.794682 L392.683902,336.794682 C392.809902,336.794682 392.881902,336.866682 392.917902,336.974682 L397.057902,348.854682 C397.093902,348.962682 397.057902,349.034682 396.931902,349.034682 L395.167902,349.034682 C395.041902,349.034682 394.969902,348.980682 394.933902,348.854682 L394.123902,346.478682 L389.515902,346.478682 L388.705902,348.854682 C388.669902,348.980682 388.597902,349.034682 388.471902,349.034682 L386.725902,349.034682 C386.599902,349.034682 386.563902,348.962682 386.599902,348.854682 Z M390.163902,344.588682 L393.475902,344.588682 L391.855902,339.836682 L391.801902,339.836682 L390.163902,344.588682 Z M425.063902,349.232682 C421.499902,349.232682 418.745902,346.478682 418.745902,342.914682 C418.745902,339.350682 421.499902,336.596682 425.063902,336.596682 C428.627902,336.596682 431.381902,339.350682 431.381902,342.914682 C431.381902,346.478682 428.627902,349.232682 425.063902,349.232682 Z M425.063902,347.864682 C427.835902,347.864682 429.941902,345.758682 429.941902,342.914682 C429.941902,340.070682 427.835902,337.964682 425.063902,337.964682 C422.291902,337.964682 420.185902,340.070682 420.185902,342.914682 C420.185902,345.758682 422.291902,347.864682 425.063902,347.864682 Z M425.261902,346.460682 C423.821902,346.460682 422.777902,345.794682 422.363902,344.516682 C422.255902,344.174682 422.165902,343.760682 422.165902,342.914682 C422.165902,342.068682 422.255902,341.654682 422.363902,341.312682 C422.777902,340.034682 423.821902,339.368682 425.261902,339.368682 C426.251902,339.368682 427.079902,339.764682 427.601902,340.376682 C427.673902,340.448682 427.673902,340.556682 427.583902,340.628682 L426.755902,341.366682 C426.683902,341.438682 426.575902,341.420682 426.503902,341.348682 C426.143902,340.952682 425.819902,340.754682 425.279902,340.754682 C424.577902,340.754682 424.073902,341.096682 423.857902,341.726682 C423.785902,341.942682 423.749902,342.194682 423.749902,342.914682 C423.749902,343.634682 423.785902,343.886682 423.857902,344.102682 C424.073902,344.732682 424.577902,345.074682 425.279902,345.074682 C425.819902,345.074682 426.143902,344.876682 426.503902,344.480682 C426.575902,344.408682 426.683902,344.390682 426.755902,344.462682 L427.583902,345.200682 C427.673902,345.272682 427.673902,345.380682 427.601902,345.452682 C427.079902,346.064682 426.251902,346.460682 425.261902,346.460682 Z M441.793902,348.854682 C441.793902,348.962682 441.865902,349.034682 441.973902,349.034682 L448.849902,349.034682 C448.957902,349.034682 449.029902,348.962682 449.029902,348.854682 L449.029902,347.414682 C449.029902,347.306682 448.957902,347.234682 448.849902,347.234682 L444.313902,347.234682 L444.313902,347.198682 L447.877902,342.878682 C448.597902,342.014682 449.029902,341.114682 449.029902,340.016682 C449.029902,338.108682 447.715902,336.596682 445.429902,336.596682 C443.107902,336.596682 441.955902,338.090682 441.793902,339.530682 C441.775902,339.638682 441.829902,339.728682 441.937902,339.746682 L443.521902,340.070682 C443.629902,340.088682 443.701902,340.034682 443.719902,339.926682 C443.845902,338.990682 444.403902,338.396682 445.375902,338.396682 C446.401902,338.396682 446.995902,339.098682 446.995902,340.016682 C446.995902,340.718682 446.689902,341.294682 446.203902,341.888682 L441.883902,347.270682 C441.811902,347.342682 441.793902,347.396682 441.793902,347.504682 L441.793902,348.854682 Z M459.837902,346.838682 C459.675902,346.334682 459.585902,345.758682 459.585902,342.914682 C459.585902,340.070682 459.675902,339.494682 459.837902,338.990682 C460.323902,337.460682 461.493902,336.596682 463.311902,336.596682 C465.129902,336.596682 466.299902,337.460682 466.803902,338.990682 C466.965902,339.494682 467.055902,340.070682 467.055902,342.914682 C467.055902,345.758682 466.965902,346.334682 466.803902,346.838682 C466.299902,348.368682 465.129902,349.232682 463.311902,349.232682 C461.493902,349.232682 460.323902,348.368682 459.837902,346.838682 Z M461.817902,346.460682 C462.051902,347.108682 462.555902,347.432682 463.311902,347.432682 C464.067902,347.432682 464.589902,347.108682 464.823902,346.460682 C464.949902,346.082682 464.985902,345.668682 464.985902,342.914682 C464.985902,340.160682 464.949902,339.746682 464.823902,339.368682 C464.589902,338.720682 464.067902,338.396682 463.311902,338.396682 C462.555902,338.396682 462.051902,338.720682 461.817902,339.368682 C461.691902,339.746682 461.655902,340.160682 461.655902,342.914682 C461.655902,345.668682 461.691902,346.082682 461.817902,346.460682 Z M480.707902,348.854682 C480.707902,348.962682 480.779902,349.034682 480.887902,349.034682 L482.543902,349.034682 C482.651902,349.034682 482.723902,348.962682 482.723902,348.854682 L482.723902,336.974682 C482.723902,336.866682 482.651902,336.794682 482.543902,336.794682 L481.013902,336.794682 C480.869902,336.794682 480.779902,336.830682 480.689902,336.902682 L478.727902,338.324682 C478.637902,338.396682 478.601902,338.468682 478.601902,338.576682 L478.601902,340.412682 C478.601902,340.556682 478.691902,340.592682 478.799902,340.520682 L480.671902,339.206682 L480.707902,339.206682 L480.707902,348.854682 Z M496.645902,348.836682 C496.591902,348.962682 496.645902,349.034682 496.753902,349.034682 L498.463902,349.034682 C498.607902,349.034682 498.643902,348.998682 498.697902,348.872682 L502.747902,338.702682 C502.783902,338.612682 502.801902,338.522682 502.801902,338.378682 L502.801902,336.974682 C502.801902,336.866682 502.729902,336.794682 502.621902,336.794682 L495.763902,336.794682 C495.655902,336.794682 495.583902,336.866682 495.583902,336.974682 L495.583902,340.106682 C495.583902,340.214682 495.655902,340.286682 495.763902,340.286682 L497.311902,340.286682 C497.419902,340.286682 497.491902,340.214682 497.491902,340.106682 L497.491902,338.702682 C497.491902,338.630682 497.527902,338.594682 497.599902,338.594682 L500.641902,338.594682 L500.641902,338.648682 L496.645902,348.836682 Z" id="Varun-Mohapatra-©201-Copy" transform="translate(314.887219, 342.914682) rotate(-90.000000) translate(-314.887219, -342.914682) "></path>
        </g>
    </g>
</svg>