<?xml version="1.0" encoding="UTF-8"?>
<svg width="14px" height="13px" viewBox="0 0 14 13" version="1.1" xmlns="http://www.w3.org/2000/svg" xmlns:xlink="http://www.w3.org/1999/xlink">
    <!-- Generator: Sketch 42 (36781) - http://www.bohemiancoding.com/sketch -->
    <title>couch copy</title>
    <desc>Created with Sketch.</desc>
    <defs></defs>
    <g id="Page-1" stroke="none" stroke-width="1" fill="none" fill-rule="evenodd">
        <g id="Artboard-2-Copy-5" transform="translate(-329.000000, -3875.000000)" stroke="#F6255A" fill="#F6255A">
            <path d="M336.147616,3887 C336.118131,3887 336.090753,3886.99684 336.06548,3886.99052 C336.040207,3886.9842 336.014934,3886.97473 335.989661,3886.96209 C335.972812,3886.95367 335.87804,3886.89786 335.705342,3886.79466 C335.532643,3886.69146 335.308349,3886.5472 335.032453,3886.36186 C334.756556,3886.17653 334.443808,3885.95118 334.094199,3885.68581 C333.744589,3885.42045 333.386561,3885.12349 333.020103,3884.79495 C332.801071,3884.59697 332.594678,3884.39901 332.400919,3884.20103 C332.20716,3884.00306 332.023933,3883.80509 331.851235,3883.60712 C331.678536,3883.40915 331.517424,3883.21013 331.367892,3883.01005 C331.21836,3882.80997 331.08252,3882.61095 330.960368,3882.41298 C330.800306,3882.16025 330.660253,3881.90647 330.540207,3881.65164 C330.42016,3881.3968 330.320123,3881.14408 330.240092,3880.89345 C330.160061,3880.64283 330.100038,3880.39221 330.060023,3880.14159 C330.020007,3879.89096 330,3879.6435 330,3879.3992 C330,3878.93165 330.089507,3878.49148 330.268524,3878.07869 C330.447541,3877.6659 330.690789,3877.30576 330.998277,3876.99828 C331.305765,3876.69079 331.664846,3876.44754 332.075531,3876.26852 C332.486217,3876.08951 332.927434,3876 333.399196,3876 C333.555046,3876 333.714052,3876.01474 333.876221,3876.04423 C334.038389,3876.07371 334.199501,3876.11689 334.359563,3876.17375 C334.519626,3876.23061 334.678632,3876.30011 334.836588,3876.38225 C334.994544,3876.46439 335.147233,3876.56021 335.294658,3876.66973 C335.467357,3876.79609 335.62531,3876.93404 335.768524,3877.08357 C335.911737,3877.2331 336.0381,3877.3879 336.147616,3877.54796 C336.25292,3877.3879 336.37823,3877.2331 336.52355,3877.08357 C336.668869,3876.93404 336.827876,3876.79609 337.000574,3876.66973 C337.148,3876.56021 337.299635,3876.46439 337.455485,3876.38225 C337.611335,3876.30011 337.769289,3876.23061 337.929351,3876.17375 C338.089413,3876.11689 338.250526,3876.07371 338.412694,3876.04423 C338.574862,3876.01474 338.735975,3876 338.896037,3876 C339.363586,3876 339.803751,3876.08951 340.216542,3876.26852 C340.629334,3876.44754 340.989468,3876.69079 341.296956,3876.99828 C341.604443,3877.30576 341.847692,3877.6659 342.026709,3878.07869 C342.205726,3878.49148 342.295233,3878.93165 342.295233,3879.3992 C342.295233,3879.6435 342.274172,3879.89096 342.232051,3880.14159 C342.189929,3880.39221 342.128854,3880.64283 342.048823,3880.89345 C341.968791,3881.14408 341.869807,3881.3968 341.751867,3881.65164 C341.633926,3881.90647 341.494927,3882.16025 341.334865,3882.41298 C341.2085,3882.61095 341.071607,3882.80997 340.924182,3883.01005 C340.776756,3883.21013 340.616696,3883.40915 340.443998,3883.60712 C340.271299,3883.80509 340.08702,3884.00306 339.891155,3884.20103 C339.695289,3884.39901 339.489949,3884.59697 339.275129,3884.79495 C338.908671,3885.12349 338.550643,3885.42045 338.201034,3885.68581 C337.851425,3885.95118 337.538676,3886.17653 337.26278,3886.36186 C336.986884,3886.5472 336.761536,3886.69146 336.586732,3886.79466 C336.411927,3886.89786 336.318208,3886.95367 336.305572,3886.96209 C336.280299,3886.97473 336.253973,3886.9842 336.226594,3886.99052 C336.199215,3886.99684 336.172889,3887 336.147616,3887 Z M333.399196,3876.65078 C333.020101,3876.65078 332.663126,3876.72238 332.32826,3876.86559 C331.993393,3877.00881 331.701705,3877.20467 331.453188,3877.45319 C331.20467,3877.70171 331.007755,3877.99339 330.862435,3878.32826 C330.717116,3878.66313 330.644457,3879.0201 330.644457,3879.3992 C330.644457,3879.89202 330.730805,3880.37009 330.903504,3880.83343 C331.076202,3881.29677 331.297337,3881.73798 331.566916,3882.15709 C331.836494,3882.5762 332.136606,3882.96688 332.46726,3883.32912 C332.797915,3883.69137 333.123299,3884.0157 333.443423,3884.30213 C333.725638,3884.56328 334.006795,3884.80232 334.286904,3885.01924 C334.567013,3885.23617 334.82711,3885.42887 335.067203,3885.59736 C335.307296,3885.76584 335.52106,3885.91011 335.708501,3886.03016 C335.895942,3886.1502 336.042312,3886.24181 336.147616,3886.305 C336.248708,3886.24181 336.392972,3886.1502 336.580414,3886.03016 C336.767855,3885.91011 336.982672,3885.76584 337.224871,3885.59736 C337.46707,3885.42887 337.727167,3885.23617 338.005169,3885.01924 C338.283172,3884.80232 338.565382,3884.56328 338.851809,3884.30213 C339.167721,3884.0157 339.492053,3883.69137 339.824813,3883.32912 C340.157574,3882.96688 340.458739,3882.5762 340.728317,3882.15709 C340.997895,3881.73798 341.217977,3881.29677 341.38857,3880.83343 C341.559162,3880.37009 341.644457,3879.89202 341.644457,3879.3992 C341.644457,3879.0201 341.572852,3878.66313 341.429638,3878.32826 C341.286425,3877.99339 341.089509,3877.70171 340.838886,3877.45319 C340.588262,3877.20467 340.296575,3877.00881 339.963814,3876.86559 C339.631053,3876.72238 339.275131,3876.65078 338.896037,3876.65078 C338.622246,3876.65078 338.353725,3876.70132 338.090465,3876.80241 C337.827205,3876.9035 337.58501,3877.03619 337.363871,3877.20046 C337.142733,3877.36473 336.952136,3877.55007 336.792074,3877.75646 C336.632011,3877.96286 336.518285,3878.16714 336.45089,3878.36933 C336.429829,3878.43251 336.390868,3878.48516 336.334003,3878.52728 C336.277139,3878.5694 336.215011,3878.59047 336.147616,3878.59047 C336.07601,3878.59047 336.011775,3878.5694 335.954911,3878.52728 C335.898047,3878.48516 335.859085,3878.43251 335.838024,3878.36933 C335.77063,3878.16714 335.656903,3877.96286 335.496841,3877.75646 C335.336779,3877.55007 335.147234,3877.36473 334.928202,3877.20046 C334.70917,3877.03619 334.468027,3876.9035 334.204767,3876.80241 C333.941507,3876.70132 333.672986,3876.65078 333.399196,3876.65078 Z" id="couch-copy"></path>
        </g>
    </g>
</svg>