<?xml version="1.0" encoding="UTF-8"?>
<svg width="46px" height="17px" viewBox="0 0 46 17" version="1.1" xmlns="http://www.w3.org/2000/svg" xmlns:xlink="http://www.w3.org/1999/xlink">
    <!-- Generator: Sketch 41.2 (35397) - http://www.bohemiancoding.com/sketch -->
    <title>moustache</title>
    <desc>Created with Sketch.</desc>
    <defs>
        <linearGradient x1="4.92662922%" y1="10.8210821%" x2="100%" y2="100%" id="linearGradient-1">
            <stop stop-color="#94FFE7" offset="0%"></stop>
            <stop stop-color="#5AB1FF" offset="100%"></stop>
        </linearGradient>
    </defs>
    <g id="Page-1" stroke="none" stroke-width="1" fill="none" fill-rule="evenodd">
        <g id="Artboard-2-Copy-4" transform="translate(-697.000000, -897.000000)" fill="url(#linearGradient-1)">
            <path d="M742.375,904.710938 C742.234374,904.507811 742.046876,904.363282 741.8125,904.277344 C741.578124,904.191406 741.343751,904.179687 741.109375,904.242188 C740.640623,904.351563 740.191408,904.4375 739.761719,904.5 C739.332029,904.5625 738.921877,904.59375 738.53125,904.59375 C736.999992,904.59375 735.773442,904.210941 734.851562,903.445312 C733.929683,902.679684 733.054692,901.820317 732.226562,900.867188 C731.82031,900.41406 731.402346,899.957034 730.972656,899.496094 C730.542967,899.035154 730.070315,898.621096 729.554688,898.253906 C729.03906,897.886717 728.476566,897.585939 727.867188,897.351562 C727.257809,897.117186 726.570316,897 725.804688,897 C724.554681,897 723.402349,897.296872 722.347656,897.890625 C721.292963,898.484378 720.445316,899.26562 719.804688,900.234375 C719.148434,899.26562 718.29688,898.484378 717.25,897.890625 C716.20312,897.296872 715.054694,897 713.804688,897 C713.039059,897 712.347659,897.117186 711.730469,897.351562 C711.113278,897.585939 710.550784,897.886717 710.042969,898.253906 C709.535154,898.621096 709.062502,899.035154 708.625,899.496094 C708.187498,899.957034 707.773439,900.41406 707.382812,900.867188 C706.554683,901.820317 705.679692,902.679684 704.757812,903.445312 C703.835933,904.210941 702.60157,904.59375 701.054688,904.59375 C700.664061,904.59375 700.253908,904.5625 699.824219,904.5 C699.394529,904.4375 698.953127,904.351563 698.5,904.242188 C698.249999,904.179687 698.007814,904.191406 697.773438,904.277344 C697.539061,904.363282 697.351563,904.507811 697.210938,904.710938 C697.070312,904.914064 697,905.140624 697,905.390625 C697,905.640626 697.070312,905.867186 697.210938,906.070312 C698.351568,907.804696 699.574212,909.179682 700.878906,910.195312 C702.1836,911.210943 703.449213,911.980466 704.675781,912.503906 C705.90235,913.027346 707.031245,913.363281 708.0625,913.511719 C709.093755,913.660157 709.914059,913.734375 710.523438,913.734375 C711.195316,913.734375 711.839841,913.6875 712.457031,913.59375 C713.074222,913.5 713.648435,913.359376 714.179688,913.171875 C714.789066,912.968749 715.371091,912.710939 715.925781,912.398438 C716.480472,912.085936 716.996091,911.730471 717.472656,911.332031 C717.949221,910.933592 718.382811,910.503909 718.773438,910.042969 C719.164064,909.582029 719.507811,909.093753 719.804688,908.578125 C720.101564,909.093753 720.445311,909.582029 720.835938,910.042969 C721.226564,910.503909 721.660154,910.933592 722.136719,911.332031 C722.613284,911.730471 723.124997,912.085936 723.671875,912.398438 C724.218753,912.710939 724.796872,912.968749 725.40625,913.171875 C725.937503,913.359376 726.515622,913.5 727.140625,913.59375 C727.765628,913.6875 728.406247,913.734375 729.0625,913.734375 C729.687503,913.734375 730.51562,913.660157 731.546875,913.511719 C732.57813,913.363281 733.707025,913.027346 734.933594,912.503906 C736.160162,911.980466 737.421869,911.210943 738.71875,910.195312 C740.015631,909.179682 741.242182,907.804696 742.398438,906.070312 C742.539063,905.867186 742.605469,905.640626 742.597656,905.390625 C742.589844,905.140624 742.515626,904.914064 742.375,904.710938 Z M713.40625,910.898438 C712.999998,911.039063 712.550784,911.148437 712.058594,911.226562 C711.566404,911.304688 711.05469,911.34375 710.523438,911.34375 C710.085935,911.34375 709.511722,911.296875 708.800781,911.203125 C708.08984,911.109375 707.304692,910.914064 706.445312,910.617188 C705.585933,910.320311 704.687505,909.882815 703.75,909.304688 C702.812495,908.72656 701.89063,907.95313 700.984375,906.984375 L701.054688,906.984375 C702.101568,906.984375 703.031246,906.843751 703.84375,906.5625 C704.656254,906.281249 705.382809,905.917971 706.023438,905.472656 C706.664066,905.027342 707.242185,904.539065 707.757812,904.007812 C708.27344,903.47656 708.749998,902.953128 709.1875,902.4375 C710.015629,901.499995 710.757809,900.761721 711.414062,900.222656 C712.070316,899.683591 712.867183,899.414062 713.804688,899.414062 C714.460941,899.414062 715.082028,899.539061 715.667969,899.789062 C716.253909,900.039064 716.761717,900.378904 717.191406,900.808594 C717.621096,901.238283 717.964842,901.746091 718.222656,902.332031 C718.48047,902.917972 718.609375,903.539059 718.609375,904.195312 C718.609375,904.914066 718.476564,905.617184 718.210938,906.304688 C717.945311,906.992191 717.582034,907.63281 717.121094,908.226562 C716.660154,908.820315 716.113284,909.35156 715.480469,909.820312 C714.847653,910.289065 714.156254,910.648436 713.40625,910.898438 Z M729.0625,911.34375 C728.531247,911.34375 728.02344,911.304688 727.539062,911.226562 C727.054685,911.148437 726.601565,911.039063 726.179688,910.898438 C725.429684,910.648436 724.738284,910.289065 724.105469,909.820312 C723.472653,909.35156 722.925784,908.820315 722.464844,908.226562 C722.003904,907.63281 721.644533,906.992191 721.386719,906.304688 C721.128905,905.617184 721,904.914066 721,904.195312 C721,903.539059 721.124999,902.917972 721.375,902.332031 C721.625001,901.746091 721.968748,901.238283 722.40625,900.808594 C722.843752,900.378904 723.35156,900.039064 723.929688,899.789062 C724.507815,899.539061 725.132809,899.414062 725.804688,899.414062 C726.726567,899.414062 727.519528,899.683591 728.183594,900.222656 C728.84766,900.761721 729.585933,901.499995 730.398438,902.4375 C730.851565,902.953128 731.332029,903.47656 731.839844,904.007812 C732.347659,904.539065 732.925778,905.027342 733.574219,905.472656 C734.222659,905.917971 734.953121,906.281249 735.765625,906.5625 C736.578129,906.843751 737.499995,906.984375 738.53125,906.984375 L738.625,906.984375 C737.718745,907.95313 736.792973,908.72656 735.847656,909.304688 C734.902339,909.882815 734.003911,910.320311 733.152344,910.617188 C732.300777,910.914064 731.519535,911.109375 730.808594,911.203125 C730.097653,911.296875 729.515627,911.34375 729.0625,911.34375 Z" id="moustache"></path>
        </g>
    </g>
</svg>