<?xml version="1.0" encoding="UTF-8"?>
<svg width="157px" height="128px" viewBox="0 0 157 128" version="1.1" xmlns="http://www.w3.org/2000/svg" xmlns:xlink="http://www.w3.org/1999/xlink">
    <!-- Generator: Sketch 42 (36781) - http://www.bohemiancoding.com/sketch -->
    <title>nu_delhi</title>
    <desc>Created with Sketch.</desc>
    <defs>
        <polygon id="path-1" points="8 3 20 3 27 126 1 126"></polygon>
        <mask id="mask-2" maskContentUnits="userSpaceOnUse" maskUnits="objectBoundingBox" x="0" y="0" width="26" height="123" fill="white">
            <use xlink:href="#path-1"></use>
        </mask>
    </defs>
    <g id="Page-1" stroke="none" stroke-width="1" fill="none" fill-rule="evenodd">
        <g id="Artboard-2-Copy-5" transform="translate(-263.000000, -3732.000000)">
            <g id="nu_delhi" transform="translate(264.000000, 3733.000000)">
                <g id="kutta-bimar" stroke="#F6255A">
                    <use id="Rectangle-10" mask="url(#mask-2)" stroke-width="4" xlink:href="#path-1"></use>
                    <path d="M16,23.5 L18.5,124.123724" id="Line-Copy" stroke-width="2" stroke-linecap="square"></path>
                    <path d="M12,23.5 L9.5,124.123724" id="Line-Copy-2" stroke-width="2" stroke-linecap="square"></path>
                    <polygon id="Rectangle" stroke-width="2" stroke-linecap="round" stroke-linejoin="round" fill="#111116" points="0 100 28 100 26 104 2 104"></polygon>
                    <polygon id="Rectangle" stroke-width="2" stroke-linecap="round" stroke-linejoin="round" fill="#111116" points="1 73 27 73 25 77 3 77"></polygon>
                    <polygon id="Rectangle" stroke-width="2" stroke-linecap="round" stroke-linejoin="round" fill="#111116" points="3 46 25 46 23 50 5 50"></polygon>
                    <polygon id="Rectangle" stroke-width="2" stroke-linecap="round" stroke-linejoin="round" fill="#111116" points="4 19 24 19 22 23 6 23"></polygon>
                    <polygon id="Rectangle" stroke-width="2" stroke-linecap="round" stroke-linejoin="round" fill="#111116" points="7.5 0 20.5 0 20.5 4 7.5 4"></polygon>
                </g>
                <g id="lotus-temple" transform="translate(13.000000, 65.000000)" fill="#FFFFFF">
                    <path d="M97.3826363,58.9709508 L75.713744,58.9709508 L65.6488711,58.9709508 L65.6488711,54.3492278 L65.6488711,51.6438289 L76.412526,51.6438289 L77.0711779,51.6438289 L98.0813056,51.6438289 L98.4243276,51.6438289 L105.891679,51.6438289 L108.146178,51.6438289 L108.146178,58.9709508 L97.3826363,58.9709508 Z M33.7628144,58.9709508 L12.0941475,58.9709508 L2.02904916,58.9709508 L2.02904916,51.6438289 L4.28366095,51.6438289 L12.7927041,51.6438289 L16.7206051,51.6438289 L34.4614837,51.6438289 L38.0736421,51.6438289 L44.5264693,51.6438289 L44.5264693,54.3492278 L44.5264693,58.9709508 L33.7628144,58.9709508 Z M13.459134,40.4473102 C13.136177,42.0503717 12.8811931,43.6967197 12.8128818,45.3312315 L11.1991114,45.3312315 C10.3761065,43.3632792 9.00582198,41.6400529 7.58616391,40.0710343 C7.32655834,39.7841492 7.06131653,39.5005333 6.79167844,39.2206372 C9.03839949,39.4695339 11.2764407,39.88098 13.459134,40.4473102 Z M46.5107667,6.34722268 C47.1048272,5.78652876 47.7141055,5.24240541 48.3363473,4.71338721 C48.5435357,4.5371981 48.7538805,4.36484165 48.9645634,4.19271065 C48.6783548,4.54700517 48.3973315,4.90389238 48.1213808,5.2613432 C45.3883643,8.80034312 43.2248343,12.7559745 41.7736132,16.9877819 C40.3402027,18.8107699 39.033946,20.7279959 37.8958748,22.77959 C36.0442547,26.1174886 34.5983318,29.6826407 33.5003907,33.344849 C33.5251902,32.2881653 33.5530333,31.2315943 33.5812145,30.1750233 C33.6300244,28.4847126 33.684696,26.7946274 33.7457929,25.1046549 C35.8241029,19.9708224 38.7005055,15.1419108 42.2445781,10.884853 C43.5736053,9.28844216 45.0005905,7.77319334 46.5107667,6.34722268 Z M76.4290965,25.1024004 C76.5251382,27.7693601 76.6040457,30.4369961 76.6703279,33.105083 C76.0788601,31.2256199 75.3858271,29.3781706 74.5987815,27.5723169 C73.5752389,25.1509849 72.3755072,22.8058549 70.9834668,20.5808898 C70.1887558,19.3108178 69.3117557,18.0971082 68.3798585,16.9256705 C67.3149459,13.8367813 65.8707138,10.8956745 64.1018338,8.15690908 C63.6315453,7.23233901 63.1698239,6.34282641 62.6959282,5.45996457 C65.9061094,8.31720396 68.7323494,11.60122 71.1355327,15.1607359 C73.2385295,18.2755518 75.0185692,21.6187485 76.4290965,25.1024004 Z M97.3625713,45.3312315 C97.2940345,43.6968324 97.0390507,42.0504844 96.7162064,40.4475356 C98.9002524,39.8808673 101.139646,39.4691957 103.38772,39.2204118 C103.117406,39.500646 102.851037,39.7844874 102.589289,40.071147 C101.165686,41.630584 99.7974303,43.3650828 98.976229,45.3312315 L97.3625713,45.3312315 Z M50.9517917,45.3312315 L41.7574936,45.3312315 C43.8138222,42.9677274 46.2591646,40.9127515 48.7485824,39.0463644 C50.7892423,37.5163486 52.918053,36.1108939 55.0884593,34.7729614 C58.6682656,36.9805669 62.1354597,39.3819466 65.2712425,42.1935324 C66.3008722,43.116637 67.2854119,44.0899043 68.2126874,45.1159268 C68.2770534,45.1870563 68.3399539,45.259313 68.4035308,45.3312315 L59.3801237,45.3312315 L59.2235487,45.3312315 L50.9517917,45.3312315 Z M32.0397008,17.5005677 C31.9208887,19.9067946 31.8187599,22.3136978 31.7303835,24.7210519 C31.692057,24.8482057 31.6901407,24.9789666 31.7166311,25.1057822 C31.5027918,31.0264349 31.3704527,36.9499057 31.2745238,42.8737148 C29.4611175,41.2999617 27.4829073,39.8925907 25.5079661,38.5843048 C23.0341042,36.945284 20.4516883,35.4169591 17.7794305,34.1206221 C17.67392,34.069445 17.5696494,34.0376566 17.4679715,34.0215369 C18.1581864,32.3085685 18.9781477,30.6483554 19.9407061,29.0469847 C22.604284,24.6157668 26.3364945,20.9283081 30.7486619,18.2431997 C31.1729586,17.9850596 31.6041316,17.738981 32.0397008,17.5005677 Z M16.7758403,35.8829641 C19.3831685,37.1492035 21.8960331,38.6415691 24.3189433,40.2277219 C25.6484214,41.0979586 26.9738414,42.0179069 28.2454916,43.0068429 C28.2753637,43.048213 28.3078285,43.0891322 28.3457041,43.1290368 C28.6154549,43.4122019 28.9873345,43.6404699 29.2910155,43.8886903 C29.706407,44.2283305 30.1137949,44.5774397 30.5152085,44.9334251 C30.6623146,45.0639606 30.806828,45.197427 30.9508904,45.3312315 L17.8081754,45.3312315 L14.8436219,45.3312315 C14.9246711,43.5340575 15.24481,41.7296692 15.625933,39.9864905 C15.936603,38.5894902 16.319417,37.2213474 16.7758403,35.8829641 Z M43.4358554,18.1321657 C43.8616175,17.6023584 44.2960595,17.0801037 44.7388431,16.5646125 C44.9662094,16.3001597 45.1972955,16.038976 45.4293962,15.7785814 C45.556099,15.6364352 45.7218047,15.4866237 45.8391514,15.3160709 C46.2800187,15.9850935 46.6822213,16.6866936 47.0721369,17.394719 C47.8720332,18.8634124 48.6005746,20.368516 49.371726,21.8529909 C49.5177048,22.1376214 49.6287389,22.353377 49.7407875,22.5686816 C49.8173277,22.715675 49.8930789,22.8628938 49.9690555,23.0101126 C51.2338295,25.4799163 52.4271358,27.9763231 53.2735875,30.6048436 C53.2862127,30.6445228 53.2994015,30.6840892 53.311914,30.7237684 C53.3461824,30.8315335 53.3796617,30.939524 53.4126901,31.0478526 C53.4610491,31.2067948 53.5083936,31.3660752 53.5540472,31.5260319 C53.5746759,31.5979504 53.5947409,31.6700944 53.6148059,31.7422384 C53.6668849,31.9307145 53.7178366,32.1195288 53.7660828,32.3093576 C53.7773553,32.3536585 53.7881769,32.3981849 53.799224,32.4425985 C53.852092,32.6551977 53.9031564,32.8685861 53.950839,33.0832144 C48.5192999,36.4381345 43.1082767,40.2765318 39.1517435,45.3312315 L33.8132025,45.3312315 C33.6329553,45.1344137 33.4498899,44.939625 33.2635556,44.7477671 C33.27077,44.6919683 33.2725736,44.6624343 33.2739263,44.6327877 C33.2866642,44.2412939 33.3520447,43.8663707 33.3962329,43.5011419 C33.4120144,43.3708318 33.4285849,43.240409 33.4454937,43.1102117 C33.4479736,43.090823 33.4537226,43.0481003 33.4583443,43.0130428 C33.4649951,42.9647965 33.4715331,42.916663 33.4781839,42.8684167 C33.5292483,42.5017224 33.5848217,42.1357045 33.6431005,41.7701375 C33.9500506,39.8458098 34.357664,37.9378272 34.8476794,36.0519388 C36.2301382,30.7330118 38.342942,25.5974884 41.3431166,20.9820779 C41.9567913,20.0381192 42.6224321,19.1291051 43.3231304,18.2465815 C43.3624714,18.2128767 43.4006852,18.1761284 43.4358554,18.1321657 Z M76.6525174,42.631807 C76.6664953,42.728525 76.6796841,42.8254685 76.6930984,42.9222992 C76.699411,42.9706582 76.7218432,43.1379421 76.7271413,43.1784103 C76.7532935,43.3827807 76.7779803,43.5873765 76.8016525,43.792085 C76.8316373,44.0511269 76.874811,44.3161433 76.8856326,44.5774397 C76.8839417,44.6309841 76.8866471,44.6827248 76.8932979,44.732662 C76.7156434,44.9499957 76.5375379,45.1395991 76.3620252,45.3312315 L74.7604291,45.3312315 L72.7481759,45.3312315 L71.0237096,45.3312315 C67.0671764,40.2764191 61.6561532,36.4381345 56.2234868,33.0886252 C56.2461445,32.9864964 56.2716204,32.8853821 56.2955181,32.7835915 C56.3311392,32.631751 56.3661966,32.479685 56.4045231,32.3287463 C56.427519,32.2376645 56.4527694,32.1473718 56.4767798,32.0566282 C56.5206298,31.891148 56.5643671,31.7257805 56.6111479,31.5615403 C56.6315512,31.489509 56.6535325,31.4180414 56.6744994,31.3462356 C56.7289455,31.1602394 56.7842935,30.9744687 56.8423468,30.7897125 C56.857452,30.7415789 56.8733462,30.6936708 56.8886768,30.6455373 C56.9568754,30.4328253 57.0263139,30.2205642 57.0989088,30.0095431 C57.9142484,27.6506607 58.9628159,25.4437316 60.0762003,23.2622783 C60.1703256,23.0789875 60.2645637,22.8959222 60.3595908,22.7130823 C60.4715267,22.4974395 60.5826735,22.2813457 60.6933694,22.0650266 C61.5340721,20.4491143 62.2923729,18.8830266 63.1252975,17.3550398 C63.1644131,17.2837977 63.2031905,17.2122173 63.2427569,17.1410879 C63.2689091,17.0936307 63.2956249,17.0466244 63.3220026,16.9992799 C63.6336871,16.4426441 63.9557423,15.8917572 64.2868155,15.3463939 C64.3431779,15.3378268 64.3730501,15.3722079 64.4032603,15.4060254 C64.4506048,15.4649805 64.5020074,15.5214557 64.5538609,15.5762401 C64.9904446,16.0682845 65.4226321,16.564387 65.853805,17.060715 C68.5017142,20.2832959 70.7023307,23.8637786 72.4359278,27.6630605 C73.9781179,31.1667775 75.1144981,34.8511926 75.9240887,38.5880248 C76.2140173,39.9267463 76.4564887,41.276064 76.6525174,42.631807 Z M95.3318312,45.3312315 L94.4878595,45.3312315 L79.2115993,45.3312315 C81.2401975,43.411751 83.5426047,41.7514251 85.8563971,40.2277219 C88.2742346,38.6355947 90.7943137,37.1480762 93.4007401,35.8824004 C93.6612474,36.6471265 93.8984207,37.4214342 94.1114709,38.2045345 C94.272104,38.7946496 94.4166173,39.3892737 94.5494073,39.9861524 C94.9305304,41.7294438 95.2506693,43.5339448 95.3318312,45.3312315 Z M92.7096234,34.021086 C92.6072691,34.037093 92.5022095,34.0691068 92.3960226,34.1206221 C89.7222994,35.4176355 87.1470978,36.9513712 84.6673743,38.5843048 C82.6946876,39.8834599 80.7194083,41.2911692 78.9093837,42.8636823 C78.8753408,38.1118746 78.7136932,33.3536416 78.5807904,28.6056665 C78.5778596,28.4969997 78.5735761,28.3882201 78.5704198,28.2794405 C78.5470857,27.4858568 78.5222862,26.6923859 78.4946686,25.8989149 C78.4851997,25.6227388 78.4759562,25.3465627 78.4660364,25.0704993 C78.483847,24.9632978 78.4814798,24.8538419 78.4534113,24.7465277 C78.4508186,24.6753983 78.4476623,24.6041561 78.4450696,24.532914 C78.4327826,24.2047716 78.4197065,23.8766293 78.4068558,23.5484869 C78.3747292,22.7331474 78.3410245,21.9180332 78.3050652,21.1029191 C78.2937927,20.8489498 78.2822948,20.5949804 78.2706841,20.3408984 C78.2374302,19.6097643 78.2033873,18.878743 78.167428,18.1478344 C78.1569446,17.9342206 78.1469121,17.7206069 78.136316,17.5069931 C80.4531519,18.7893521 82.6131875,20.3245533 84.5560021,22.1021131 C86.1393367,23.5506287 87.5788344,25.159552 88.8412412,26.9239229 C90.4268303,29.1405464 91.7053568,31.5214102 92.7096234,34.021086 Z M56.787337,4.84178093 C56.8057112,4.70899093 56.824649,4.57620094 56.8446013,4.44374912 C56.8903676,4.13837722 56.9423338,3.83379439 57.0001617,3.53045154 C57.0511134,3.26250433 57.1092795,2.99534619 57.1765763,2.730668 C58.3351634,3.86344106 59.3891417,5.12066246 60.3787541,6.38532371 C60.9754072,7.14790802 61.5428646,7.93563 62.0820281,8.74330429 C62.1692772,8.89796292 62.263628,9.04495626 62.3682368,9.17752081 C62.361586,9.17436451 62.3489608,9.16173932 62.3363356,9.1490014 C62.3889781,9.27288612 62.4514278,9.35630259 62.5270662,9.42529026 C63.191918,10.4678834 63.8080726,11.5428285 64.3704574,12.6448276 C64.2313548,12.6193518 64.0893213,12.6256644 63.9528114,12.660271 C63.6026877,12.7392912 63.2903269,12.9901042 63.1903398,13.3642383 C63.2340771,13.2272775 63.2593275,13.1594171 63.2682328,13.1367593 C63.2618075,13.1519772 63.2467023,13.1850056 63.2242701,13.2246848 C63.2704873,13.0264016 63.18166,13.2933343 63.0781785,13.4537419 C63.0111072,13.5573361 62.9434722,13.6607049 62.8775281,13.7648628 C62.4754382,14.399617 62.0939769,15.0472219 61.7220973,15.7000121 C61.5142325,16.0650155 61.3131312,16.4336261 61.1150734,16.8038148 C61.0986156,16.8340251 61.0926412,16.8452976 61.0867795,16.8564574 C61.0396605,16.9446083 60.992316,17.0325337 60.9456478,17.1209101 C60.2286044,18.4651552 59.5565382,19.8345379 58.8630543,21.1916336 C58.6498914,21.601727 58.4377431,22.0127222 58.227511,22.4249573 C57.5073113,23.8290593 56.8141656,25.2511974 56.1962074,26.7023057 C56.2093962,23.8851964 56.1930511,21.0679743 56.1469466,18.2523305 C56.1346596,17.4982005 56.1196671,16.7437324 56.1024202,15.9892643 C56.1689279,13.110269 56.2823292,10.2304846 56.5223207,7.36163454 C56.582854,6.64064573 56.6542089,5.92044601 56.7411198,5.2021626 C56.7475451,5.14997095 56.7789954,4.90862682 56.787337,4.84178093 Z M52.9988768,2.7275117 C53.0714717,3.01496033 53.1324559,3.30567799 53.1876911,3.59617019 C53.2413482,3.8776444 53.28734,4.16047131 53.3306263,4.44363639 C53.3511423,4.57732819 53.3698546,4.71124543 53.388567,4.84516268 C53.3940905,4.88653273 53.4010794,4.93782259 53.4033339,4.95518223 C53.4175373,5.06531451 53.4308388,5.17533406 53.4441404,5.28546634 C53.5355603,6.04015991 53.6064643,6.79744614 53.6689139,7.55495783 C53.8996619,10.3527912 54.0093433,13.1612207 54.0737092,15.9689738 C54.0581532,16.652087 54.0441753,17.3350875 54.0322265,18.0176371 C53.9816129,20.9113994 53.964366,23.8069653 53.9785694,26.7023057 C53.3863125,25.3118434 52.725857,23.9477587 52.0382348,22.6008083 C51.8763617,22.2823603 51.713136,21.9645886 51.5490085,21.6476061 C50.7506903,20.0947071 49.9792008,18.526703 49.1585631,16.9858656 C49.0964516,16.8690826 49.032762,16.7530886 48.9696361,16.6366437 C48.9316478,16.5661906 48.8936595,16.4958502 48.855333,16.4255099 C48.8277154,16.3752345 48.799985,16.3250719 48.7722547,16.2747966 C48.693009,16.1305087 48.6142143,15.9858825 48.5335032,15.842271 C48.4244982,15.6481586 48.3112096,15.4565262 48.1994992,15.2639919 C48.172107,15.2167602 48.1451658,15.1691903 48.1176609,15.1220712 C48.0188011,14.9529838 47.9194904,14.7843473 47.8186016,14.6163871 C47.8028201,14.5901222 47.7874895,14.5635191 47.7718207,14.5371414 C47.6599976,14.3506944 47.5461454,14.1656 47.4311659,13.9810692 C47.4020829,13.9342884 47.3742398,13.886493 47.3449313,13.8397122 C47.2896961,13.7515612 47.2325445,13.6646503 47.1764075,13.577063 C47.168404,13.5645505 47.160626,13.5519253 47.1526225,13.5394129 C47.1428155,13.5239696 47.1326702,13.5088644 47.1227504,13.4934211 C47.0839731,13.4335641 47.0463229,13.3730308 47.0072074,13.3135121 C46.941376,13.2130741 46.8983151,13.0980947 46.9119548,13.1409302 C46.9376561,13.2178086 46.9578338,13.2783419 46.9880441,13.3717909 C46.889748,12.9932605 46.5755835,12.740193 46.2236562,12.6604964 C46.0907535,12.6266789 45.9528909,12.6198027 45.8173955,12.6427986 C46.9465613,10.4452256 48.2851702,8.35496682 49.7910628,6.39186176 C50.7678245,5.11852069 51.834428,3.85983386 52.9988768,2.7275117 Z M46.5555185,50.6293043 C46.5555185,50.3135617 46.4368191,50.0748102 46.2574737,49.9113591 C46.0941352,49.7329155 45.8558347,49.6147797 45.5409939,49.6147797 L33.7628144,49.6147797 L33.1041625,49.6147797 L12.0941475,49.6147797 L11.7511255,49.6147797 L5.29818553,49.6147797 L5.29818553,47.3602806 L10.5026966,47.3602806 L13.8089195,47.3602806 L15.6875936,47.3602806 L19.8207667,47.3602806 L33.1035989,47.3602806 C33.2518322,47.4016507 33.4022073,47.3988326 33.5450298,47.3602806 L37.4271645,47.3602806 L39.6051233,47.3602806 C39.6129013,47.3603934 49.9372671,47.3602806 49.9372671,47.3602806 L49.9372671,59 L46.5555185,59 L46.5555185,50.6293043 Z M64.6343465,49.6147797 C64.0813179,49.6147797 63.6198219,50.0762757 63.6198219,50.6293043 L63.6198219,59 L60.2380733,59 L60.2380733,47.3601074 L70.6273686,47.3602806 L74.7606545,47.3602806 L76.630536,47.3602806 C76.7732458,47.3988326 76.9237336,47.4016507 77.0718542,47.3602806 L92.367165,47.3602806 L96.3645045,47.3602806 C96.3651809,47.3602806 99.6726437,47.3603934 99.6726437,47.3603934 C99.6735455,47.3603934 104.877155,47.3602806 104.877155,47.3602806 L104.877155,49.6147797 L97.3826363,49.6147797 L93.454848,49.6147797 L75.713744,49.6147797 L72.1016983,49.6147797 L64.6343465,49.6147797 Z M109.160703,49.6147797 C109.475544,49.6147797 109.713957,49.7329155 109.877183,49.9113591 C110.056528,50.0748102 110.175228,50.3135617 110.175228,50.6293043 L110.175228,59.9854754 C110.175228,60.538504 109.713844,61 109.160703,61 L98.0813056,61 L76.412526,61 L64.6343465,61 L62.3527934,61 L45.5409939,61 L34.4614837,61 L12.7927041,61 L1.01452458,61 C0.461495959,61 8.52651283e-14,60.538504 8.52651283e-14,59.9854754 L8.52651283e-14,50.6293043 C8.52651283e-14,50.0762757 0.461495959,49.6147797 1.01452458,49.6147797 L3.26913637,49.6147797 L3.26913637,46.3457561 C3.26913637,45.7927274 3.73063233,45.3312315 4.44012319,45.3312315 L8.97707711,45.3312315 C8.2117874,43.8397676 7.07675985,42.4998061 5.96033191,41.2974817 C5.11557111,40.3880168 4.2319202,39.5014351 3.28446697,38.6977061 C2.61172444,38.1270924 3.15122607,36.9229645 4.00184857,36.9658 C7.3186676,37.1329711 10.6725731,37.6343717 13.9009031,38.4654927 C14.0190388,37.9886662 14.1447271,37.513756 14.2815752,37.0418893 C15.4838996,32.8975564 17.3454395,28.9025841 19.9222192,25.4312191 C23.2563979,20.9398061 27.604312,17.3696941 32.629365,14.9134173 C33.0608761,14.7025089 33.6143556,14.7985506 33.9227711,15.1291729 C34.076528,15.2939768 34.1704278,15.5160449 34.1558863,15.7916574 C34.1153053,16.5641616 34.0775425,17.3368911 34.0395542,18.1096207 C34.0123875,18.6723436 33.9861225,19.2350666 33.9607594,19.7979023 C35.053177,17.6568045 36.2791735,15.5850326 37.6501344,13.6051315 C40.1294071,10.0247616 43.0016389,6.69543006 46.2765242,3.8189147 C47.5907844,2.6647239 48.9659161,1.50805316 50.4585073,0.585963038 C51.0490733,0.221072363 51.611909,0.540760331 51.8469405,1.02423766 C52.1118441,0.77376281 52.3817077,0.529487836 52.6581093,0.293779958 C53.0543375,-0.0439440019 53.7108476,-0.148440034 54.1289445,0.336502716 C54.6748714,1.0388919 54.9138483,1.90507044 55.0878956,2.76696544 C55.2665647,1.90213959 55.4926909,0.976216826 56.0822425,0.293779958 C56.4644928,-0.148440034 57.1208902,-0.0439440019 57.5172311,0.293779958 C57.7867565,0.523626138 58.0501947,0.76192669 58.3091239,1.00586349 C58.5708712,0.539858532 59.1868004,0.258384323 59.7171713,0.585963038 C60.508275,1.07473844 61.250907,1.6523411 61.9814774,2.22487113 C67.9580417,6.90667662 72.7564048,13.0489466 76.21537,19.8119929 C76.1879779,19.2022636 76.1595712,18.5925344 76.1299245,17.9828051 C76.0938525,17.251671 76.0581187,16.520537 76.0195668,15.7895157 C75.9762804,14.9674126 76.8997232,14.597562 77.5462008,14.9135301 C78.853923,15.5527933 80.1300822,16.259466 81.3501044,17.0544024 C88.9484426,22.0049442 94.0936604,29.7392287 96.2731973,38.4660564 C99.5020909,37.6347098 102.856335,37.1331965 106.173492,36.9660254 C106.665536,36.9412259 106.971359,37.2126676 107.092651,37.5647076 C107.257004,37.9400817 107.215409,38.4226573 106.890986,38.6979316 C105.944322,39.5009842 105.05526,40.3851987 104.215121,41.2975945 C103.101399,42.5069078 101.965582,43.8402185 101.19894,45.3312315 L105.891679,45.3312315 C106.20652,45.3312315 106.444821,45.4493672 106.608159,45.6278108 C106.787505,45.7911493 106.906204,46.0299007 106.906204,46.3457561 L106.906204,49.6147797 L109.160703,49.6147797 Z M52,47.3601074 L52,59 L58.1500001,59 L58.1500001,47.3601074 L52,47.3601074 Z" id="Combined-Shape"></path>
                </g>
                <g id="tree" transform="translate(131.000000, 92.000000)">
                    <circle id="Oval" stroke="#46FAAE" stroke-width="2" cx="12" cy="12" r="12"></circle>
                    <path d="M12.2250977,7 C11.6603125,7 11.2024023,7.45791016 11.2024023,8.02269531 L11.2024023,13.7724121 L11.2024023,15.6569629 L8.74594727,13.2005957 C8.34648437,12.8012207 7.69908203,12.8012207 7.29953125,13.2005957 C6.90015625,13.5999707 6.90015625,14.2475488 7.29953125,14.6469238 L11.2023145,18.549707 L11.2023145,34.5961719 C13.247793,34.5969629 14.1864648,34.5110059 13.247793,34.5969629 L13.247793,18.1266895 L13.247793,14.1965723 L16.0999316,11.3444336 C16.4993066,10.9450586 16.4993066,10.2974805 16.0999316,9.89810547 C15.7004687,9.49873047 15.0530664,9.49873047 14.6535156,9.89810547 L13.247793,11.3038281 L13.247793,8.02260742 C13.247793,7.45782227 12.7897949,7 12.2250977,7 Z" id="Shape" fill="#46FAAE"></path>
                </g>
            </g>
        </g>
    </g>
</svg>