<?xml version="1.0" encoding="UTF-8" standalone="no"?>
<svg width="9px" height="9px" viewBox="0 0 9 9" version="1.1" xmlns="http://www.w3.org/2000/svg" xmlns:xlink="http://www.w3.org/1999/xlink">
    <!-- Generator: Sketch 39.1 (31720) - http://www.bohemiancoding.com/sketch -->
    <title>Path</title>
    <desc>Created with Sketch.</desc>
    <defs></defs>
    <g id="Page-1" stroke="none" stroke-width="1" fill="none" fill-rule="evenodd">
        <g id="Onboarding-template" transform="translate(-674.000000, -437.000000)" fill="#E24A65">
            <g id="Group-16" transform="translate(556.000000, 271.000000)">
                <g id="Group-11" transform="translate(0.000000, 166.000000)">
                    <path d="M123.585573,5.44397469 L123.58546,7.54739083 C123.58546,7.84297443 123.343568,8.08486672 123.048097,8.08475416 L122.4486,8.08475416 C122.153129,8.08486672 121.911237,7.84297443 121.911124,7.54727827 L121.911124,5.44397469 C121.911124,5.14839109 121.669232,4.9064988 121.373761,4.90661136 L119.270345,4.9064988 C118.974761,4.9064988 118.732869,4.66460651 118.732981,4.36913546 L118.732981,3.76963879 C118.732981,3.47428031 118.974874,3.23238802 119.270345,3.23227546 L121.373873,3.23227546 C121.669344,3.2321629 121.911237,2.99027061 121.911237,2.69491212 L121.911237,0.59138343 C121.911237,0.295799829 122.153129,0.053907536 122.448713,0.053907536 L123.047984,0.053907536 C123.343455,0.0537949756 123.58546,0.295799829 123.58546,0.59138343 L123.58546,2.69491212 C123.58546,2.99027061 123.827352,3.2321629 124.122823,3.23227546 L126.226465,3.23238802 C126.521936,3.23227546 126.763828,3.47416775 126.763715,3.76963879 L126.763828,4.36924803 C126.763828,4.66460651 126.521936,4.9064988 126.226465,4.90661136 L124.122936,4.90661136 C123.827465,4.9064988 123.585685,5.14827853 123.585573,5.44397469 L123.585573,5.44397469" id="Path" transform="translate(122.748405, 4.069331) rotate(-270.000000) translate(-122.748405, -4.069331) "></path>
                </g>
            </g>
        </g>
    </g>
</svg>