<?xml version="1.0" encoding="UTF-8" standalone="no"?>
<svg width="64px" height="65px" viewBox="0 0 64 65" version="1.1" xmlns="http://www.w3.org/2000/svg" xmlns:xlink="http://www.w3.org/1999/xlink">
    <!-- Generator: Sketch 39.1 (31720) - http://www.bohemiancoding.com/sketch -->
    <title> copy</title>
    <desc>Created with Sketch.</desc>
    <defs></defs>
    <g id="Page-1" stroke="none" stroke-width="1" fill="none" fill-rule="evenodd">
        <g id="Artboard-2-Copy-4" transform="translate(-351.000000, -1700.000000)" fill="#000000">
            <path d="M352.59375,1764.1875 L352.578125,1764.1875 L352.546875,1764.1875 L352.53125,1764.1875 L352.5,1764.1875 C352.291666,1764.1875 352.093751,1764.14063 351.90625,1764.04688 C351.718749,1763.95312 351.557292,1763.83333 351.421875,1763.6875 C351.286458,1763.54167 351.182292,1763.36979 351.109375,1763.17188 C351.036458,1762.97396 351,1762.77083 351,1762.5625 C351.104167,1759.62499 351.374998,1756.77085 351.8125,1754 C352.250002,1751.22915 352.854163,1748.54168 353.625,1745.9375 C354.395837,1743.33332 355.338536,1740.8073 356.453125,1738.35938 C357.567714,1735.91145 358.854159,1733.56251 360.3125,1731.3125 C361.500006,1729.45832 362.796868,1727.66668 364.203125,1725.9375 C365.609382,1724.20832 367.124992,1722.54688 368.75,1720.95312 C370.375008,1719.35937 372.104157,1717.83855 373.9375,1716.39062 C375.770843,1714.9427 377.708323,1713.56251 379.75,1712.25 C381.68751,1710.99999 383.609365,1709.88021 385.515625,1708.89062 C387.421885,1707.90104 389.2552,1707.02084 391.015625,1706.25 C392.77605,1705.47916 394.4427,1704.80729 396.015625,1704.23438 C397.58855,1703.66146 399.01041,1703.17709 400.28125,1702.78125 C401.739591,1702.34375 403.13541,1701.96354 404.46875,1701.64062 C405.80209,1701.31771 407.031244,1701.04688 408.15625,1700.82812 C409.281256,1700.60937 410.291662,1700.44792 411.1875,1700.34375 C412.083338,1700.23958 412.822914,1700.1875 413.40625,1700.1875 C413.614584,1700.1875 413.817707,1700.22917 414.015625,1700.3125 C414.213543,1700.39583 414.385416,1700.51042 414.53125,1700.65625 C414.677084,1700.80208 414.791666,1700.97396 414.875,1701.17188 C414.958334,1701.36979 415,1701.58333 415,1701.8125 C415,1702.77084 414.802085,1703.71354 414.40625,1704.64062 C414.010415,1705.56771 413.531253,1706.43229 412.96875,1707.23438 C412.406247,1708.03646 411.82292,1708.75521 411.21875,1709.39062 C410.61458,1710.02604 410.114585,1710.54166 409.71875,1710.9375 C409.093747,1711.58334 408.338546,1712.17187 407.453125,1712.70312 C406.567704,1713.23438 405.604172,1713.72916 404.5625,1714.1875 C403.520828,1714.64584 402.432297,1715.08333 401.296875,1715.5 C400.161453,1715.91667 399.020839,1716.32291 397.875,1716.71875 C397.520832,1716.84375 397.166668,1716.96875 396.8125,1717.09375 C396.458332,1717.21875 396.104168,1717.34375 395.75,1717.46875 C395.395832,1717.59375 395.041668,1717.71875 394.6875,1717.84375 C394.333332,1717.96875 393.989585,1718.10417 393.65625,1718.25 C394.781256,1718.14583 395.89062,1718.0625 396.984375,1718 C398.07813,1717.9375 399.104162,1717.89063 400.0625,1717.85938 C401.020838,1717.82812 401.874996,1717.8125 402.625,1717.8125 L404.4375,1717.8125 L404.609375,1717.8125 L404.75,1717.8125 L404.84375,1717.8125 L404.875,1717.8125 C405.020834,1717.8125 405.161458,1717.83333 405.296875,1717.875 C405.432292,1717.91667 405.562499,1717.97396 405.6875,1718.04688 C405.812501,1718.11979 405.927083,1718.20833 406.03125,1718.3125 C406.135417,1718.41667 406.21875,1718.53125 406.28125,1718.65625 C406.34375,1718.80208 406.390625,1718.94271 406.421875,1719.07812 C406.453125,1719.21354 406.463542,1719.35417 406.453125,1719.5 C406.442708,1719.64583 406.411459,1719.78646 406.359375,1719.92188 C406.307291,1720.05729 406.239584,1720.1875 406.15625,1720.3125 C405.302079,1721.54167 404.401046,1722.70312 403.453125,1723.79688 C402.505204,1724.89063 401.500005,1725.92187 400.4375,1726.89062 C399.374995,1727.85938 398.260423,1728.76562 397.09375,1729.60938 C395.927077,1730.45313 394.697923,1731.25 393.40625,1732 C392.80208,1732.33334 392.171878,1732.625 391.515625,1732.875 C390.859372,1733.125 390.16667,1733.33333 389.4375,1733.5 C388.70833,1733.66667 387.932296,1733.78646 387.109375,1733.85938 C386.286454,1733.93229 385.416671,1733.96875 384.5,1733.96875 C384.020831,1733.96875 383.531252,1733.95833 383.03125,1733.9375 C382.531248,1733.91667 382.031252,1733.89063 381.53125,1733.85938 C381.031248,1733.82812 380.531252,1733.79167 380.03125,1733.75 C379.531248,1733.70833 379.041669,1733.66667 378.5625,1733.625 C378.083331,1733.58333 377.604169,1733.54688 377.125,1733.51562 C376.645831,1733.48437 376.166669,1733.45313 375.6875,1733.42188 C375.208331,1733.39062 374.734377,1733.36458 374.265625,1733.34375 C373.796873,1733.32292 373.322919,1733.3125 372.84375,1733.3125 C371.760411,1733.3125 370.760421,1733.375 369.84375,1733.5 C368.927079,1733.625 368.078129,1733.81771 367.296875,1734.07812 C366.515621,1734.33854 365.796878,1734.67187 365.140625,1735.07812 C364.484372,1735.48438 363.885419,1735.96875 363.34375,1736.53125 C361.468741,1738.40626 359.937506,1740.81769 358.75,1743.76562 C357.562494,1746.71356 356.630212,1749.58332 355.953125,1752.375 C355.276038,1755.16668 354.812501,1757.57811 354.5625,1759.60938 C354.312499,1761.64064 354.1875,1762.67708 354.1875,1762.71875 C354.166667,1762.92708 354.114584,1763.125 354.03125,1763.3125 C353.947916,1763.5 353.833334,1763.65625 353.6875,1763.78125 C353.541666,1763.90625 353.375001,1764.00521 353.1875,1764.07812 C352.999999,1764.15104 352.802084,1764.1875 352.59375,1764.1875 L352.59375,1764.1875 Z M411.40625,1703.5625 C410.01041,1703.72917 408.223969,1704.05729 406.046875,1704.54688 C403.869781,1705.03646 401.458347,1705.73437 398.8125,1706.64062 C396.166653,1707.54688 393.35939,1708.67708 390.390625,1710.03125 C387.42186,1711.38542 384.447932,1713.02082 381.46875,1714.9375 C379.947909,1715.91667 378.406258,1716.99999 376.84375,1718.1875 C375.281242,1719.37501 373.729174,1720.68749 372.1875,1722.125 C370.645826,1723.56251 369.140632,1725.1302 367.671875,1726.82812 C366.203118,1728.52605 364.822923,1730.35416 363.53125,1732.3125 C364.302087,1731.83333 365.093746,1731.44792 365.90625,1731.15625 C366.718754,1730.86458 367.520829,1730.64063 368.3125,1730.48438 C369.104171,1730.32812 369.885413,1730.22396 370.65625,1730.17188 C371.427087,1730.11979 372.156247,1730.09375 372.84375,1730.09375 C373.343752,1730.09375 373.843748,1730.10417 374.34375,1730.125 C374.843752,1730.14583 375.343748,1730.17187 375.84375,1730.20312 C376.343752,1730.23438 376.843748,1730.27083 377.34375,1730.3125 C377.843752,1730.35417 378.333331,1730.39583 378.8125,1730.4375 C379.291669,1730.47917 379.770831,1730.52083 380.25,1730.5625 C380.729169,1730.60417 381.208331,1730.64062 381.6875,1730.67188 C382.166669,1730.70313 382.640623,1730.72917 383.109375,1730.75 C383.578127,1730.77083 384.041664,1730.78125 384.5,1730.78125 C385.270837,1730.78125 385.999997,1730.75 386.6875,1730.6875 C387.375003,1730.625 388.02083,1730.52604 388.625,1730.39062 C389.22917,1730.25521 389.791664,1730.09375 390.3125,1729.90625 C390.833336,1729.71875 391.333331,1729.48958 391.8125,1729.21875 C392.770838,1728.65625 393.692704,1728.07292 394.578125,1727.46875 C395.463546,1726.86458 396.312496,1726.22396 397.125,1725.54688 C397.937504,1724.86979 398.713538,1724.15625 399.453125,1723.40625 C400.192712,1722.65625 400.906247,1721.86459 401.59375,1721.03125 C400.593745,1721.05208 399.447923,1721.09375 398.15625,1721.15625 C396.864577,1721.21875 395.536465,1721.30729 394.171875,1721.42188 C392.807285,1721.53646 391.463548,1721.68229 390.140625,1721.85938 C388.817702,1722.03646 387.645838,1722.26042 386.625,1722.53125 C386.458332,1722.59375 386.291668,1722.61979 386.125,1722.60938 C385.958332,1722.59896 385.802084,1722.56771 385.65625,1722.51562 C385.510416,1722.46354 385.369792,1722.38542 385.234375,1722.28125 C385.098958,1722.17708 384.989584,1722.0625 384.90625,1721.9375 C384.802083,1721.79167 384.723959,1721.64063 384.671875,1721.48438 C384.619791,1721.32812 384.59375,1721.17188 384.59375,1721.01562 C384.59375,1720.85937 384.614583,1720.70313 384.65625,1720.54688 C384.697917,1720.39062 384.770833,1720.25 384.875,1720.125 C385.354169,1719.375 386.010413,1718.70313 386.84375,1718.10938 C387.677087,1717.51562 388.619786,1716.96875 389.671875,1716.46875 C390.723964,1715.96875 391.859369,1715.49479 393.078125,1715.04688 C394.296881,1714.59896 395.552077,1714.14584 396.84375,1713.6875 C397.885422,1713.33333 398.932286,1712.96354 399.984375,1712.57812 C401.036464,1712.19271 402.031245,1711.79688 402.96875,1711.39062 C403.906255,1710.98437 404.760413,1710.55729 405.53125,1710.10938 C406.302087,1709.66146 406.947914,1709.17709 407.46875,1708.65625 C407.697918,1708.42708 407.989582,1708.13021 408.34375,1707.76562 C408.697918,1707.40104 409.062498,1706.99479 409.4375,1706.54688 C409.812502,1706.09896 410.177082,1705.61979 410.53125,1705.10938 C410.885418,1704.59896 411.177082,1704.08334 411.40625,1703.5625 L411.40625,1703.5625 Z" id="-copy"></path>
        </g>
    </g>
</svg>