<?xml version="1.0" encoding="UTF-8"?>
<svg width="24px" height="20px" viewBox="0 0 24 20" version="1.1" xmlns="http://www.w3.org/2000/svg" xmlns:xlink="http://www.w3.org/1999/xlink">
    <!-- Generator: Sketch 41.2 (35397) - http://www.bohemiancoding.com/sketch -->
    <title>refresh</title>
    <desc>Created with Sketch.</desc>
    <defs></defs>
    <g id="Page-1" stroke="none" stroke-width="1" fill="none" fill-rule="evenodd">
        <g id="Artboard-2-Copy-4" transform="translate(-628.000000, -2752.000000)" fill="#FFFFFF">
            <g id="Group-10" transform="translate(623.000000, 2749.265625)">
                <path d="M28.8242188,11.3125 C28.7070307,11.1953119 28.5664071,11.1367188 28.4023438,11.1367188 C28.2382804,11.1367188 28.0976568,11.1953119 27.9804688,11.3125 L26.5976562,12.6835938 C26.5820312,12.0664032 26.5097663,11.4609405 26.3808594,10.8671875 C26.2519525,10.2734345 26.0683606,9.69922152 25.8300781,9.14453125 C25.5917957,8.58984098 25.300783,8.06054939 24.9570312,7.55664062 C24.6132795,7.05273186 24.2226584,6.58203344 23.7851562,6.14453125 C23.332029,5.69140398 22.8437526,5.29101736 22.3203125,4.94335938 C21.7968724,4.59570139 21.2480497,4.30273557 20.6738281,4.06445312 C20.0996065,3.82617068 19.5039093,3.64453187 18.8867188,3.51953125 C18.2695282,3.39453063 17.6406282,3.33203125 17,3.33203125 C16.1093705,3.33203125 15.2441448,3.45117068 14.4042969,3.68945312 C13.5644489,3.92773557 12.7773474,4.26757592 12.0429688,4.70898438 C11.3085901,5.15039283 10.640628,5.68749684 10.0390625,6.3203125 C9.43749699,6.95312816 8.92578336,7.66405855 8.50390625,8.453125 C8.42578086,8.60156324 8.41210912,8.75390547 8.46289062,8.91015625 C8.51367213,9.06640703 8.61328051,9.18359336 8.76171875,9.26171875 C8.90234445,9.33984414 9.05273357,9.35546898 9.21289062,9.30859375 C9.37304768,9.26171852 9.49218711,9.16406324 9.5703125,9.015625 C9.93750184,8.32030902 10.384763,7.69726838 10.9121094,7.14648438 C11.4394558,6.59570037 12.0234343,6.12695506 12.6640625,5.74023438 C13.3046907,5.35351369 13.9921838,5.05664166 14.7265625,4.84960938 C15.4609412,4.64257709 16.2187461,4.5390625 17,4.5390625 C18.1406307,4.5390625 19.2128856,4.74999789 20.2167969,5.171875 C21.2207081,5.59375211 22.0996056,6.17382443 22.8535156,6.91210938 C23.6074256,7.65039432 24.2109352,8.51366693 24.6640625,9.50195312 C25.1171898,10.4902393 25.3593748,11.5507756 25.390625,12.6835938 L24.0195312,11.3125 C23.9023432,11.1953119 23.7617196,11.1367188 23.5976562,11.1367188 C23.4335929,11.1367188 23.2929693,11.1953119 23.1757812,11.3125 C23.0585932,11.4296881 23,11.5703117 23,11.734375 C23,11.8984383 23.0585932,12.0390619 23.1757812,12.15625 L25.578125,14.5585938 C25.6328128,14.6210941 25.6972653,14.6660155 25.7714844,14.6933594 C25.8457035,14.7207033 25.9218746,14.734375 26,14.734375 C26.0781254,14.734375 26.1542965,14.7207033 26.2285156,14.6933594 C26.3027347,14.6660155 26.3671872,14.6210941 26.421875,14.5585938 L28.8242188,12.15625 C28.9414068,12.0390619 29,11.8984383 29,11.734375 C29,11.5703117 28.9414068,11.4296881 28.8242188,11.3125 Z M25.2382812,16.609375 C25.0976555,16.5312496 24.9472664,16.5156248 24.7871094,16.5625 C24.6269523,16.6093752 24.5078129,16.7070305 24.4296875,16.8554688 C24.0624982,17.5429722 23.6171901,18.1640597 23.09375,18.71875 C22.5703099,19.2734403 21.9863313,19.7441387 21.3417969,20.1308594 C20.6972624,20.5175801 20.0078162,20.8144521 19.2734375,21.0214844 C18.5390588,21.2285167 17.7812539,21.3320312 17,21.3320312 C15.8593693,21.3320312 14.7871144,21.1191428 13.7832031,20.6933594 C12.7792919,20.267576 11.9003944,19.6875037 11.1464844,18.953125 C10.3925744,18.2187463 9.78906477,17.3554737 9.3359375,16.3632812 C8.88281023,15.3710888 8.64062516,14.3125056 8.609375,13.1875 L9.98046875,14.5585938 C10.0351565,14.6210941 10.099609,14.6660155 10.1738281,14.6933594 C10.2480472,14.7207033 10.3242184,14.734375 10.4023438,14.734375 C10.4804691,14.734375 10.5566403,14.7207033 10.6308594,14.6933594 C10.7050785,14.6660155 10.769531,14.6210941 10.8242188,14.5585938 C10.9414068,14.4414057 11,14.3007821 11,14.1367188 C11,13.9726554 10.9414068,13.8320318 10.8242188,13.7148438 L8.421875,11.3125 C8.30468691,11.1953119 8.16406332,11.1367188 8,11.1367188 C7.83593668,11.1367188 7.69531309,11.1953119 7.578125,11.3125 L5.17578125,13.7148438 C5.05859316,13.8320318 5,13.9726554 5,14.1367188 C5,14.3007821 5.05859316,14.4414057 5.17578125,14.5585938 C5.29296934,14.6757818 5.43359293,14.734375 5.59765625,14.734375 C5.76171957,14.734375 5.90234316,14.6757818 6.01953125,14.5585938 L7.40234375,13.1757812 C7.41796883,13.7929718 7.49023373,14.4003876 7.61914062,14.9980469 C7.74804752,15.5957061 7.93163943,16.1699191 8.16992188,16.7207031 C8.40820432,17.2714871 8.69921703,17.7988256 9.04296875,18.3027344 C9.38672047,18.8066431 9.77734156,19.2812478 10.2148438,19.7265625 C10.667971,20.1796898 11.1562474,20.5800764 11.6796875,20.9277344 C12.2031276,21.2753924 12.7519503,21.5683582 13.3261719,21.8066406 C13.9003935,22.0449231 14.4960907,22.2265619 15.1132812,22.3515625 C15.7304718,22.4765631 16.3593718,22.5390625 17,22.5390625 C17.8906295,22.5390625 18.7558552,22.4199231 19.5957031,22.1816406 C20.4355511,21.9433582 21.2226526,21.6035178 21.9570312,21.1621094 C22.6914099,20.7207009 23.359372,20.1835969 23.9609375,19.5507812 C24.562503,18.9179656 25.0742166,18.2070352 25.4960938,17.4179688 C25.5742191,17.2695305 25.5878909,17.1152352 25.5371094,16.9550781 C25.4863279,16.7949211 25.3867195,16.6796879 25.2382812,16.609375 Z" id="refresh"></path>
            </g>
        </g>
    </g>
</svg>