<?xml version="1.0" encoding="UTF-8"?>
<svg width="48px" height="29px" viewBox="0 0 48 29" version="1.1" xmlns="http://www.w3.org/2000/svg" xmlns:xlink="http://www.w3.org/1999/xlink">
    <!-- Generator: Sketch 41.1 (35376) - http://www.bohemiancoding.com/sketch -->
    <title>trumpet</title>
    <desc>Created with Sketch.</desc>
    <defs></defs>
    <g id="Page-1" stroke="none" stroke-width="1" fill="none" fill-rule="evenodd">
        <g id="Artboard-2-Copy-4" transform="translate(-696.000000, -890.000000)" fill="#FFFFFF">
            <path d="M743.085938,890.023438 C742.804686,889.960937 742.539064,889.988281 742.289062,890.105469 C742.039061,890.222657 741.851563,890.406249 741.726562,890.65625 C741.710937,890.6875 741.433596,891.167964 740.894531,892.097656 C740.355466,893.027348 739.601567,894.050776 738.632812,895.167969 C737.664058,896.285162 736.515632,897.304683 735.1875,898.226562 C733.859368,899.148442 732.398445,899.609375 730.804688,899.609375 L720,899.609375 L720,897.195312 L721.195312,897.195312 C721.523439,897.195312 721.804686,897.078126 722.039062,896.84375 C722.273439,896.609374 722.390625,896.328127 722.390625,896 C722.390625,895.671873 722.273439,895.390626 722.039062,895.15625 C721.804686,894.921874 721.523439,894.804688 721.195312,894.804688 L716.390625,894.804688 C716.062498,894.804688 715.781251,894.921874 715.546875,895.15625 C715.312499,895.390626 715.195312,895.671873 715.195312,896 C715.195312,896.328127 715.312499,896.609374 715.546875,896.84375 C715.781251,897.078126 716.062498,897.195312 716.390625,897.195312 L717.609375,897.195312 L717.609375,899.609375 L710.390625,899.609375 L710.390625,897.195312 L711.609375,897.195312 C711.937502,897.195312 712.218749,897.078126 712.453125,896.84375 C712.687501,896.609374 712.804688,896.328127 712.804688,896 C712.804688,895.671873 712.687501,895.390626 712.453125,895.15625 C712.218749,894.921874 711.937502,894.804688 711.609375,894.804688 L706.804688,894.804688 C706.476561,894.804688 706.195314,894.921874 705.960938,895.15625 C705.726561,895.390626 705.609375,895.671873 705.609375,896 C705.609375,896.328127 705.726561,896.609374 705.960938,896.84375 C706.195314,897.078126 706.476561,897.195312 706.804688,897.195312 L708,897.195312 L708,899.609375 L699.632812,899.609375 C699.476562,899.546875 699.257814,899.335939 698.976562,898.976562 C698.695311,898.617186 698.460938,898.250002 698.273438,897.875 C698.148437,897.624999 697.960939,897.437501 697.710938,897.3125 C697.460936,897.187499 697.195314,897.164062 696.914062,897.242188 C696.648436,897.304688 696.429688,897.445311 696.257812,897.664062 C696.085937,897.882814 696,898.124999 696,898.390625 L696,908 C696,908.281251 696.085937,908.531249 696.257812,908.75 C696.429688,908.968751 696.648436,909.109375 696.914062,909.171875 C697.195314,909.234375 697.460936,909.207032 697.710938,909.089844 C697.960939,908.972656 698.148437,908.789064 698.273438,908.539062 C698.460938,908.148436 698.695311,907.777346 698.976562,907.425781 C699.257814,907.074217 699.476562,906.867188 699.632812,906.804688 L700.898438,906.804688 C700.867187,906.992188 700.84375,907.187499 700.828125,907.390625 C700.8125,907.593751 700.804688,907.796874 700.804688,908 C700.804688,908.812504 700.917968,909.601559 701.144531,910.367188 C701.371095,911.132816 701.69531,911.843747 702.117188,912.5 C702.539065,913.156253 703.042966,913.749997 703.628906,914.28125 C704.214847,914.812503 704.874996,915.249998 705.609375,915.59375 L705.609375,917.609375 C705.609375,917.937502 705.726561,918.218749 705.960938,918.453125 C706.195314,918.687501 706.476561,918.804688 706.804688,918.804688 L711.609375,918.804688 C711.937502,918.804688 712.218749,918.687501 712.453125,918.453125 C712.687501,918.218749 712.804688,917.937502 712.804688,917.609375 L712.804688,916.390625 L715.195312,916.390625 L715.195312,917.609375 C715.195312,917.937502 715.312499,918.218749 715.546875,918.453125 C715.781251,918.687501 716.062498,918.804688 716.390625,918.804688 L721.195312,918.804688 C721.523439,918.804688 721.804686,918.687501 722.039062,918.453125 C722.273439,918.218749 722.390625,917.937502 722.390625,917.609375 L722.390625,916.390625 L723.609375,916.390625 C724.765631,916.390625 725.851557,916.171877 726.867188,915.734375 C727.882818,915.296873 728.773434,914.699223 729.539062,913.941406 C730.304691,913.18359 730.906248,912.292974 731.34375,911.269531 C731.781252,910.246089 732,909.156256 732,908 C732,907.812499 731.992188,907.625001 731.976562,907.4375 C731.960937,907.249999 731.945313,907.070313 731.929688,906.898438 C733.367195,907.132814 734.683588,907.718745 735.878906,908.65625 C737.074225,909.593755 738.105464,910.585932 738.972656,911.632812 C739.839848,912.679693 740.511716,913.62109 740.988281,914.457031 C741.464846,915.292973 741.710937,915.71875 741.726562,915.734375 C741.835938,915.937501 741.984374,916.097656 742.171875,916.214844 C742.359376,916.332032 742.570311,916.390625 742.804688,916.390625 L742.945312,916.390625 C742.992188,916.390625 743.039062,916.382813 743.085938,916.367188 C743.351564,916.304687 743.570312,916.164064 743.742188,915.945312 C743.914063,915.726561 744,915.476564 744,915.195312 L744,891.195312 C744,890.914061 743.914063,890.66797 743.742188,890.457031 C743.570312,890.246093 743.351564,890.101563 743.085938,890.023438 Z M703.195312,908 C703.195312,907.796874 703.207031,907.593751 703.230469,907.390625 C703.253906,907.187499 703.28125,906.992188 703.3125,906.804688 L705.609375,906.804688 L705.609375,912.804688 C704.859371,912.242185 704.269533,911.539067 703.839844,910.695312 C703.410154,909.851558 703.195312,908.95313 703.195312,908 Z M708,916.390625 L708,906.804688 L710.390625,906.804688 L710.390625,916.390625 L708,916.390625 Z M715.195312,909.195312 L712.804688,909.195312 L712.804688,906.804688 L715.195312,906.804688 L715.195312,909.195312 Z M712.804688,914 L712.804688,911.609375 L715.195312,911.609375 L715.195312,914 L712.804688,914 Z M723.609375,914 L721.195312,914 C720.867186,914 720.585939,914.117186 720.351562,914.351562 C720.117186,914.585939 720,914.867186 720,915.195312 L720,916.390625 L717.609375,916.390625 L717.609375,906.804688 L720,906.804688 L720,910.390625 C720,910.734377 720.117186,911.023436 720.351562,911.257812 C720.585939,911.492189 720.867186,911.609375 721.195312,911.609375 L723.609375,911.609375 C724.593755,911.609375 725.437496,911.257816 726.140625,910.554688 C726.843754,909.851559 727.195312,909.000005 727.195312,908 C727.195312,906.999995 726.843754,906.148441 726.140625,905.445312 C725.437496,904.742184 724.593755,904.390625 723.609375,904.390625 L699.609375,904.390625 C699.390624,904.390625 699.179689,904.421875 698.976562,904.484375 C698.773436,904.546875 698.578126,904.632812 698.390625,904.742188 L698.390625,901.648438 C698.578126,901.757813 698.773436,901.84375 698.976562,901.90625 C699.179689,901.96875 699.390624,902 699.609375,902 L723.609375,902 C724.437504,902 725.21484,902.156248 725.941406,902.46875 C726.667972,902.781252 727.300779,903.210935 727.839844,903.757812 C728.378909,904.30469 728.808592,904.941403 729.128906,905.667969 C729.44922,906.394535 729.609375,907.171871 729.609375,908 C729.609375,908.828129 729.44922,909.605465 729.128906,910.332031 C728.808592,911.058597 728.378909,911.69531 727.839844,912.242188 C727.300779,912.789065 726.667972,913.218748 725.941406,913.53125 C725.21484,913.843752 724.437504,914 723.609375,914 Z M722.390625,909.195312 L722.390625,906.804688 L723.609375,906.804688 C723.937502,906.804688 724.218749,906.921874 724.453125,907.15625 C724.687501,907.390626 724.804688,907.671873 724.804688,908 C724.804688,908.328127 724.687501,908.609374 724.453125,908.84375 C724.218749,909.078126 723.937502,909.195312 723.609375,909.195312 L722.390625,909.195312 Z M741.609375,911.070312 C741.062497,910.351559 740.429691,909.609379 739.710938,908.84375 C738.992184,908.078121 738.195317,907.375003 737.320312,906.734375 C736.445308,906.093747 735.496099,905.558596 734.472656,905.128906 C733.449214,904.699217 732.359381,904.460938 731.203125,904.414062 C730.984374,903.960935 730.73047,903.531252 730.441406,903.125 C730.152342,902.718748 729.828127,902.343752 729.46875,902 L730.804688,902 C732.007819,902 733.144526,901.792971 734.214844,901.378906 C735.285162,900.964842 736.273433,900.429691 737.179688,899.773438 C738.085942,899.117184 738.910153,898.394535 739.652344,897.605469 C740.394535,896.816402 741.046872,896.054691 741.609375,895.320312 L741.609375,911.070312 Z" id="trumpet"></path>
        </g>
    </g>
</svg>