<?xml version="1.0" encoding="UTF-8" standalone="no"?>
<svg width="113px" height="14px" viewBox="0 0 113 14" version="1.1" xmlns="http://www.w3.org/2000/svg" xmlns:xlink="http://www.w3.org/1999/xlink">
    <!-- Generator: Sketch 39.1 (31720) - http://www.bohemiancoding.com/sketch -->
    <title>VAMOHA</title>
    <desc>Created with Sketch.</desc>
    <defs></defs>
    <g id="Page-1" stroke="none" stroke-width="1" fill="none" fill-rule="evenodd">
        <g id="Artboard-2-Copy-4" transform="translate(-799.000000, -1157.000000)" fill="#FFFFFF">
            <g id="Group-5" transform="translate(278.000000, 1150.000000)">
                <path d="M526.934,20.18 L527.06,20.18 C527.69,20.18 528.104,19.838 528.338,19.28 L532.766,8.84 C532.82,8.714 532.874,8.534 532.874,8.372 C532.874,7.778 532.388,7.31 531.776,7.31 C531.254,7.31 530.858,7.652 530.714,8.03 L527.024,17.192 L523.388,8.102 C523.208,7.634 522.83,7.31 522.254,7.31 C521.624,7.31 521.138,7.796 521.138,8.39 C521.138,8.588 521.192,8.75 521.264,8.912 L525.674,19.28 C525.908,19.838 526.322,20.18 526.934,20.18 L526.934,20.18 Z M538.928,19.064 C538.928,19.64 539.378,20.09 539.954,20.09 C540.422,20.09 540.8,19.838 540.98,19.388 L542.042,16.958 L548.162,16.958 L549.188,19.316 C549.386,19.784 549.746,20.09 550.268,20.09 C550.862,20.09 551.312,19.622 551.312,19.028 C551.312,18.884 551.276,18.722 551.186,18.56 L546.506,8.12 C546.254,7.562 545.822,7.22 545.192,7.22 L545.084,7.22 C544.454,7.22 544.004,7.562 543.752,8.12 L539.072,18.56 C538.982,18.74 538.928,18.902 538.928,19.064 L538.928,19.064 Z M542.888,14.996 L545.102,9.902 L547.316,14.996 L542.888,14.996 Z M559.706,19.01 C559.706,19.622 560.174,20.09 560.786,20.09 C561.398,20.09 561.884,19.622 561.884,19.01 L561.884,11.468 L564.944,16.058 C565.178,16.418 565.466,16.634 565.862,16.634 C566.276,16.634 566.564,16.418 566.798,16.058 L569.876,11.432 L569.876,18.992 C569.876,19.586 570.38,20.09 570.974,20.09 C571.604,20.09 572.09,19.604 572.09,18.992 L572.09,8.444 C572.09,7.832 571.604,7.328 570.974,7.328 L570.74,7.328 C570.29,7.328 569.966,7.526 569.732,7.904 L565.898,13.898 L562.082,7.922 C561.866,7.58 561.542,7.328 561.056,7.328 L560.822,7.328 C560.192,7.328 559.706,7.832 559.706,8.444 L559.706,19.01 Z M587.342,20.216 C591.212,20.216 593.948,17.246 593.948,13.7 L593.948,13.664 C593.948,10.118 591.248,7.184 587.378,7.184 C583.508,7.184 580.772,10.154 580.772,13.7 L580.772,13.736 C580.772,17.282 583.472,20.216 587.342,20.216 L587.342,20.216 Z M587.378,18.164 C584.876,18.164 583.094,16.148 583.094,13.7 L583.094,13.664 C583.094,11.216 584.84,9.218 587.342,9.218 C589.844,9.218 591.626,11.252 591.626,13.7 L591.626,13.736 C591.626,16.184 589.88,18.164 587.378,18.164 L587.378,18.164 Z M602.63,18.992 C602.63,19.604 603.116,20.09 603.746,20.09 C604.358,20.09 604.844,19.604 604.844,18.992 L604.844,14.69 L610.856,14.69 L610.856,18.992 C610.856,19.604 611.342,20.09 611.954,20.09 C612.584,20.09 613.07,19.604 613.07,18.992 L613.07,8.408 C613.07,7.796 612.584,7.31 611.954,7.31 C611.342,7.31 610.856,7.796 610.856,8.408 L610.856,12.638 L604.844,12.638 L604.844,8.408 C604.844,7.796 604.358,7.31 603.746,7.31 C603.116,7.31 602.63,7.796 602.63,8.408 L602.63,18.992 Z M621.446,19.064 C621.446,19.64 621.896,20.09 622.472,20.09 C622.94,20.09 623.318,19.838 623.498,19.388 L624.56,16.958 L630.68,16.958 L631.706,19.316 C631.904,19.784 632.264,20.09 632.786,20.09 C633.38,20.09 633.83,19.622 633.83,19.028 C633.83,18.884 633.794,18.722 633.704,18.56 L629.024,8.12 C628.772,7.562 628.34,7.22 627.71,7.22 L627.602,7.22 C626.972,7.22 626.522,7.562 626.27,8.12 L621.59,18.56 C621.5,18.74 621.446,18.902 621.446,19.064 L621.446,19.064 Z M625.406,14.996 L627.62,9.902 L629.834,14.996 L625.406,14.996 Z" id="VAMOHA"></path>
            </g>
        </g>
    </g>
</svg>