<?xml version="1.0" encoding="UTF-8"?>
<svg width="143px" height="22px" viewBox="0 0 143 22" version="1.1" xmlns="http://www.w3.org/2000/svg" xmlns:xlink="http://www.w3.org/1999/xlink">
    <!-- Generator: Sketch 42 (36781) - http://www.bohemiancoding.com/sketch -->
    <title>Group 11</title>
    <desc>Created with Sketch.</desc>
    <defs></defs>
    <g id="Page-1" stroke="none" stroke-width="1" fill="none" fill-rule="evenodd">
        <g id="Artboard-2-Copy-4" transform="translate(-974.000000, -1300.000000)" fill="#FFFFFF">
            <g id="Group-5" transform="translate(391.000000, 1176.000000)">
                <g id="Group-6" transform="translate(455.000000, 6.000000)">
                    <g id="Group-11" transform="translate(128.000000, 118.000000)">
                        <g id="vamoha-logo-copy">
                            <path d="M25.4093333,1.06147135 C25.2591667,1.11589844 25.1288333,1.25339844 25.0353333,1.45678385 C23.2248333,6.73334635 19.5896667,11.8838672 15.2688333,11.8838672 C10.948,11.8838672 7.31283333,6.73334635 5.4995,1.45678385 C5.41166667,1.2591276 5.28133333,1.12449219 5.13683333,1.06720052 L5.13683333,10.5776172 C5.6355,11.4541797 6.1965,12.3164193 6.81133333,13.1070443 C9.605,16.6963672 13.6481667,19.6039193 15.2688333,19.6039193 C16.8866667,19.6039193 20.9326667,16.6963672 23.7235,13.1070443 C24.344,12.3106901 24.9078333,11.4398568 25.4093333,10.5604297 L25.4093333,1.06147135 Z" id="Fill-1"></path>
                            <path d="M8.80543333,19.8339453 C5.60943333,17.0982682 2.97726667,12.9417578 1.53793333,7.90295573 C1.36226667,7.4618099 0.840933333,7.58498698 0.716266667,8.02613281 C0.279933333,9.5930599 0.0787666667,11.0797786 0.0051,12.4633724 C-0.145066667,17.1612891 3.92076667,19.0576432 4.01993333,19.1034766 C5.28926667,19.6792578 6.7116,20.1862891 8.32093333,20.5157161 C8.7686,20.6045182 9.11426667,20.1920182 8.80543333,19.8339453" id="Fill-3"></path>
                            <path d="M21.7311,19.8339453 C24.9271,17.0982682 27.5592667,12.9417578 28.9986,7.90295573 C29.1742667,7.4618099 29.6956,7.58498698 29.8202667,8.02613281 C30.2566,9.5930599 30.4577667,11.0797786 30.5314333,12.4633724 C30.6816,17.1612891 26.6157667,19.0576432 26.5166,19.1034766 C25.2472667,19.6792578 23.8249333,20.1862891 22.2156,20.5157161 C21.7679333,20.6045182 21.4222667,20.1920182 21.7311,19.8339453" id="Fill-5"></path>
                            <path d="M27.676,4.65251302 C27.2708333,3.31761719 26.9761667,2.43532552 26.0383333,1.24652344 C25.6926667,0.725169271 25.2506667,0.856940104 25.0353333,1.3897526 C23.2248333,7.31657552 19.5896667,13.1030339 15.2688333,13.1030339 C10.948,13.1030339 7.31283333,7.31657552 5.4995,1.3897526 C5.287,0.856940104 4.845,0.725169271 4.4965,1.24652344 C3.5615,2.43532552 3.264,3.31761719 2.85883333,4.65251302 C2.71433333,5.05355469 2.79933333,5.62647135 2.85883333,5.8413151 C3.50483333,8.15303385 4.89316667,11.7051172 6.81133333,14.4751693 C9.605,18.5027734 13.6481667,21.771263 15.2688333,21.771263 C16.8866667,21.771263 20.9326667,18.5027734 23.7235,14.4751693 C25.6416667,11.7051172 27.03,8.15303385 27.6788333,5.8413151 C27.7383333,5.62647135 27.8205,5.05355469 27.676,4.65251302" id="Fill-7"></path>
                        </g>
                        <path d="M45.534,18.18 L45.66,18.18 C46.29,18.18 46.704,17.838 46.938,17.28 L51.366,6.84 C51.42,6.714 51.474,6.534 51.474,6.372 C51.474,5.778 50.988,5.31 50.376,5.31 C49.854,5.31 49.458,5.652 49.314,6.03 L45.624,15.192 L41.988,6.102 C41.808,5.634 41.43,5.31 40.854,5.31 C40.224,5.31 39.738,5.796 39.738,6.39 C39.738,6.588 39.792,6.75 39.864,6.912 L44.274,17.28 C44.508,17.838 44.922,18.18 45.534,18.18 Z M55.528,17.064 C55.528,16.902 55.582,16.74 55.672,16.56 L60.352,6.12 C60.604,5.562 61.054,5.22 61.684,5.22 L61.792,5.22 C62.422,5.22 62.854,5.562 63.106,6.12 L67.786,16.56 C67.876,16.722 67.912,16.884 67.912,17.028 C67.912,17.622 67.462,18.09 66.868,18.09 C66.346,18.09 65.986,17.784 65.788,17.316 L64.762,14.958 L58.642,14.958 L57.58,17.388 C57.4,17.838 57.022,18.09 56.554,18.09 C55.978,18.09 55.528,17.64 55.528,17.064 Z M59.488,12.996 L63.916,12.996 L61.702,7.902 L59.488,12.996 Z M74.306,17.01 C74.306,17.622 74.774,18.09 75.386,18.09 C75.998,18.09 76.484,17.622 76.484,17.01 L76.484,9.468 L79.544,14.058 C79.778,14.418 80.066,14.634 80.462,14.634 C80.876,14.634 81.164,14.418 81.398,14.058 L84.476,9.432 L84.476,16.992 C84.476,17.586 84.98,18.09 85.574,18.09 C86.204,18.09 86.69,17.604 86.69,16.992 L86.69,6.444 C86.69,5.832 86.204,5.328 85.574,5.328 L85.34,5.328 C84.89,5.328 84.566,5.526 84.332,5.904 L80.498,11.898 L76.682,5.922 C76.466,5.58 76.142,5.328 75.656,5.328 L75.422,5.328 C74.792,5.328 74.306,5.832 74.306,6.444 L74.306,17.01 Z M99.942,18.216 C96.072,18.216 93.372,15.282 93.372,11.736 L93.372,11.7 C93.372,8.154 96.108,5.184 99.978,5.184 C103.848,5.184 106.548,8.118 106.548,11.664 L106.548,11.7 C106.548,15.246 103.812,18.216 99.942,18.216 Z M99.978,16.164 C102.48,16.164 104.226,14.184 104.226,11.736 L104.226,11.7 C104.226,9.252 102.444,7.218 99.942,7.218 C97.44,7.218 95.694,9.216 95.694,11.664 L95.694,11.7 C95.694,14.148 97.476,16.164 99.978,16.164 Z M113.23,16.992 C113.23,17.604 113.716,18.09 114.346,18.09 C114.958,18.09 115.444,17.604 115.444,16.992 L115.444,12.69 L121.456,12.69 L121.456,16.992 C121.456,17.604 121.942,18.09 122.554,18.09 C123.184,18.09 123.67,17.604 123.67,16.992 L123.67,6.408 C123.67,5.796 123.184,5.31 122.554,5.31 C121.942,5.31 121.456,5.796 121.456,6.408 L121.456,10.638 L115.444,10.638 L115.444,6.408 C115.444,5.796 114.958,5.31 114.346,5.31 C113.716,5.31 113.23,5.796 113.23,6.408 L113.23,16.992 Z M130.046,17.064 C130.046,16.902 130.1,16.74 130.19,16.56 L134.87,6.12 C135.122,5.562 135.572,5.22 136.202,5.22 L136.31,5.22 C136.94,5.22 137.372,5.562 137.624,6.12 L142.304,16.56 C142.394,16.722 142.43,16.884 142.43,17.028 C142.43,17.622 141.98,18.09 141.386,18.09 C140.864,18.09 140.504,17.784 140.306,17.316 L139.28,14.958 L133.16,14.958 L132.098,17.388 C131.918,17.838 131.54,18.09 131.072,18.09 C130.496,18.09 130.046,17.64 130.046,17.064 Z M134.006,12.996 L138.434,12.996 L136.22,7.902 L134.006,12.996 Z" id="VAMOHA-Copy"></path>
                    </g>
                </g>
            </g>
        </g>
    </g>
</svg>