<?xml version="1.0" encoding="UTF-8"?>
<svg width="68px" height="24px" viewBox="0 0 68 24" version="1.1" xmlns="http://www.w3.org/2000/svg" xmlns:xlink="http://www.w3.org/1999/xlink">
    <!-- Generator: Sketch 42 (36781) - http://www.bohemiancoding.com/sketch -->
    <title>Group 9</title>
    <desc>Created with Sketch.</desc>
    <defs></defs>
    <g id="Page-1" stroke="none" stroke-width="1" fill="none" fill-rule="evenodd">
        <g id="Artboard-2-Copy-4" transform="translate(-689.000000, -983.000000)">
            <g id="Group-5" transform="translate(391.000000, 983.000000)">
                <g id="Group-7" transform="translate(298.000000, 0.000000)">
                    <g id="Group-9">
                        <path d="M55.4334554,0 C61.9572027,0 67.2457442,5.15945543 67.2457442,11.5239669 C67.2457442,17.8884785 61.9572027,23.0479339 55.4334554,23.0479339 C49.9387296,23.0479339 45.3202722,19.3877606 44,14.4302152 L45.0471192,15.0936243 L45.5902206,14.2777344 C46.8156249,18.45443 50.7586107,21.511405 55.4334554,21.511405 C61.0873698,21.511405 65.6707724,17.039877 65.6707724,11.5239669 C65.6707724,6.00805692 61.0873698,1.53652893 55.4334554,1.53652893 C54.9495594,1.53652893 54.4735048,1.56928272 54.007494,1.63264178 C54.007494,1.63264178 55.2189902,0 55.4334554,0 Z" id="Oval-1" fill="#BD5799"></path>
                        <polygon id="Triangle-1" fill="#AC306E" points="43.7224299 2.18353893e-15 55.5347187 2.18353893e-15 39.7850003 23.0479339 33.8788559 14.4049587 27.9727115 23.0479339 22 14.3075453 22.9340286 12.9043737 27.9727115 20.277917 32.5684001 13.5526458 33.8788559 11.6349418 35.1893117 13.5526458 39.7850003 20.277917 52.5918569 1.53652893 43.7224299 1.53652893 30.5010951 1.53652893 31.5238938 4.36707787e-15"></polygon>
                        <path d="M15.7497184,23.0479339 L0,0 L31.4994368,2.18353893e-15 L15.7497184,23.0479339 Z M15.7497184,20.277917 L28.556575,1.53652893 L2.94286181,1.53652893 L15.7497184,20.277917 Z" id="Triangle-1-copy-2" fill="#785AB1"></path>
                    </g>
                </g>
            </g>
        </g>
    </g>
</svg>