<?xml version="1.0" encoding="UTF-8"?>
<svg width="85px" height="25px" viewBox="0 0 85 25" version="1.1" xmlns="http://www.w3.org/2000/svg" xmlns:xlink="http://www.w3.org/1999/xlink">
    <!-- Generator: Sketch 42 (36781) - http://www.bohemiancoding.com/sketch -->
    <title>Wingify</title>
    <desc>Created with Sketch.</desc>
    <defs></defs>
    <g id="Page-1" stroke="none" stroke-width="1" fill="none" fill-rule="evenodd">
        <g id="Artboard-2-Copy-4" transform="translate(-470.000000, -1069.000000)" fill="#D63939">
            <g id="Group-4" transform="translate(396.000000, 1028.000000)">
                <path d="M98.765625,44.203125 C98.5703115,44.2109375 98.3437513,44.255859 98.0859375,44.3378906 C97.8281237,44.4199223 97.5898448,44.5273431 97.3710938,44.6601562 C97.0976549,44.8320321 96.876954,45.0292958 96.7089844,45.2519531 C96.5410148,45.4746105 96.3945319,45.7851543 96.2695312,46.1835938 C95.714841,47.9882903 95.0703162,50.0956911 94.3359375,52.5058594 C93.6015588,54.9160277 92.808598,57.4843614 91.9570312,60.2109375 L90.8789062,60.2109375 L86.6835938,47.4140625 L82.3125,60.2109375 L81.28125,60.2109375 C80.5078086,57.4765488 79.7070354,54.6386866 78.8789062,51.6972656 C78.0507771,48.7558447 77.4960952,46.7851613 77.2148438,45.7851562 C77.1445309,45.5429675 77.0410163,45.3281259 76.9042969,45.140625 C76.7675774,44.9531241 76.5820324,44.7812508 76.3476562,44.625 C76.1523428,44.4921868 75.9238294,44.3925785 75.6621094,44.3261719 C75.4003893,44.2597653 75.1640636,44.2187501 74.953125,44.203125 L74.953125,43.3710938 L81.7382812,43.3710938 L81.7382812,44.203125 C81.1445283,44.2343752 80.638674,44.2929683 80.2207031,44.3789062 C79.8027323,44.4648442 79.59375,44.609374 79.59375,44.8125 C79.59375,44.8906254 79.6054686,44.99414 79.6289062,45.1230469 C79.6523439,45.2519538 79.6718749,45.3554684 79.6875,45.4335938 C79.8671884,46.1210972 80.1855446,47.2558515 80.6425781,48.8378906 C81.0996117,50.4199298 81.7773393,52.7890467 82.6757812,55.9453125 L86.8242188,43.6054688 L87.9726562,43.6054688 L92.15625,56.2148438 C92.7187528,54.2773341 93.203123,52.5839916 93.609375,51.1347656 C94.015627,49.6855396 94.3515612,48.4453177 94.6171875,47.4140625 C94.8046884,46.6874964 94.9218748,46.1894545 94.96875,45.9199219 C95.0156252,45.6503893 95.0390625,45.4218759 95.0390625,45.234375 C95.0390625,44.9687487 94.8574237,44.7460946 94.4941406,44.5664062 C94.1308576,44.3867179 93.5429728,44.2656253 92.7304688,44.203125 L92.7304688,43.3710938 L98.765625,43.3710938 L98.765625,44.203125 Z M104.871094,60 L99.28125,60 L99.28125,59.2265625 C99.4609384,59.2109374 99.6464834,59.1953126 99.8378906,59.1796875 C100.029298,59.1640624 100.195312,59.1328127 100.335938,59.0859375 C100.554689,59.0156246 100.716796,58.892579 100.822266,58.7167969 C100.927735,58.5410147 100.980469,58.3125014 100.980469,58.03125 L100.980469,50.8945312 C100.980469,50.64453 100.923829,50.4160167 100.810547,50.2089844 C100.697265,50.0019521 100.539064,49.8281257 100.335938,49.6875 C100.187499,49.5937495 99.9726577,49.5136722 99.6914062,49.4472656 C99.4101548,49.380859 99.1523449,49.3398438 98.9179688,49.3242188 L98.9179688,48.5625 L102.996094,48.3046875 L103.160156,48.46875 L103.160156,57.890625 C103.160156,58.1640639 103.21289,58.3906241 103.318359,58.5703125 C103.423829,58.7500009 103.589843,58.8828121 103.816406,58.96875 C103.988282,59.0390629 104.156249,59.0957029 104.320312,59.1386719 C104.484376,59.1816408 104.667968,59.2109374 104.871094,59.2265625 L104.871094,60 Z M103.394531,43.7460938 C103.394531,44.1914085 103.248048,44.5800765 102.955078,44.9121094 C102.662108,45.2441423 102.300783,45.4101562 101.871094,45.4101562 C101.472654,45.4101562 101.126955,45.2519547 100.833984,44.9355469 C100.541014,44.619139 100.394531,44.2578145 100.394531,43.8515625 C100.394531,43.4218729 100.541014,43.0468766 100.833984,42.7265625 C101.126955,42.4062484 101.472654,42.2460938 101.871094,42.2460938 C102.316408,42.2460938 102.681639,42.3964829 102.966797,42.6972656 C103.251955,42.9980484 103.394531,43.3476543 103.394531,43.7460938 Z M119.050781,60 L113.390625,60 L113.390625,59.2265625 C113.570313,59.2109374 113.767577,59.1953126 113.982422,59.1796875 C114.197267,59.1640624 114.374999,59.1328127 114.515625,59.0859375 C114.734376,59.0156246 114.896484,58.892579 115.001953,58.7167969 C115.107422,58.5410147 115.160156,58.3125014 115.160156,58.03125 L115.160156,52.0898438 C115.160156,51.2695271 114.966799,50.636721 114.580078,50.1914062 C114.193357,49.7460915 113.722659,49.5234375 113.167969,49.5234375 C112.753904,49.5234375 112.375002,49.58789 112.03125,49.7167969 C111.687498,49.8457038 111.382814,50.0039053 111.117188,50.1914062 C110.859374,50.3710946 110.654298,50.5644521 110.501953,50.7714844 C110.349609,50.9785167 110.238282,51.1445306 110.167969,51.2695312 L110.167969,57.9140625 C110.167969,58.1796888 110.222656,58.3984366 110.332031,58.5703125 C110.441407,58.7421884 110.605468,58.8749995 110.824219,58.96875 C110.988282,59.0468754 111.166015,59.1054686 111.357422,59.1445312 C111.548829,59.1835939 111.746093,59.2109374 111.949219,59.2265625 L111.949219,60 L106.289062,60 L106.289062,59.2265625 C106.468751,59.2109374 106.654296,59.1953126 106.845703,59.1796875 C107.03711,59.1640624 107.203124,59.1328127 107.34375,59.0859375 C107.562501,59.0156246 107.724609,58.892579 107.830078,58.7167969 C107.935547,58.5410147 107.988281,58.3125014 107.988281,58.03125 L107.988281,50.8945312 C107.988281,50.6289049 107.931641,50.3847667 107.818359,50.1621094 C107.705078,49.939452 107.546876,49.7578132 107.34375,49.6171875 C107.195312,49.523437 107.019532,49.4550783 106.816406,49.4121094 C106.61328,49.3691404 106.394532,49.3398438 106.160156,49.3242188 L106.160156,48.5625 L110.003906,48.3046875 L110.167969,48.46875 L110.167969,50.0976562 L110.226562,50.0976562 C110.414063,49.9101553 110.648436,49.6855482 110.929688,49.4238281 C111.210939,49.1621081 111.476561,48.9492196 111.726562,48.7851562 C112.015626,48.5976553 112.359373,48.4414069 112.757812,48.3164062 C113.156252,48.1914056 113.605466,48.1289062 114.105469,48.1289062 C115.214849,48.1289062 116.037107,48.4746059 116.572266,49.1660156 C117.107425,49.8574253 117.375,50.777338 117.375,51.9257812 L117.375,57.9375 C117.375,58.2109389 117.421875,58.4316398 117.515625,58.5996094 C117.609375,58.767579 117.76953,58.898437 117.996094,58.9921875 C118.183595,59.0703129 118.345702,59.1249998 118.482422,59.15625 C118.619141,59.1875002 118.808593,59.2109374 119.050781,59.2265625 L119.050781,60 Z M130.371094,58.8046875 C130.683595,59.101564 130.929687,59.4374981 131.109375,59.8125 C131.289063,60.1875019 131.378906,60.652341 131.378906,61.2070312 C131.378906,61.7617215 131.257814,62.2832007 131.015625,62.7714844 C130.773436,63.2597681 130.406252,63.683592 129.914062,64.0429688 C129.390622,64.4101581 128.765629,64.6953115 128.039062,64.8984375 C127.312496,65.1015635 126.414068,65.203125 125.34375,65.203125 C123.593741,65.203125 122.285161,64.9472682 121.417969,64.4355469 C120.550777,63.9238256 120.117188,63.1757862 120.117188,62.1914062 C120.117188,61.3945273 120.429684,60.7656273 121.054688,60.3046875 C121.679691,59.8437477 122.476558,59.5937502 123.445312,59.5546875 L123.445312,59.390625 C123.210936,59.3203121 122.968751,59.2324224 122.71875,59.1269531 C122.468749,59.0214838 122.253907,58.8984382 122.074219,58.7578125 C121.871093,58.5937492 121.707032,58.4003917 121.582031,58.1777344 C121.457031,57.955077 121.394531,57.6796891 121.394531,57.3515625 C121.394531,56.9374979 121.541014,56.5566424 121.833984,56.2089844 C122.126955,55.8613264 122.57031,55.5625012 123.164062,55.3125 L123.164062,55.1367188 C122.414059,54.7851545 121.832033,54.3339871 121.417969,53.7832031 C121.003904,53.2324191 120.796875,52.5937536 120.796875,51.8671875 C120.796875,50.773432 121.205074,49.8750035 122.021484,49.171875 C122.837895,48.4687465 123.882806,48.1171875 125.15625,48.1171875 C125.507814,48.1171875 125.85742,48.1523434 126.205078,48.2226562 C126.552736,48.2929691 126.906248,48.382812 127.265625,48.4921875 L131.296875,48.4921875 L131.296875,49.6171875 L128.578125,49.6171875 L128.578125,49.6875 C128.867189,50.0234392 129.082031,50.3945292 129.222656,50.8007812 C129.363282,51.2070333 129.433594,51.6054668 129.433594,51.9960938 C129.433594,53.0117238 129.021488,53.8710902 128.197266,54.5742188 C127.373043,55.2773473 126.414068,55.6289062 125.320312,55.6289062 L123.902344,55.6289062 C123.722655,55.6914066 123.535157,55.8046867 123.339844,55.96875 C123.14453,56.1328133 123.046875,56.3554673 123.046875,56.6367188 C123.046875,56.9257827 123.128905,57.1464836 123.292969,57.2988281 C123.457032,57.4511726 123.656249,57.5546872 123.890625,57.609375 C124.117189,57.6718753 124.380858,57.7109374 124.681641,57.7265625 C124.982423,57.7421876 125.292967,57.7539062 125.613281,57.7617188 C125.957033,57.7695313 126.427731,57.7929686 127.025391,57.8320312 C127.62305,57.8710939 128.046874,57.8945312 128.296875,57.9023438 C128.656252,57.9179688 129.017576,58.0039055 129.380859,58.1601562 C129.744142,58.316407 130.074217,58.5312486 130.371094,58.8046875 Z M127.207031,51.9492188 C127.207031,51.0351517 127.021486,50.3066433 126.650391,49.7636719 C126.279295,49.2207004 125.757816,48.9492188 125.085938,48.9492188 C124.718748,48.9492188 124.404298,49.0253899 124.142578,49.1777344 C123.880858,49.3300789 123.66797,49.5468736 123.503906,49.828125 C123.347655,50.0859388 123.236328,50.3964826 123.169922,50.7597656 C123.103515,51.1230487 123.070312,51.4960918 123.070312,51.8789062 C123.070312,52.7460981 123.259764,53.4531223 123.638672,54 C124.01758,54.5468777 124.507809,54.8203125 125.109375,54.8203125 C125.781253,54.8203125 126.298826,54.5488308 126.662109,54.0058594 C127.025392,53.4628879 127.207031,52.7773479 127.207031,51.9492188 Z M129.457031,61.640625 C129.457031,61.2031228 129.35547,60.8437514 129.152344,60.5625 C128.949218,60.2812486 128.640627,60.0898443 128.226562,59.9882812 C128.007811,59.9570311 127.558597,59.9218752 126.878906,59.8828125 C126.199215,59.8437498 125.410161,59.8242188 124.511719,59.8242188 C123.667965,59.9882821 123.068361,60.2636699 122.712891,60.6503906 C122.35742,61.0371113 122.179688,61.5351532 122.179688,62.1445312 C122.179688,62.4179701 122.238281,62.6796863 122.355469,62.9296875 C122.472657,63.1796887 122.67578,63.4101552 122.964844,63.6210938 C123.238283,63.8242198 123.605466,63.9902337 124.066406,64.1191406 C124.527346,64.2480475 125.08984,64.3125 125.753906,64.3125 C126.902349,64.3125 127.806637,64.0917991 128.466797,63.6503906 C129.126956,63.2089822 129.457031,62.539067 129.457031,61.640625 Z M138.304688,60 L132.714844,60 L132.714844,59.2265625 C132.894532,59.2109374 133.080077,59.1953126 133.271484,59.1796875 C133.462892,59.1640624 133.628906,59.1328127 133.769531,59.0859375 C133.988282,59.0156246 134.15039,58.892579 134.255859,58.7167969 C134.361329,58.5410147 134.414062,58.3125014 134.414062,58.03125 L134.414062,50.8945312 C134.414062,50.64453 134.357422,50.4160167 134.244141,50.2089844 C134.130859,50.0019521 133.972657,49.8281257 133.769531,49.6875 C133.621093,49.5937495 133.406251,49.5136722 133.125,49.4472656 C132.843749,49.380859 132.585939,49.3398438 132.351562,49.3242188 L132.351562,48.5625 L136.429688,48.3046875 L136.59375,48.46875 L136.59375,57.890625 C136.59375,58.1640639 136.646484,58.3906241 136.751953,58.5703125 C136.857422,58.7500009 137.023436,58.8828121 137.25,58.96875 C137.421876,59.0390629 137.589843,59.0957029 137.753906,59.1386719 C137.91797,59.1816408 138.101561,59.2109374 138.304688,59.2265625 L138.304688,60 Z M136.828125,43.7460938 C136.828125,44.1914085 136.681642,44.5800765 136.388672,44.9121094 C136.095702,45.2441423 135.734377,45.4101562 135.304688,45.4101562 C134.906248,45.4101562 134.560548,45.2519547 134.267578,44.9355469 C133.974608,44.619139 133.828125,44.2578145 133.828125,43.8515625 C133.828125,43.4218729 133.974608,43.0468766 134.267578,42.7265625 C134.560548,42.4062484 134.906248,42.2460938 135.304688,42.2460938 C135.750002,42.2460938 136.115233,42.3964829 136.400391,42.6972656 C136.685548,42.9980484 136.828125,43.3476543 136.828125,43.7460938 Z M148.324219,43.2539062 C148.324219,43.6054705 148.23047,43.9023425 148.042969,44.1445312 C147.855468,44.38672 147.570314,44.5078125 147.1875,44.5078125 C146.945311,44.5078125 146.732423,44.4570318 146.548828,44.3554688 C146.365233,44.2539057 146.195313,44.1171884 146.039062,43.9453125 C145.882812,43.7734366 145.738282,43.5781261 145.605469,43.359375 C145.472656,43.1406239 145.359375,42.9648444 145.265625,42.8320312 C144.742185,42.8554689 144.337892,43.2206996 144.052734,43.9277344 C143.767577,44.6347692 143.625,45.761711 143.625,47.3085938 L143.625,48.4921875 L146.601562,48.4921875 L146.601562,49.6171875 L143.625,49.6171875 L143.625,57.9140625 C143.625,58.1875014 143.677734,58.4101554 143.783203,58.5820312 C143.888672,58.7539071 144.054686,58.8828121 144.28125,58.96875 C144.468751,59.0390629 144.718748,59.0957029 145.03125,59.1386719 C145.343752,59.1816408 145.61328,59.2109374 145.839844,59.2265625 L145.839844,60 L139.746094,60 L139.746094,59.2265625 C139.925782,59.2109374 140.111327,59.1953126 140.302734,59.1796875 C140.494142,59.1640624 140.660156,59.1328127 140.800781,59.0859375 C141.019532,59.0156246 141.18164,58.892579 141.287109,58.7167969 C141.392579,58.5410147 141.445312,58.3125014 141.445312,58.03125 L141.445312,49.6171875 L139.160156,49.6171875 L139.160156,48.4921875 L141.445312,48.4921875 L141.445312,47.7539062 C141.445312,45.996085 141.900386,44.5722711 142.810547,43.4824219 C143.720708,42.3925727 144.859368,41.8476562 146.226562,41.8476562 C146.921878,41.8476562 147.445311,41.9843736 147.796875,42.2578125 C148.148439,42.5312514 148.324219,42.8632793 148.324219,43.2539062 Z M146.648438,63.7734375 C146.648438,63.3828105 146.755858,63.0644544 146.970703,62.8183594 C147.185548,62.5722644 147.453123,62.4492187 147.773438,62.4492187 C148.023439,62.4492187 148.23828,62.4960933 148.417969,62.5898438 C148.597657,62.6835942 148.757812,62.8046868 148.898438,62.953125 C149.015626,63.0703131 149.140624,63.2304677 149.273438,63.4335937 C149.406251,63.6367198 149.511718,63.8046868 149.589844,63.9375 C149.980471,63.7265614 150.447263,63.1757857 150.990234,62.2851562 C151.533206,61.3945268 151.92578,60.6132846 152.167969,59.9414062 C151.425778,58.0898345 150.753909,56.4336011 150.152344,54.9726562 C149.550778,53.5117114 148.921878,52.0000078 148.265625,50.4375 C148.117187,50.0781232 147.867189,49.7988291 147.515625,49.5996094 C147.164061,49.4003896 146.812502,49.2734378 146.460938,49.21875 L146.460938,48.4453125 L151.734375,48.4453125 L151.734375,49.265625 C151.499999,49.2734375 151.218752,49.3222652 150.890625,49.4121094 C150.562498,49.5019536 150.398438,49.6054682 150.398438,49.7226562 C150.398438,49.7695315 150.416015,49.8476557 150.451172,49.9570312 C150.486328,50.0664068 150.527344,50.1796869 150.574219,50.296875 C150.871095,51.0703164 151.324216,52.1855396 151.933594,53.6425781 C152.542972,55.0996167 153.015623,56.2656206 153.351562,57.140625 C153.703127,56.3046833 154.068357,55.4394576 154.447266,54.5449219 C154.826174,53.6503862 155.249998,52.5937561 155.71875,51.375 C155.773438,51.2265618 155.851562,51.0214857 155.953125,50.7597656 C156.054688,50.4980456 156.105469,50.2734384 156.105469,50.0859375 C156.105469,49.8828115 155.927736,49.6933603 155.572266,49.5175781 C155.216795,49.341796 154.878908,49.2343752 154.558594,49.1953125 L154.558594,48.4453125 L158.847656,48.4453125 L158.847656,49.171875 C158.61328,49.2109377 158.304689,49.345702 157.921875,49.5761719 C157.539061,49.8066418 157.253907,50.1328104 157.066406,50.5546875 C156.136714,52.7109483 155.31055,54.6757724 154.587891,56.4492188 C153.865231,58.2226651 153.316408,59.5273396 152.941406,60.3632812 C152.449216,61.4570367 152.009768,62.3105438 151.623047,62.9238281 C151.236326,63.5371124 150.859377,64.0195295 150.492188,64.3710938 C150.132811,64.6992204 149.806642,64.9199213 149.513672,65.0332031 C149.220702,65.1464849 148.91797,65.203125 148.605469,65.203125 C147.996091,65.203125 147.51758,65.0585952 147.169922,64.7695312 C146.822264,64.4804673 146.648438,64.1484394 146.648438,63.7734375 Z" id="Wingify"></path>
            </g>
        </g>
    </g>
</svg>