<?xml version="1.0" encoding="UTF-8" standalone="no"?>
<svg width="48px" height="48px" viewBox="0 0 48 48" version="1.1" xmlns="http://www.w3.org/2000/svg" xmlns:xlink="http://www.w3.org/1999/xlink">
    <!-- Generator: Sketch 40.2 (33826) - http://www.bohemiancoding.com/sketch -->
    <title>work</title>
    <desc>Created with Sketch.</desc>
    <defs></defs>
    <g id="Page-1" stroke="none" stroke-width="1" fill="none" fill-rule="evenodd">
        <g id="Artboard-2-Copy-4" transform="translate(-762.000000, -2415.000000)" fill="#000000">
            <path d="M808.453125,2457.96094 L791.296875,2440.80469 L806.742188,2425.33594 C807.445316,2424.63281 807.796875,2423.78516 807.796875,2422.79297 C807.796875,2421.80078 807.445316,2420.95313 806.742188,2420.25 L804.140625,2417.64844 C803.812498,2417.30469 803.425783,2417.04297 802.980469,2416.86328 C802.535154,2416.68359 802.078127,2416.59375 801.609375,2416.59375 C801.124998,2416.59375 800.664065,2416.68359 800.226562,2416.86328 C799.78906,2417.04297 799.398439,2417.30469 799.054688,2417.64844 L783.609375,2433.09375 L766.453125,2415.96094 C766.062498,2415.57031 765.609378,2415.32031 765.09375,2415.21094 C764.578122,2415.10156 764.078127,2415.14844 763.59375,2415.35156 C763.109373,2415.55469 762.722658,2415.875 762.433594,2416.3125 C762.14453,2416.75 762,2417.24218 762,2417.78906 L762,2458.80469 C762,2459.78907 762.351559,2460.63281 763.054688,2461.33594 C763.757816,2462.03907 764.60937,2462.39062 765.609375,2462.39062 L806.601562,2462.39062 C807.14844,2462.39062 807.644529,2462.25 808.089844,2461.96875 C808.535158,2461.6875 808.859374,2461.29688 809.0625,2460.79688 C809.265626,2460.3125 809.312501,2459.81641 809.203125,2459.30859 C809.093749,2458.80078 808.843752,2458.35156 808.453125,2457.96094 L808.453125,2457.96094 Z M777.609375,2448 L783.609375,2448 C783.765626,2448 783.917968,2447.96875 784.066406,2447.90625 C784.214844,2447.84375 784.343749,2447.75781 784.453125,2447.64844 L784.804688,2447.29688 L790.3125,2452.80469 L772.804688,2452.80469 C772.476561,2452.80469 772.195314,2452.6875 771.960938,2452.45312 C771.726561,2452.21875 771.609375,2451.9375 771.609375,2451.60938 L771.609375,2434.10156 L777.09375,2439.60938 L776.742188,2439.96094 C776.632812,2440.07031 776.546875,2440.19922 776.484375,2440.34766 C776.421875,2440.49609 776.390625,2440.64844 776.390625,2440.80469 L776.390625,2446.80469 C776.390625,2447.13281 776.507811,2447.41406 776.742188,2447.64844 C776.976564,2447.88281 777.265623,2448 777.609375,2448 L777.609375,2448 Z M783.09375,2445.60938 L778.804688,2445.60938 L778.804688,2441.29688 L798,2422.10156 L802.3125,2426.39062 L783.09375,2445.60938 Z M801.609375,2419.00781 C801.765626,2419.00781 801.917968,2419.03516 802.066406,2419.08984 C802.214844,2419.14453 802.343749,2419.22656 802.453125,2419.33594 L805.054688,2421.96094 C805.289064,2422.19531 805.40625,2422.47656 805.40625,2422.80469 C805.40625,2423.13281 805.289064,2423.41406 805.054688,2423.64844 L804,2424.70312 L799.6875,2420.39062 L800.742188,2419.33594 C800.867188,2419.22656 800.999999,2419.14453 801.140625,2419.08984 C801.281251,2419.03516 801.437499,2419.00781 801.609375,2419.00781 L801.609375,2419.00781 Z M806.835938,2459.88281 C806.820312,2459.92969 806.789063,2459.96094 806.742188,2459.97656 C806.695312,2459.99219 806.648438,2460 806.601562,2460 L765.609375,2460 C765.265623,2460 764.976564,2459.88281 764.742188,2459.64844 C764.507811,2459.41406 764.390625,2459.13281 764.390625,2458.80469 L764.390625,2455.19531 L765.609375,2455.19531 C765.937502,2455.19531 766.218749,2455.07813 766.453125,2454.84375 C766.687501,2454.60937 766.804688,2454.32813 766.804688,2454 C766.804688,2453.67187 766.687501,2453.39063 766.453125,2453.15625 C766.218749,2452.92187 765.937502,2452.80469 765.609375,2452.80469 L764.390625,2452.80469 L764.390625,2448 L765.609375,2448 C765.937502,2448 766.218749,2447.88281 766.453125,2447.64844 C766.687501,2447.41406 766.804688,2447.13281 766.804688,2446.80469 C766.804688,2446.47656 766.687501,2446.19531 766.453125,2445.96094 C766.218749,2445.72656 765.937502,2445.60938 765.609375,2445.60938 L764.390625,2445.60938 L764.390625,2440.80469 L765.609375,2440.80469 C765.937502,2440.80469 766.218749,2440.6875 766.453125,2440.45312 C766.687501,2440.21875 766.804688,2439.9375 766.804688,2439.60938 C766.804688,2439.26562 766.687501,2438.97656 766.453125,2438.74219 C766.218749,2438.50781 765.937502,2438.39062 765.609375,2438.39062 L764.390625,2438.39062 L764.390625,2433.60938 L765.609375,2433.60938 C765.937502,2433.60938 766.218749,2433.49219 766.453125,2433.25781 C766.687501,2433.02344 766.804688,2432.73438 766.804688,2432.39062 C766.804688,2432.0625 766.687501,2431.78125 766.453125,2431.54688 C766.218749,2431.3125 765.937502,2431.19531 765.609375,2431.19531 L764.390625,2431.19531 L764.390625,2417.78906 C764.390625,2417.75781 764.398437,2417.71875 764.414062,2417.67188 C764.429688,2417.625 764.460937,2417.58594 764.507812,2417.55469 C764.554688,2417.53906 764.597656,2417.54297 764.636719,2417.56641 C764.675781,2417.58984 764.710937,2417.61719 764.742188,2417.64844 L781.898438,2434.80469 L778.804688,2437.89844 L772.945312,2432.03906 C772.367185,2431.47656 771.851565,2431.19141 771.398438,2431.18359 C770.94531,2431.17578 770.625001,2431.21094 770.4375,2431.28906 C770.249999,2431.36719 769.996095,2431.57031 769.675781,2431.89844 C769.355467,2432.22656 769.195312,2432.79687 769.195312,2433.60938 L769.195312,2451.60938 C769.195312,2452.59375 769.546871,2453.4375 770.25,2454.14062 C770.953129,2454.84375 771.804683,2455.19531 772.804688,2455.19531 L790.804688,2455.19531 C791.617192,2455.19531 792.183592,2455.03516 792.503906,2454.71484 C792.82422,2454.39453 793.023437,2454.14063 793.101562,2453.95312 C793.179688,2453.76562 793.21875,2453.44531 793.21875,2452.99219 C793.21875,2452.53906 792.92969,2452.02344 792.351562,2451.44531 L786.492188,2445.60938 L789.609375,2442.49219 L806.742188,2459.64844 C806.773438,2459.67969 806.800781,2459.71484 806.824219,2459.75391 C806.847656,2459.79297 806.851563,2459.83594 806.835938,2459.88281 L806.835938,2459.88281 Z" id="work"></path>
        </g>
    </g>
</svg>