<?xml version="1.0" encoding="UTF-8"?>
<svg width="46px" height="39px" viewBox="0 0 46 39" version="1.1" xmlns="http://www.w3.org/2000/svg" xmlns:xlink="http://www.w3.org/1999/xlink">
    <!-- Generator: Sketch 42 (36781) - http://www.bohemiancoding.com/sketch -->
    <title>Group 3</title>
    <desc>Created with Sketch.</desc>
    <defs></defs>
    <g id="Page-1" stroke="none" stroke-width="1" fill="none" fill-rule="evenodd">
        <g id="Artboard-4" transform="translate(-799.000000, -331.000000)">
            <g id="Group-3" transform="translate(799.000000, 331.000000)">
                <path d="M42,0.1953125 C43.000005,0.1953125 43.851559,0.546871484 44.5546875,1.25 C45.257816,1.95312852 45.609375,2.8046825 45.609375,3.8046875 L45.609375,27.8046875 C45.609375,28.7890674 45.257816,29.632809 44.5546875,30.3359375 C43.851559,31.039066 43.000005,31.390625 42,31.390625 L24,31.390625 L24,36.1953125 L32.390625,36.1953125 C32.7343767,36.1953125 33.0234363,36.3124988 33.2578125,36.546875 C33.4921887,36.7812512 33.609375,37.0624984 33.609375,37.390625 C33.609375,37.7343767 33.4921887,38.0234363 33.2578125,38.2578125 C33.0234363,38.4921887 32.7343767,38.609375 32.390625,38.609375 L13.1953125,38.609375 C12.8671859,38.609375 12.5859387,38.4921887 12.3515625,38.2578125 C12.1171863,38.0234363 12,37.7343767 12,37.390625 C12,37.0624984 12.1171863,36.7812512 12.3515625,36.546875 C12.5859387,36.3124988 12.8671859,36.1953125 13.1953125,36.1953125 L21.609375,36.1953125 L21.609375,31.390625 L3.609375,31.390625 C2.60937,31.390625 1.75781602,31.039066 1.0546875,30.3359375 C0.351558984,29.632809 0,28.7890674 0,27.8046875 L0,3.8046875 C0,2.8046825 0.351558984,1.95312852 1.0546875,1.25 C1.75781602,0.546871484 2.60937,0.1953125 3.609375,0.1953125 L42,0.1953125 Z M43.1953125,27.8046875 L43.1953125,3.8046875 C43.1953125,3.47656086 43.0781262,3.19531367 42.84375,2.9609375 C42.6093738,2.72656133 42.3281266,2.609375 42,2.609375 L3.609375,2.609375 C3.26562328,2.609375 2.97656367,2.72656133 2.7421875,2.9609375 C2.50781133,3.19531367 2.390625,3.47656086 2.390625,3.8046875 L2.390625,27.8046875 C2.390625,28.1328141 2.50781133,28.4140613 2.7421875,28.6484375 C2.97656367,28.8828137 3.26562328,29 3.609375,29 L42,29 C42.3281266,29 42.6093738,28.8828137 42.84375,28.6484375 C43.0781262,28.4140613 43.1953125,28.1328141 43.1953125,27.8046875 Z" id="-copy" fill="#84909B"></path>
                <rect id="Rectangle-19" fill="#D9DDE1" x="6" y="13" width="14" height="12" rx="1"></rect>
                <rect id="Rectangle-19" fill="#D9DDE1" x="6" y="6" width="34" height="5" rx="1"></rect>
                <rect id="Rectangle-19" fill="#D9DDE1" x="23" y="13" width="17" height="5" rx="1"></rect>
                <rect id="Rectangle-19" fill="#D9DDE1" x="23" y="20" width="17" height="5" rx="1"></rect>
            </g>
        </g>
    </g>
</svg>