<?xml version="1.0" encoding="UTF-8" standalone="no"?>
<svg width="48px" height="49px" viewBox="0 0 48 49" version="1.1" xmlns="http://www.w3.org/2000/svg" xmlns:xlink="http://www.w3.org/1999/xlink">
    <!-- Generator: Sketch 40 (33762) - http://www.bohemiancoding.com/sketch -->
    <title> copy</title>
    <desc>Created with Sketch.</desc>
    <defs></defs>
    <g id="Page-1" stroke="none" stroke-width="1" fill="none" fill-rule="evenodd">
        <g id="Artboard-2-Copy-4" transform="translate(-247.000000, -1700.000000)" fill="#FFFFFF">
            <path d="M248.195312,1748.1875 L248.183594,1748.1875 L248.160156,1748.1875 L248.148438,1748.1875 L248.125,1748.1875 C247.968749,1748.1875 247.820313,1748.15234 247.679688,1748.08203 C247.539062,1748.01172 247.417969,1747.92188 247.316406,1747.8125 C247.214843,1747.70312 247.136719,1747.57422 247.082031,1747.42578 C247.027343,1747.27734 247,1747.125 247,1746.96875 C247.078125,1744.76561 247.281248,1742.62501 247.609375,1740.54688 C247.937502,1738.46874 248.390622,1736.45313 248.96875,1734.5 C249.546878,1732.54687 250.253902,1730.65235 251.089844,1728.81641 C251.925785,1726.98046 252.89062,1725.21876 253.984375,1723.53125 C254.875004,1722.14062 255.847651,1720.79688 256.902344,1719.5 C257.957037,1718.20312 259.093744,1716.95704 260.3125,1715.76172 C261.531256,1714.5664 262.828118,1713.42579 264.203125,1712.33984 C265.578132,1711.2539 267.031242,1710.21875 268.5625,1709.23438 C270.015632,1708.29687 271.457024,1707.45703 272.886719,1706.71484 C274.316413,1705.97265 275.6914,1705.3125 277.011719,1704.73438 C278.332038,1704.15625 279.582025,1703.65235 280.761719,1703.22266 C281.941412,1702.79297 283.007808,1702.42969 283.960938,1702.13281 C285.054693,1701.80469 286.101558,1701.51953 287.101562,1701.27734 C288.101567,1701.03516 289.023433,1700.83203 289.867188,1700.66797 C290.710942,1700.50391 291.468747,1700.38281 292.140625,1700.30469 C292.812503,1700.22656 293.367185,1700.1875 293.804688,1700.1875 C293.960938,1700.1875 294.113281,1700.21875 294.261719,1700.28125 C294.410157,1700.34375 294.539062,1700.42969 294.648438,1700.53906 C294.757813,1700.64844 294.84375,1700.77734 294.90625,1700.92578 C294.96875,1701.07422 295,1701.23437 295,1701.40625 C295,1702.125 294.851564,1702.83203 294.554688,1703.52734 C294.257811,1704.22266 293.89844,1704.87109 293.476562,1705.47266 C293.054685,1706.07422 292.61719,1706.61328 292.164062,1707.08984 C291.710935,1707.56641 291.335939,1707.95312 291.039062,1708.25 C290.57031,1708.73438 290.00391,1709.17578 289.339844,1709.57422 C288.675778,1709.97266 287.953129,1710.34375 287.171875,1710.6875 C286.390621,1711.03125 285.574223,1711.35937 284.722656,1711.67188 C283.871089,1711.98438 283.015629,1712.28906 282.15625,1712.58594 C281.890624,1712.67969 281.625001,1712.77344 281.359375,1712.86719 C281.093749,1712.96094 280.828126,1713.05469 280.5625,1713.14844 C280.296874,1713.24219 280.031251,1713.33594 279.765625,1713.42969 C279.499999,1713.52344 279.242189,1713.625 278.992188,1713.73438 C279.835942,1713.65625 280.667965,1713.59375 281.488281,1713.54688 C282.308598,1713.5 283.078121,1713.46484 283.796875,1713.44141 C284.515629,1713.41797 285.156247,1713.40625 285.71875,1713.40625 L287.078125,1713.40625 L287.207031,1713.40625 L287.3125,1713.40625 L287.382812,1713.40625 L287.40625,1713.40625 C287.515626,1713.40625 287.621093,1713.42187 287.722656,1713.45312 C287.824219,1713.48438 287.921875,1713.52734 288.015625,1713.58203 C288.109375,1713.63672 288.195312,1713.70312 288.273438,1713.78125 C288.351563,1713.85938 288.414062,1713.94531 288.460938,1714.03906 C288.507813,1714.14844 288.542969,1714.25391 288.566406,1714.35547 C288.589844,1714.45703 288.597656,1714.5625 288.589844,1714.67188 C288.582031,1714.78125 288.558594,1714.88672 288.519531,1714.98828 C288.480469,1715.08984 288.429688,1715.1875 288.367188,1715.28125 C287.726559,1716.20313 287.050785,1717.07421 286.339844,1717.89453 C285.628903,1718.71485 284.875004,1719.48828 284.078125,1720.21484 C283.281246,1720.94141 282.445317,1721.62109 281.570312,1722.25391 C280.695308,1722.88672 279.773442,1723.48437 278.804688,1724.04688 C278.35156,1724.29688 277.878909,1724.51562 277.386719,1724.70312 C276.894529,1724.89063 276.375003,1725.04687 275.828125,1725.17188 C275.281247,1725.29688 274.699222,1725.38672 274.082031,1725.44141 C273.464841,1725.49609 272.812503,1725.52344 272.125,1725.52344 C271.765623,1725.52344 271.398439,1725.51563 271.023438,1725.5 C270.648436,1725.48437 270.273439,1725.46484 269.898438,1725.44141 C269.523436,1725.41797 269.148439,1725.39063 268.773438,1725.35938 C268.398436,1725.32812 268.031252,1725.29688 267.671875,1725.26562 C267.312498,1725.23437 266.953127,1725.20703 266.59375,1725.18359 C266.234373,1725.16016 265.875002,1725.13672 265.515625,1725.11328 C265.156248,1725.08984 264.800783,1725.07031 264.449219,1725.05469 C264.097654,1725.03906 263.742189,1725.03125 263.382812,1725.03125 C262.570308,1725.03125 261.820316,1725.07812 261.132812,1725.17188 C260.445309,1725.26563 259.808597,1725.41016 259.222656,1725.60547 C258.636716,1725.80078 258.097659,1726.05078 257.605469,1726.35547 C257.113279,1726.66016 256.664065,1727.02344 256.257812,1727.44531 C254.851555,1728.85157 253.703129,1730.66015 252.8125,1732.87109 C251.921871,1735.08204 251.222659,1737.23436 250.714844,1739.32812 C250.207029,1741.42189 249.859376,1743.23046 249.671875,1744.75391 C249.484374,1746.27735 249.390625,1747.05469 249.390625,1747.08594 C249.375,1747.24219 249.335938,1747.39062 249.273438,1747.53125 C249.210937,1747.67188 249.125001,1747.78906 249.015625,1747.88281 C248.906249,1747.97656 248.781251,1748.05078 248.640625,1748.10547 C248.499999,1748.16016 248.351563,1748.1875 248.195312,1748.1875 L248.195312,1748.1875 Z M292.304688,1702.71875 C291.257807,1702.84375 289.917977,1703.08984 288.285156,1703.45703 C286.652336,1703.82422 284.84376,1704.34765 282.859375,1705.02734 C280.87499,1705.70703 278.769542,1706.55468 276.542969,1707.57031 C274.316395,1708.58594 272.085949,1709.81249 269.851562,1711.25 C268.710932,1711.98438 267.554693,1712.79687 266.382812,1713.6875 C265.210932,1714.57813 264.046881,1715.56249 262.890625,1716.64062 C261.734369,1717.71876 260.605474,1718.89452 259.503906,1720.16797 C258.402338,1721.44141 257.367192,1722.81249 256.398438,1724.28125 C256.976565,1723.92187 257.570309,1723.63281 258.179688,1723.41406 C258.789066,1723.19531 259.390622,1723.02734 259.984375,1722.91016 C260.578128,1722.79297 261.16406,1722.71484 261.742188,1722.67578 C262.320315,1722.63672 262.867185,1722.61719 263.382812,1722.61719 C263.757814,1722.61719 264.132811,1722.625 264.507812,1722.64062 C264.882814,1722.65625 265.257811,1722.67578 265.632812,1722.69922 C266.007814,1722.72266 266.382811,1722.75 266.757812,1722.78125 C267.132814,1722.8125 267.499998,1722.84375 267.859375,1722.875 C268.218752,1722.90625 268.578123,1722.9375 268.9375,1722.96875 C269.296877,1723 269.656248,1723.02734 270.015625,1723.05078 C270.375002,1723.07422 270.730467,1723.09375 271.082031,1723.10938 C271.433596,1723.125 271.781248,1723.13281 272.125,1723.13281 C272.703128,1723.13281 273.249997,1723.10938 273.765625,1723.0625 C274.281253,1723.01562 274.765623,1722.94141 275.21875,1722.83984 C275.671877,1722.73828 276.093748,1722.61719 276.484375,1722.47656 C276.875002,1722.33594 277.249998,1722.16406 277.609375,1721.96094 C278.328129,1721.53906 279.019528,1721.10156 279.683594,1720.64844 C280.34766,1720.19531 280.984372,1719.71485 281.59375,1719.20703 C282.203128,1718.69922 282.785153,1718.16407 283.339844,1717.60156 C283.894534,1717.03906 284.429685,1716.44532 284.945312,1715.82031 C284.195309,1715.83594 283.335942,1715.86719 282.367188,1715.91406 C281.398433,1715.96094 280.402349,1716.02734 279.378906,1716.11328 C278.355464,1716.19922 277.347661,1716.30859 276.355469,1716.44141 C275.363276,1716.57422 274.484379,1716.74219 273.71875,1716.94531 C273.593749,1716.99219 273.468751,1717.01172 273.34375,1717.00391 C273.218749,1716.99609 273.101563,1716.97266 272.992188,1716.93359 C272.882812,1716.89453 272.777344,1716.83594 272.675781,1716.75781 C272.574218,1716.67969 272.492188,1716.59375 272.429688,1716.5 C272.351562,1716.39062 272.292969,1716.27734 272.253906,1716.16016 C272.214844,1716.04297 272.195312,1715.92578 272.195312,1715.80859 C272.195312,1715.69141 272.210937,1715.57422 272.242188,1715.45703 C272.273438,1715.33984 272.328125,1715.23438 272.40625,1715.14062 C272.765627,1714.57812 273.257809,1714.07422 273.882812,1713.62891 C274.507816,1713.18359 275.21484,1712.77344 276.003906,1712.39844 C276.792973,1712.02344 277.644527,1711.66797 278.558594,1711.33203 C279.472661,1710.99609 280.414058,1710.65625 281.382812,1710.3125 C282.164066,1710.04687 282.949215,1709.76953 283.738281,1709.48047 C284.527348,1709.1914 285.273434,1708.89453 285.976562,1708.58984 C286.679691,1708.28515 287.32031,1707.96485 287.898438,1707.62891 C288.476565,1707.29297 288.960936,1706.92969 289.351562,1706.53906 C289.523438,1706.36719 289.742186,1706.14453 290.007812,1705.87109 C290.273439,1705.59765 290.546874,1705.29297 290.828125,1704.95703 C291.109376,1704.62109 291.382811,1704.26172 291.648438,1703.87891 C291.914064,1703.49609 292.132812,1703.10938 292.304688,1702.71875 L292.304688,1702.71875 Z" id="-copy"></path>
        </g>
    </g>
</svg>