<?xml version="1.0" encoding="UTF-8"?>
<svg width="17px" height="25px" viewBox="0 0 17 25" version="1.1" xmlns="http://www.w3.org/2000/svg" xmlns:xlink="http://www.w3.org/1999/xlink">
    <!-- Generator: Sketch 41.2 (35397) - http://www.bohemiancoding.com/sketch -->
    <title>candy</title>
    <desc>Created with Sketch.</desc>
    <defs></defs>
    <g id="Page-1" stroke="none" stroke-width="1" fill="none" fill-rule="evenodd">
        <g id="Artboard-2-Copy-4" transform="translate(-631.000000, -2750.000000)" fill="#FFFFFF">
            <g id="Group-10" transform="translate(623.000000, 2749.265625)">
                <path d="M16.4023438,25.1953125 C16.2382804,25.1953125 16.0976568,25.1367193 15.9804688,25.0195312 C15.8632807,24.9023432 15.8046875,24.7617196 15.8046875,24.5976562 L15.8046875,16.78125 C14.79687,16.7031246 13.8554731,16.4453147 12.9804688,16.0078125 C12.1054644,15.5703103 11.3437532,15.0039097 10.6953125,14.3085938 C10.0468718,13.6132778 9.53515812,12.8105514 9.16015625,11.9003906 C8.78515438,10.9902298 8.59765625,10.0234426 8.59765625,9 C8.59765625,7.92186961 8.80273232,6.91016098 9.21289062,5.96484375 C9.62304893,5.01952652 10.1816371,4.19336291 10.8886719,3.48632812 C11.5957067,2.77929334 12.4218703,2.22070518 13.3671875,1.81054688 C14.3125047,1.40038857 15.3242134,1.1953125 16.4023438,1.1953125 C17.4726616,1.1953125 18.4824171,1.40038857 19.4316406,1.81054688 C20.3808641,2.22070518 21.2089808,2.77929334 21.9160156,3.48632812 C22.6230504,4.19336291 23.1796855,5.01952652 23.5859375,5.96484375 C23.9921895,6.91016098 24.1953125,7.92186961 24.1953125,9 C24.1953125,10.0234426 24.0097675,10.9902298 23.6386719,11.9003906 C23.2675763,12.8105514 22.7578157,13.6132778 22.109375,14.3085938 C21.4609343,15.0039097 20.6992231,15.5703103 19.8242188,16.0078125 C18.9492144,16.4453147 18.0078175,16.7031246 17,16.78125 L17,24.5976562 C17,24.7617196 16.9414068,24.9023432 16.8242188,25.0195312 C16.7070307,25.1367193 16.5664071,25.1953125 16.4023438,25.1953125 Z M16.4023438,7.1953125 C15.8242159,7.1953125 15.2792994,7.30663951 14.7675781,7.52929688 C14.2558568,7.75195424 13.8105488,8.05273248 13.4316406,8.43164062 C13.0527325,8.81054877 12.7519542,9.25585682 12.5292969,9.76757812 C12.3066395,10.2792994 12.1953125,10.8242159 12.1953125,11.4023438 C12.1953125,11.9804716 12.3066395,12.523435 12.5292969,13.03125 C12.7519542,13.539065 13.0527325,13.9843731 13.4316406,14.3671875 C13.8105488,14.7500019 14.2558568,15.0507802 14.7675781,15.2695312 C15.2792994,15.4882823 15.8242159,15.5976562 16.4023438,15.5976562 C17.3085983,15.5976562 18.1621054,15.425783 18.9628906,15.0820312 C19.7636759,14.7382795 20.4628876,14.2675811 21.0605469,13.6699219 C21.6582061,13.0722626 22.1308576,12.3710978 22.4785156,11.5664062 C22.8261736,10.7617147 23,9.90625453 23,9 C23,8.09374547 22.8261736,7.23828527 22.4785156,6.43359375 C22.1308576,5.62890223 21.6582061,4.92773736 21.0605469,4.33007812 C20.4628876,3.73241889 19.7636759,3.26172047 18.9628906,2.91796875 C18.1621054,2.57421703 17.3085983,2.40234375 16.4023438,2.40234375 C15.4882767,2.40234375 14.6308634,2.57421703 13.8300781,2.91796875 C13.0292929,3.26172047 12.3300811,3.73241889 11.7324219,4.33007812 C11.1347626,4.92773736 10.6640642,5.62890223 10.3203125,6.43359375 C9.97656078,7.23828527 9.8046875,8.09374547 9.8046875,9 C9.8046875,9.39843949 9.83789029,9.78710748 9.90429688,10.1660156 C9.97070346,10.5449238 10.0683587,10.9101545 10.1972656,11.2617188 C10.3261725,11.613283 10.4843741,11.9511703 10.671875,12.2753906 C10.8593759,12.599611 11.0703113,12.9062486 11.3046875,13.1953125 C11.2031245,12.9140611 11.1269534,12.6230484 11.0761719,12.3222656 C11.0253904,12.0214829 11,11.7148453 11,11.4023438 C11,10.6601525 11.1425767,9.96094078 11.4277344,9.3046875 C11.7128921,8.64843422 12.0996069,8.07617432 12.5878906,7.58789062 C13.0761743,7.09960693 13.6484342,6.71289205 14.3046875,6.42773438 C14.9609408,6.1425767 15.6601525,6 16.4023438,6 C16.8945337,6 17.3593728,6.09374906 17.796875,6.28125 C18.2343772,6.46875094 18.6171859,6.72656086 18.9453125,7.0546875 C19.2734391,7.38281414 19.5312491,7.76562281 19.71875,8.203125 C19.9062509,8.64062719 20,9.10546629 20,9.59765625 C20,10.0976588 19.9062509,10.5664041 19.71875,11.0039062 C19.5312491,11.4414084 19.2734391,11.822264 18.9453125,12.1464844 C18.6171859,12.4707047 18.2343772,12.7265616 17.796875,12.9140625 C17.3593728,13.1015634 16.8945337,13.1953125 16.4023438,13.1953125 C15.9023412,13.1953125 15.4765643,13.019533 15.125,12.6679688 C14.7734357,12.3164045 14.5976562,11.8945337 14.5976562,11.4023438 C14.5976562,10.9023412 14.7734357,10.4765643 15.125,10.125 C15.4765643,9.77343574 15.9023412,9.59765625 16.4023438,9.59765625 C16.5664071,9.59765625 16.7070307,9.65624941 16.8242188,9.7734375 C16.9414068,9.89062559 17,10.0312492 17,10.1953125 C17,10.3671884 16.9414068,10.5117182 16.8242188,10.6289062 C16.7070307,10.7460943 16.5664071,10.8046875 16.4023438,10.8046875 C16.2382804,10.8046875 16.0976568,10.8632807 15.9804688,10.9804688 C15.8632807,11.0976568 15.8046875,11.2382804 15.8046875,11.4023438 C15.8046875,11.5664071 15.8632807,11.7070307 15.9804688,11.8242188 C16.0976568,11.9414068 16.2382804,12 16.4023438,12 C16.7304704,12 17.0410142,11.9375006 17.3339844,11.8125 C17.6269546,11.6874994 17.8808583,11.5156261 18.0957031,11.296875 C18.3105479,11.0781239 18.4824212,10.8242202 18.6113281,10.5351562 C18.740235,10.2460923 18.8046875,9.93359543 18.8046875,9.59765625 C18.8046875,9.26952961 18.740235,8.95898584 18.6113281,8.66601562 C18.4824212,8.37304541 18.3105479,8.1191417 18.0957031,7.90429688 C17.8808583,7.68945205 17.6269546,7.51757877 17.3339844,7.38867188 C17.0410142,7.25976498 16.7304704,7.1953125 16.4023438,7.1953125 Z" id="candy"></path>
            </g>
        </g>
    </g>
</svg>