<?xml version="1.0" encoding="UTF-8"?>
<svg width="46px" height="29px" viewBox="0 0 46 29" version="1.1" xmlns="http://www.w3.org/2000/svg" xmlns:xlink="http://www.w3.org/1999/xlink">
    <!-- Generator: Sketch 41.1 (35376) - http://www.bohemiancoding.com/sketch -->
    <title>chaddi</title>
    <desc>Created with Sketch.</desc>
    <defs></defs>
    <g id="Page-1" stroke="none" stroke-width="1" fill="none" fill-rule="evenodd">
        <g id="Artboard-2-Copy-4" transform="translate(-542.000000, -1375.000000)" fill="#FFFFFF">
            <path d="M587.515625,1394.96875 L580.320312,1375.77344 C580.242187,1375.53906 580.097657,1375.35156 579.886719,1375.21094 C579.67578,1375.07031 579.445314,1375 579.195312,1375 L550.390625,1375 C550.140624,1375 549.914064,1375.07031 549.710938,1375.21094 C549.507811,1375.35156 549.359375,1375.53906 549.265625,1375.77344 L542.070312,1394.96875 C541.960937,1395.26563 541.964843,1395.55469 542.082031,1395.83594 C542.199219,1396.11719 542.390624,1396.32812 542.65625,1396.46875 L557.070312,1403.66406 C557.320314,1403.80469 557.585936,1403.83984 557.867188,1403.76953 C558.148439,1403.69922 558.382812,1403.54688 558.570312,1403.3125 L564.804688,1394.99219 L571.039062,1403.3125 C571.148438,1403.46875 571.289062,1403.58984 571.460938,1403.67578 C571.632813,1403.76172 571.812499,1403.80469 572,1403.80469 C572.09375,1403.80469 572.183593,1403.79297 572.269531,1403.76953 C572.355469,1403.74609 572.445312,1403.71094 572.539062,1403.66406 L586.929688,1396.46875 C587.210939,1396.32812 587.406249,1396.11719 587.515625,1395.83594 C587.625001,1395.55469 587.625001,1395.26563 587.515625,1394.96875 Z M551.234375,1377.39062 L578.375,1377.39062 L579.265625,1379.80469 L550.320312,1379.80469 L551.234375,1377.39062 Z M572.351562,1401.08594 L565.765625,1392.27344 C565.656249,1392.13281 565.515626,1392.01953 565.34375,1391.93359 C565.171874,1391.84766 564.992188,1391.80469 564.804688,1391.80469 C564.617187,1391.80469 564.437501,1391.84766 564.265625,1391.93359 C564.093749,1392.01953 563.953126,1392.13281 563.84375,1392.27344 L557.234375,1401.08594 L544.695312,1394.80469 L549.429688,1382.19531 L560.421875,1382.19531 C560.359375,1382.28906 560.292969,1382.38281 560.222656,1382.47656 C560.152343,1382.57031 560.085938,1382.66406 560.023438,1382.75781 C559.60156,1383.42969 559.300782,1384.05078 559.121094,1384.62109 C558.941405,1385.19141 558.84375,1385.48437 558.828125,1385.5 C558.75,1385.82813 558.796874,1386.13281 558.96875,1386.41406 C559.140626,1386.69531 559.390623,1386.875 559.71875,1386.95312 C560.031252,1387.04688 560.33203,1387.00781 560.621094,1386.83594 C560.910158,1386.66406 561.09375,1386.41406 561.171875,1386.08594 L561.371094,1385.47656 C561.503907,1385.07031 561.718749,1384.625 562.015625,1384.14062 C562.312501,1383.65625 562.687498,1383.21094 563.140625,1382.80469 C563.593752,1382.39844 564.148434,1382.19531 564.804688,1382.19531 C565.445316,1382.19531 565.996091,1382.39453 566.457031,1382.79297 C566.917971,1383.19141 567.292967,1383.63281 567.582031,1384.11719 C567.871095,1384.60156 568.085937,1385.04687 568.226562,1385.45312 C568.367188,1385.85938 568.4375,1386.07031 568.4375,1386.08594 C568.5,1386.36719 568.640624,1386.58984 568.859375,1386.75391 C569.078126,1386.91797 569.328124,1387 569.609375,1387 C569.65625,1387 569.703125,1386.99609 569.75,1386.98828 C569.796875,1386.98047 569.84375,1386.96875 569.890625,1386.95312 C570.218752,1386.875 570.464843,1386.69531 570.628906,1386.41406 C570.79297,1386.13281 570.835938,1385.82813 570.757812,1385.5 C570.757812,1385.48437 570.664063,1385.19141 570.476562,1384.62109 C570.289062,1384.05078 569.984377,1383.42969 569.5625,1382.75781 L569.1875,1382.19531 L580.179688,1382.19531 L584.890625,1394.80469 L572.351562,1401.08594 Z" id="chaddi"></path>
        </g>
    </g>
</svg>