<?xml version="1.0" encoding="UTF-8"?>
<svg width="48px" height="44px" viewBox="0 0 48 44" version="1.1" xmlns="http://www.w3.org/2000/svg" xmlns:xlink="http://www.w3.org/1999/xlink">
    <!-- Generator: Sketch 41.1 (35376) - http://www.bohemiancoding.com/sketch -->
    <title>couch</title>
    <desc>Created with Sketch.</desc>
    <defs></defs>
    <g id="Page-1" stroke="none" stroke-width="1" fill="none" fill-rule="evenodd">
        <g id="Artboard-2-Copy-4" transform="translate(-978.000000, -882.000000)" fill="#FFFFFF">
            <path d="M988.804688,926 L986.390625,926 C986.062498,926 985.781251,925.882814 985.546875,925.648438 C985.312499,925.414061 985.195312,925.132814 985.195312,924.804688 C985.195312,924.476561 985.312499,924.195314 985.546875,923.960938 C985.781251,923.726561 986.062498,923.609375 986.390625,923.609375 L988.804688,923.609375 C989.132814,923.609375 989.414061,923.726561 989.648438,923.960938 C989.882814,924.195314 990,924.476561 990,924.804688 C990,925.132814 989.882814,925.414061 989.648438,925.648438 C989.414061,925.882814 989.132814,926 988.804688,926 Z M1017.60938,926 L1015.19531,926 C1014.86719,926 1014.58594,925.882814 1014.35156,925.648438 C1014.11719,925.414061 1014,925.132814 1014,924.804688 C1014,924.476561 1014.11719,924.195314 1014.35156,923.960938 C1014.58594,923.726561 1014.86719,923.609375 1015.19531,923.609375 L1017.60938,923.609375 C1017.9375,923.609375 1018.21875,923.726561 1018.45312,923.960938 C1018.6875,924.195314 1018.80469,924.476561 1018.80469,924.804688 C1018.80469,925.132814 1018.6875,925.414061 1018.45312,925.648438 C1018.21875,925.882814 1017.9375,926 1017.60938,926 Z M1021.17188,897.3125 C1021.85938,897.453126 1022.5,897.703123 1023.09375,898.0625 C1023.6875,898.421877 1024.19922,898.859372 1024.62891,899.375 C1025.0586,899.890628 1025.39453,900.476559 1025.63672,901.132812 C1025.87891,901.789066 1026,902.476559 1026,903.195312 C1026,903.929691 1025.87891,904.621091 1025.63672,905.269531 C1025.39453,905.917972 1025.0586,906.499997 1024.62891,907.015625 C1024.19922,907.531253 1023.69141,907.968748 1023.10547,908.328125 C1022.51953,908.687502 1021.88282,908.937499 1021.19531,909.078125 L1021.19531,920 C1021.19531,921.000005 1020.84375,921.851559 1020.14062,922.554688 C1019.4375,923.257816 1018.59375,923.609375 1017.60938,923.609375 L986.390625,923.609375 C985.406245,923.609375 984.562504,923.257816 983.859375,922.554688 C983.156246,921.851559 982.804688,921.000005 982.804688,920 L982.804688,909.078125 C982.117184,908.937499 981.480472,908.687502 980.894531,908.328125 C980.308591,907.968748 979.800783,907.531253 979.371094,907.015625 C978.941404,906.499997 978.60547,905.917972 978.363281,905.269531 C978.121093,904.621091 978,903.929691 978,903.195312 C978,902.476559 978.121093,901.789066 978.363281,901.132812 C978.60547,900.476559 978.941404,899.890628 979.371094,899.375 C979.800783,898.859372 980.312497,898.421877 980.90625,898.0625 C981.500003,897.703123 982.140622,897.453126 982.828125,897.3125 C982.859375,895.812492 982.999999,894.441412 983.25,893.199219 C983.500001,891.957025 983.85156,890.835942 984.304688,889.835938 C984.757815,888.835933 985.316403,887.957035 985.980469,887.199219 C986.644535,886.441402 987.421871,885.781253 988.3125,885.21875 C989.140629,884.718747 990.035151,884.312502 990.996094,884 C991.957036,883.687498 992.999994,883.441407 994.125,883.261719 C995.250006,883.08203 996.468743,882.960938 997.78125,882.898438 C999.093757,882.835937 1000.49999,882.804688 1002,882.804688 C1003.50001,882.804688 1004.90624,882.835937 1006.21875,882.898438 C1007.53126,882.960938 1008.74999,883.08203 1009.875,883.261719 C1011.00001,883.441407 1012.04296,883.687498 1013.00391,884 C1013.96485,884.312502 1014.85937,884.718747 1015.6875,885.21875 C1016.57813,885.781253 1017.35547,886.441402 1018.01953,887.199219 C1018.6836,887.957035 1019.24219,888.835933 1019.69531,889.835938 C1020.14844,890.835942 1020.5,891.957025 1020.75,893.199219 C1021,894.441412 1021.14062,895.812492 1021.17188,897.3125 Z M989.578125,887.28125 C988.874996,887.703127 988.261721,888.226559 987.738281,888.851562 C987.214841,889.476566 986.773439,890.203121 986.414062,891.03125 C986.054686,891.859379 985.777345,892.79687 985.582031,893.84375 C985.386718,894.89063 985.265625,896.054681 985.21875,897.335938 C985.906253,897.476563 986.53906,897.722654 987.117188,898.074219 C987.695315,898.425783 988.199217,898.863279 988.628906,899.386719 C989.058596,899.910159 989.39453,900.496091 989.636719,901.144531 C989.878907,901.792972 990,902.476559 990,903.195312 L990,906.804688 L1014,906.804688 L1014,903.195312 C1014,902.476559 1014.12109,901.792972 1014.36328,901.144531 C1014.60547,900.496091 1014.9414,899.910159 1015.37109,899.386719 C1015.80078,898.863279 1016.30468,898.425783 1016.88281,898.074219 C1017.46094,897.722654 1018.09375,897.476563 1018.78125,897.335938 C1018.73437,896.054681 1018.61328,894.89063 1018.41797,893.84375 C1018.22266,892.79687 1017.94531,891.859379 1017.58594,891.03125 C1017.22656,890.203121 1016.78516,889.476566 1016.26172,888.851562 C1015.73828,888.226559 1015.125,887.703127 1014.42188,887.28125 C1013.71875,886.843748 1012.94141,886.488283 1012.08984,886.214844 C1011.23828,885.941405 1010.29688,885.730469 1009.26562,885.582031 C1008.23437,885.433593 1007.11719,885.332032 1005.91406,885.277344 C1004.71093,885.222656 1003.40626,885.195312 1002,885.195312 C1000.59374,885.195312 999.289069,885.222656 998.085938,885.277344 C996.882806,885.332032 995.76563,885.433593 994.734375,885.582031 C993.70312,885.730469 992.761723,885.941405 991.910156,886.214844 C991.058589,886.488283 990.281254,886.843748 989.578125,887.28125 Z M990,912.804688 C990,913.132814 990.117186,913.414061 990.351562,913.648438 C990.585939,913.882814 990.867186,914 991.195312,914 L1012.80469,914 C1013.13281,914 1013.41406,913.882814 1013.64844,913.648438 C1013.88281,913.414061 1014,913.132814 1014,912.804688 L1014,909.195312 L990,909.195312 L990,912.804688 Z M1020,906.804688 C1021,906.804688 1021.85156,906.453129 1022.55469,905.75 C1023.25782,905.046871 1023.60938,904.195317 1023.60938,903.195312 C1023.60938,902.210933 1023.25782,901.367191 1022.55469,900.664062 C1021.85156,899.960934 1021,899.609375 1020,899.609375 C1019,899.609375 1018.14844,899.960934 1017.44531,900.664062 C1016.74218,901.367191 1016.39062,902.210933 1016.39062,903.195312 L1016.39062,912.804688 C1016.39062,913.789067 1016.03907,914.632809 1015.33594,915.335938 C1014.63281,916.039066 1013.78907,916.390625 1012.80469,916.390625 L991.195312,916.390625 C990.210933,916.390625 989.367191,916.039066 988.664062,915.335938 C987.960934,914.632809 987.609375,913.789067 987.609375,912.804688 L987.609375,903.195312 C987.609375,902.210933 987.257816,901.367191 986.554688,900.664062 C985.851559,899.960934 985.000005,899.609375 984,899.609375 C982.999995,899.609375 982.148441,899.960934 981.445312,900.664062 C980.742184,901.367191 980.390625,902.210933 980.390625,903.195312 C980.390625,904.195317 980.742184,905.046871 981.445312,905.75 C982.148441,906.453129 982.999995,906.804688 984,906.804688 C984.328127,906.804688 984.609374,906.921874 984.84375,907.15625 C985.078126,907.390626 985.195312,907.671873 985.195312,908 L985.195312,920 C985.195312,920.328127 985.312499,920.609374 985.546875,920.84375 C985.781251,921.078126 986.062498,921.195312 986.390625,921.195312 L1017.60938,921.195312 C1017.9375,921.195312 1018.21875,921.078126 1018.45312,920.84375 C1018.6875,920.609374 1018.80469,920.328127 1018.80469,920 L1018.80469,908 C1018.80469,907.671873 1018.92187,907.390626 1019.15625,907.15625 C1019.39063,906.921874 1019.67187,906.804688 1020,906.804688 Z M1015.19531,894.804688 C1015.52344,894.804688 1015.80469,894.921874 1016.03906,895.15625 C1016.27344,895.390626 1016.39062,895.671873 1016.39062,896 C1016.39062,896.328127 1016.27344,896.609374 1016.03906,896.84375 C1015.80469,897.078126 1015.52344,897.195312 1015.19531,897.195312 L1014,897.195312 C1013.34375,897.195312 1012.72266,897.320311 1012.13672,897.570312 C1011.55078,897.820314 1011.03906,898.16406 1010.60156,898.601562 C1010.16406,899.039065 1009.82031,899.550778 1009.57031,900.136719 C1009.32031,900.722659 1009.19531,901.343747 1009.19531,902 L1009.19531,903.195312 C1009.19531,903.523439 1009.07813,903.804686 1008.84375,904.039062 C1008.60937,904.273439 1008.32813,904.390625 1008,904.390625 C1007.67187,904.390625 1007.39063,904.273439 1007.15625,904.039062 C1006.92187,903.804686 1006.80469,903.523439 1006.80469,903.195312 L1006.80469,902 C1006.80469,901.343747 1006.67969,900.722659 1006.42969,900.136719 C1006.17969,899.550778 1005.83594,899.039065 1005.39844,898.601562 C1004.96094,898.16406 1004.44922,897.820314 1003.86328,897.570312 C1003.27734,897.320311 1002.65625,897.195312 1002,897.195312 C1001.34375,897.195312 1000.72266,897.320311 1000.13672,897.570312 C999.550778,897.820314 999.039065,898.16406 998.601562,898.601562 C998.16406,899.039065 997.820314,899.550778 997.570312,900.136719 C997.320311,900.722659 997.195312,901.343747 997.195312,902 L997.195312,903.195312 C997.195312,903.523439 997.078126,903.804686 996.84375,904.039062 C996.609374,904.273439 996.328127,904.390625 996,904.390625 C995.671873,904.390625 995.390626,904.273439 995.15625,904.039062 C994.921874,903.804686 994.804688,903.523439 994.804688,903.195312 L994.804688,902 C994.804688,901.343747 994.679689,900.722659 994.429688,900.136719 C994.179686,899.550778 993.83594,899.039065 993.398438,898.601562 C992.960935,898.16406 992.449222,897.820314 991.863281,897.570312 C991.277341,897.320311 990.656253,897.195312 990,897.195312 L988.804688,897.195312 C988.476561,897.195312 988.195314,897.078126 987.960938,896.84375 C987.726561,896.609374 987.609375,896.328127 987.609375,896 C987.609375,895.671873 987.726561,895.390626 987.960938,895.15625 C988.195314,894.921874 988.476561,894.804688 988.804688,894.804688 L990,894.804688 C990.656253,894.804688 991.277341,894.679689 991.863281,894.429688 C992.449222,894.179686 992.960935,893.83594 993.398438,893.398438 C993.83594,892.960935 994.179686,892.449222 994.429688,891.863281 C994.679689,891.277341 994.804688,890.656253 994.804688,890 L994.804688,888.804688 C994.804688,888.476561 994.921874,888.195314 995.15625,887.960938 C995.390626,887.726561 995.671873,887.609375 996,887.609375 C996.328127,887.609375 996.609374,887.726561 996.84375,887.960938 C997.078126,888.195314 997.195312,888.476561 997.195312,888.804688 L997.195312,890 C997.195312,890.656253 997.320311,891.277341 997.570312,891.863281 C997.820314,892.449222 998.16406,892.960935 998.601562,893.398438 C999.039065,893.83594 999.550778,894.179686 1000.13672,894.429688 C1000.72266,894.679689 1001.34375,894.804688 1002,894.804688 C1002.65625,894.804688 1003.27734,894.679689 1003.86328,894.429688 C1004.44922,894.179686 1004.96094,893.83594 1005.39844,893.398438 C1005.83594,892.960935 1006.17969,892.449222 1006.42969,891.863281 C1006.67969,891.277341 1006.80469,890.656253 1006.80469,890 L1006.80469,888.804688 C1006.80469,888.476561 1006.92187,888.195314 1007.15625,887.960938 C1007.39063,887.726561 1007.67187,887.609375 1008,887.609375 C1008.32813,887.609375 1008.60937,887.726561 1008.84375,887.960938 C1009.07813,888.195314 1009.19531,888.476561 1009.19531,888.804688 L1009.19531,890 C1009.19531,890.656253 1009.32031,891.277341 1009.57031,891.863281 C1009.82031,892.449222 1010.16406,892.960935 1010.60156,893.398438 C1011.03906,893.83594 1011.55078,894.179686 1012.13672,894.429688 C1012.72266,894.679689 1013.34375,894.804688 1014,894.804688 L1015.19531,894.804688 Z M996,898.015625 C996.265626,897.624998 996.570311,897.257814 996.914062,896.914062 C997.257814,896.570311 997.624998,896.265626 998.015625,896 C997.624998,895.734374 997.257814,895.429689 996.914062,895.085938 C996.570311,894.742186 996.265626,894.375002 996,893.984375 C995.734374,894.375002 995.429689,894.742186 995.085938,895.085938 C994.742186,895.429689 994.375002,895.734374 993.984375,896 C994.375002,896.265626 994.742186,896.570311 995.085938,896.914062 C995.429689,897.257814 995.734374,897.624998 996,898.015625 Z M1008,898.015625 C1008.26563,897.624998 1008.57031,897.257814 1008.91406,896.914062 C1009.25781,896.570311 1009.625,896.265626 1010.01562,896 C1009.625,895.734374 1009.25781,895.429689 1008.91406,895.085938 C1008.57031,894.742186 1008.26563,894.375002 1008,893.984375 C1007.73437,894.375002 1007.42969,894.742186 1007.08594,895.085938 C1006.74219,895.429689 1006.375,895.734374 1005.98438,896 C1006.375,896.265626 1006.74219,896.570311 1007.08594,896.914062 C1007.42969,897.257814 1007.73437,897.624998 1008,898.015625 Z" id="couch"></path>
        </g>
    </g>
</svg>