<?xml version="1.0" encoding="UTF-8" standalone="no"?>
<svg width="7px" height="7px" viewBox="0 0 7 7" version="1.1" xmlns="http://www.w3.org/2000/svg" xmlns:xlink="http://www.w3.org/1999/xlink">
    <!-- Generator: Sketch 39.1 (31720) - http://www.bohemiancoding.com/sketch -->
    <title>Path</title>
    <desc>Created with Sketch.</desc>
    <defs></defs>
    <g id="Page-1" stroke="none" stroke-width="1" fill="none" fill-rule="evenodd">
        <g id="Onboarding-template" transform="translate(-686.000000, -438.000000)" fill="#E19F7B">
            <g id="Group-16" transform="translate(556.000000, 271.000000)">
                <g id="Group-11" transform="translate(0.000000, 166.000000)">
                    <path d="M132.828031,5.77199133 L131.340612,7.25925155 C131.131602,7.46826072 130.789515,7.46826072 130.580665,7.25925155 L130.156757,6.83534339 C129.947748,6.62649341 129.947748,6.28440605 130.156757,6.07523769 L131.644017,4.58797747 C131.853026,4.3789683 131.853026,4.03688094 131.644017,3.82803096 L130.156757,2.34061155 C129.947748,2.13160239 129.947748,1.78951502 130.156757,1.58066504 L130.580665,1.15675688 C130.789515,0.947906892 131.131602,0.947906892 131.340612,1.15675688 L132.828031,2.64417628 C133.03704,2.85302627 133.379127,2.85302627 133.587977,2.64417628 L135.075397,1.15675688 C135.284406,0.947747708 135.626493,0.947747708 135.835503,1.15675688 L136.259252,1.58050586 C136.468261,1.78935584 136.468261,2.13160239 136.259252,2.34061155 L134.771832,3.82803096 C134.562982,4.03688094 134.562982,4.3789683 134.771832,4.58797747 L136.259252,6.07555606 C136.468261,6.28440605 136.468261,6.62649341 136.259252,6.83534339 L135.835343,7.25941074 C135.626493,7.46826072 135.284406,7.46826072 135.075397,7.25941074 L133.587977,5.77199133 C133.379127,5.56298217 133.037199,5.56298217 132.828031,5.77199133 L132.828031,5.77199133" id="Path"></path>
                </g>
            </g>
        </g>
    </g>
</svg>