<?xml version="1.0" encoding="UTF-8"?>
<svg width="22px" height="47px" viewBox="0 0 22 47" version="1.1" xmlns="http://www.w3.org/2000/svg" xmlns:xlink="http://www.w3.org/1999/xlink">
    <!-- Generator: Sketch 41.1 (35376) - http://www.bohemiancoding.com/sketch -->
    <title>dna</title>
    <desc>Created with Sketch.</desc>
    <defs></defs>
    <g id="Page-1" stroke="none" stroke-width="1" fill="none" fill-rule="evenodd">
        <g id="Artboard-2-Copy-4" transform="translate(-910.000000, -1367.000000)" fill="#FFFFFF">
            <path d="M914.945312,1385.5 C915.789067,1384.8125 916.769526,1384.19922 917.886719,1383.66016 C919.003912,1383.12109 920.132807,1382.60156 921.273438,1382.10156 C921.882816,1381.83594 922.496091,1381.56641 923.113281,1381.29297 C923.730472,1381.01953 924.332028,1380.73047 924.917969,1380.42578 C925.503909,1380.12109 926.07031,1379.80078 926.617188,1379.46484 C927.164065,1379.1289 927.679685,1378.76563 928.164062,1378.375 C928.74219,1377.90625 929.246092,1377.41016 929.675781,1376.88672 C930.105471,1376.36328 930.460936,1375.8125 930.742188,1375.23438 C931.023439,1374.65625 931.238281,1374.04688 931.386719,1373.40625 C931.535157,1372.76562 931.609375,1372.09375 931.609375,1371.39062 L931.609375,1369 C931.609375,1368.67187 931.492189,1368.39063 931.257812,1368.15625 C931.023436,1367.92187 930.734377,1367.80469 930.390625,1367.80469 C930.062498,1367.80469 929.781251,1367.92187 929.546875,1368.15625 C929.312499,1368.39063 929.195312,1368.67187 929.195312,1369 L929.195312,1371.39062 C929.195312,1371.54688 929.191406,1371.69531 929.183594,1371.83594 C929.175781,1371.97656 929.164063,1372.11719 929.148438,1372.25781 L911.5,1367.82812 C911.453125,1367.82812 911.402344,1367.82422 911.347656,1367.81641 C911.292968,1367.80859 911.242188,1367.80469 911.195312,1367.80469 C910.867186,1367.80469 910.585939,1367.92187 910.351562,1368.15625 C910.117186,1368.39063 910,1368.67187 910,1369 L910,1371.39062 C910,1372.53126 910.167967,1373.53906 910.503906,1374.41406 C910.839845,1375.28907 911.265622,1376.05468 911.78125,1376.71094 C912.296878,1377.36719 912.863278,1377.93359 913.480469,1378.41016 C914.097659,1378.88672 914.687497,1379.28906 915.25,1379.61719 C915.359376,1379.67969 915.464843,1379.72656 915.566406,1379.75781 C915.667969,1379.78906 915.773437,1379.80469 915.882812,1379.80469 C916.085939,1379.80469 916.277343,1379.75391 916.457031,1379.65234 C916.63672,1379.55078 916.789062,1379.40625 916.914062,1379.21875 C917.085938,1378.9375 917.128907,1378.63672 917.042969,1378.31641 C916.957031,1377.99609 916.773439,1377.75 916.492188,1377.57812 C915.05468,1376.70312 914.011722,1375.78125 913.363281,1374.8125 C912.714841,1373.84375 912.390625,1372.70313 912.390625,1371.39062 L912.390625,1370.54688 L928.398438,1374.53125 C928.179686,1374.89063 927.925783,1375.23437 927.636719,1375.5625 C927.347655,1375.89063 927.015627,1376.20312 926.640625,1376.5 C925.812496,1377.1875 924.835943,1377.80078 923.710938,1378.33984 C922.585932,1378.87891 921.453131,1379.39844 920.3125,1379.89844 C919.703122,1380.16406 919.093753,1380.43359 918.484375,1380.70703 C917.874997,1380.98047 917.277347,1381.26953 916.691406,1381.57422 C916.105466,1381.87891 915.539065,1382.19922 914.992188,1382.53516 C914.44531,1382.8711 913.92969,1383.23437 913.445312,1383.625 C912.867185,1384.09375 912.363283,1384.58984 911.933594,1385.11328 C911.503904,1385.63672 911.144533,1386.1875 910.855469,1386.76562 C910.566405,1387.34375 910.351563,1387.95312 910.210938,1388.59375 C910.070312,1389.23438 910,1389.90625 910,1390.60938 C910,1391.73438 910.167967,1392.73437 910.503906,1393.60938 C910.839845,1394.48438 911.265622,1395.25 911.78125,1395.90625 C912.296878,1396.5625 912.863278,1397.1289 913.480469,1397.60547 C914.097659,1398.08203 914.687497,1398.49219 915.25,1398.83594 C915.359376,1398.88281 915.464843,1398.92187 915.566406,1398.95312 C915.667969,1398.98438 915.773437,1399 915.882812,1399 C916.085939,1399 916.277343,1398.94922 916.457031,1398.84766 C916.63672,1398.74609 916.789062,1398.60156 916.914062,1398.41406 C917.085938,1398.13281 917.128907,1397.83203 917.042969,1397.51172 C916.957031,1397.1914 916.773439,1396.94531 916.492188,1396.77344 C915.05468,1395.91406 914.011722,1394.9961 913.363281,1394.01953 C912.714841,1393.04296 912.390625,1391.90626 912.390625,1390.60938 C912.390625,1390.45312 912.394531,1390.30469 912.402344,1390.16406 C912.410156,1390.02344 912.429687,1389.88281 912.460938,1389.74219 L928.398438,1393.72656 C928.179686,1394.08594 927.925783,1394.42969 927.636719,1394.75781 C927.347655,1395.08594 927.015627,1395.39844 926.640625,1395.69531 C925.812496,1396.38282 924.835943,1396.99609 923.710938,1397.53516 C922.585932,1398.07422 921.453131,1398.59375 920.3125,1399.09375 C919.703122,1399.35938 919.093753,1399.63281 918.484375,1399.91406 C917.874997,1400.19531 917.277347,1400.48437 916.691406,1400.78125 C916.105466,1401.07813 915.539065,1401.39453 914.992188,1401.73047 C914.44531,1402.06641 913.92969,1402.42969 913.445312,1402.82031 C912.867185,1403.30469 912.363283,1403.80468 911.933594,1404.32031 C911.503904,1404.83594 911.144533,1405.38281 910.855469,1405.96094 C910.566405,1406.53907 910.351563,1407.14843 910.210938,1407.78906 C910.070312,1408.42969 910,1409.10156 910,1409.80469 L910,1412.19531 C910,1412.52344 910.117186,1412.80469 910.351562,1413.03906 C910.585939,1413.27344 910.867186,1413.39062 911.195312,1413.39062 C911.523439,1413.39062 911.804686,1413.27344 912.039062,1413.03906 C912.273439,1412.80469 912.390625,1412.52344 912.390625,1412.19531 L912.390625,1409.80469 C912.390625,1409.64844 912.394531,1409.5 912.402344,1409.35938 C912.410156,1409.21875 912.429687,1409.08594 912.460938,1408.96094 L930.109375,1413.36719 C930.15625,1413.38281 930.203125,1413.39062 930.25,1413.39062 L930.390625,1413.39062 C930.734377,1413.39062 931.023436,1413.27344 931.257812,1413.03906 C931.492189,1412.80469 931.609375,1412.52344 931.609375,1412.19531 L931.609375,1409.80469 C931.609375,1408.66406 931.441408,1407.66016 931.105469,1406.79297 C930.76953,1405.92578 930.343753,1405.16016 929.828125,1404.49609 C929.312497,1403.83203 928.742191,1403.26172 928.117188,1402.78516 C927.492184,1402.30859 926.89844,1401.90625 926.335938,1401.57812 C926.054686,1401.40625 925.753908,1401.35937 925.433594,1401.4375 C925.11328,1401.51563 924.867188,1401.69531 924.695312,1401.97656 C924.523437,1402.25781 924.476562,1402.5625 924.554688,1402.89062 C924.632813,1403.21875 924.812499,1403.46094 925.09375,1403.61719 C926.531257,1404.49219 927.574216,1405.41796 928.222656,1406.39453 C928.871097,1407.3711 929.195312,1408.50781 929.195312,1409.80469 L929.195312,1410.67188 L913.210938,1406.66406 C913.414064,1406.30469 913.660155,1405.96485 913.949219,1405.64453 C914.238283,1405.32422 914.570311,1405.00781 914.945312,1404.69531 C915.789067,1404.00781 916.769526,1403.39453 917.886719,1402.85547 C919.003912,1402.3164 920.132807,1401.79688 921.273438,1401.29688 C921.882816,1401.03125 922.496091,1400.76172 923.113281,1400.48828 C923.730472,1400.21484 924.332028,1399.92578 924.917969,1399.62109 C925.503909,1399.3164 926.07031,1398.9961 926.617188,1398.66016 C927.164065,1398.32422 927.679685,1397.96094 928.164062,1397.57031 C928.74219,1397.10156 929.246092,1396.60547 929.675781,1396.08203 C930.105471,1395.55859 930.460936,1395.00782 930.742188,1394.42969 C931.023439,1393.85156 931.238281,1393.2461 931.386719,1392.61328 C931.535157,1391.98047 931.609375,1391.3125 931.609375,1390.60938 C931.609375,1389.46874 931.441408,1388.46094 931.105469,1387.58594 C930.76953,1386.71093 930.343753,1385.94532 929.828125,1385.28906 C929.312497,1384.63281 928.742191,1384.06641 928.117188,1383.58984 C927.492184,1383.11328 926.89844,1382.71094 926.335938,1382.38281 C926.054686,1382.21094 925.753908,1382.16406 925.433594,1382.24219 C925.11328,1382.32031 924.867188,1382.5 924.695312,1382.78125 C924.523437,1383.0625 924.476562,1383.36328 924.554688,1383.68359 C924.632813,1384.00391 924.812499,1384.25 925.09375,1384.42188 C926.531257,1385.29688 927.574216,1386.21875 928.222656,1387.1875 C928.871097,1388.15625 929.195312,1389.29687 929.195312,1390.60938 C929.195312,1390.75 929.191406,1390.89062 929.183594,1391.03125 C929.175781,1391.17188 929.164063,1391.3125 929.148438,1391.45312 L913.210938,1387.46875 C913.414064,1387.10937 913.660155,1386.76563 913.949219,1386.4375 C914.238283,1386.10937 914.570311,1385.79688 914.945312,1385.5 Z" id="dna"></path>
        </g>
    </g>
</svg>