<?xml version="1.0" encoding="UTF-8"?>
<svg width="46px" height="17px" viewBox="0 0 46 17" version="1.1" xmlns="http://www.w3.org/2000/svg" xmlns:xlink="http://www.w3.org/1999/xlink">
    <!-- Generator: Sketch 41.1 (35376) - http://www.bohemiancoding.com/sketch -->
    <title>moustache</title>
    <desc>Created with Sketch.</desc>
    <defs></defs>
    <g id="Page-1" stroke="none" stroke-width="1" fill="none" fill-rule="evenodd">
        <g id="Artboard-2-Copy-4" transform="translate(-396.000000, -897.000000)" fill="#FFFFFF">
            <path d="M441.375,904.90625 C441.234374,904.703124 441.046876,904.558594 440.8125,904.472656 C440.578124,904.386718 440.343751,904.375 440.109375,904.4375 C439.640623,904.546876 439.191408,904.632812 438.761719,904.695312 C438.332029,904.757813 437.921877,904.789062 437.53125,904.789062 C435.999992,904.789062 434.773442,904.406254 433.851562,903.640625 C432.929683,902.874996 432.054692,902.01563 431.226562,901.0625 C430.82031,900.609373 430.402346,900.152346 429.972656,899.691406 C429.542967,899.230466 429.070315,898.816408 428.554688,898.449219 C428.03906,898.082029 427.476566,897.781251 426.867188,897.546875 C426.257809,897.312499 425.570316,897.195312 424.804688,897.195312 C423.554681,897.195312 422.402349,897.492185 421.347656,898.085938 C420.292963,898.67969 419.445316,899.460933 418.804688,900.429688 C418.148434,899.460933 417.29688,898.67969 416.25,898.085938 C415.20312,897.492185 414.054694,897.195312 412.804688,897.195312 C412.039059,897.195312 411.347659,897.312499 410.730469,897.546875 C410.113278,897.781251 409.550784,898.082029 409.042969,898.449219 C408.535154,898.816408 408.062502,899.230466 407.625,899.691406 C407.187498,900.152346 406.773439,900.609373 406.382812,901.0625 C405.554683,902.01563 404.679692,902.874996 403.757812,903.640625 C402.835933,904.406254 401.60157,904.789062 400.054688,904.789062 C399.664061,904.789062 399.253908,904.757813 398.824219,904.695312 C398.394529,904.632812 397.953127,904.546876 397.5,904.4375 C397.249999,904.375 397.007814,904.386718 396.773438,904.472656 C396.539061,904.558594 396.351563,904.703124 396.210938,904.90625 C396.070312,905.109376 396,905.335936 396,905.585938 C396,905.835939 396.070312,906.062499 396.210938,906.265625 C397.351568,908.000009 398.574212,909.374995 399.878906,910.390625 C401.1836,911.406255 402.449213,912.175779 403.675781,912.699219 C404.90235,913.222659 406.031245,913.558593 407.0625,913.707031 C408.093755,913.855469 408.914059,913.929688 409.523438,913.929688 C410.195316,913.929688 410.839841,913.882813 411.457031,913.789062 C412.074222,913.695312 412.648435,913.554688 413.179688,913.367188 C413.789066,913.164061 414.371091,912.906252 414.925781,912.59375 C415.480472,912.281248 415.996091,911.925783 416.472656,911.527344 C416.949221,911.128904 417.382811,910.699221 417.773438,910.238281 C418.164064,909.777341 418.507811,909.289065 418.804688,908.773438 C419.101564,909.289065 419.445311,909.777341 419.835938,910.238281 C420.226564,910.699221 420.660154,911.128904 421.136719,911.527344 C421.613284,911.925783 422.124997,912.281248 422.671875,912.59375 C423.218753,912.906252 423.796872,913.164061 424.40625,913.367188 C424.937503,913.554688 425.515622,913.695312 426.140625,913.789062 C426.765628,913.882813 427.406247,913.929688 428.0625,913.929688 C428.687503,913.929688 429.51562,913.855469 430.546875,913.707031 C431.57813,913.558593 432.707025,913.222659 433.933594,912.699219 C435.160162,912.175779 436.421869,911.406255 437.71875,910.390625 C439.015631,909.374995 440.242182,908.000009 441.398438,906.265625 C441.539063,906.062499 441.605469,905.835939 441.597656,905.585938 C441.589844,905.335936 441.515626,905.109376 441.375,904.90625 Z M412.40625,911.09375 C411.999998,911.234376 411.550784,911.34375 411.058594,911.421875 C410.566404,911.5 410.05469,911.539062 409.523438,911.539062 C409.085935,911.539062 408.511722,911.492188 407.800781,911.398438 C407.08984,911.304687 406.304692,911.109376 405.445312,910.8125 C404.585933,910.515624 403.687505,910.078128 402.75,909.5 C401.812495,908.921872 400.89063,908.148442 399.984375,907.179688 L400.054688,907.179688 C401.101568,907.179688 402.031246,907.039064 402.84375,906.757812 C403.656254,906.476561 404.382809,906.113283 405.023438,905.667969 C405.664066,905.222654 406.242185,904.734378 406.757812,904.203125 C407.27344,903.671872 407.749998,903.14844 408.1875,902.632812 C409.015629,901.695308 409.757809,900.957034 410.414062,900.417969 C411.070316,899.878904 411.867183,899.609375 412.804688,899.609375 C413.460941,899.609375 414.082028,899.734374 414.667969,899.984375 C415.253909,900.234376 415.761717,900.574217 416.191406,901.003906 C416.621096,901.433596 416.964842,901.941403 417.222656,902.527344 C417.48047,903.113284 417.609375,903.734372 417.609375,904.390625 C417.609375,905.109379 417.476564,905.812497 417.210938,906.5 C416.945311,907.187503 416.582034,907.828122 416.121094,908.421875 C415.660154,909.015628 415.113284,909.546873 414.480469,910.015625 C413.847653,910.484377 413.156254,910.843749 412.40625,911.09375 Z M428.0625,911.539062 C427.531247,911.539062 427.02344,911.5 426.539062,911.421875 C426.054685,911.34375 425.601565,911.234376 425.179688,911.09375 C424.429684,910.843749 423.738284,910.484377 423.105469,910.015625 C422.472653,909.546873 421.925784,909.015628 421.464844,908.421875 C421.003904,907.828122 420.644533,907.187503 420.386719,906.5 C420.128905,905.812497 420,905.109379 420,904.390625 C420,903.734372 420.124999,903.113284 420.375,902.527344 C420.625001,901.941403 420.968748,901.433596 421.40625,901.003906 C421.843752,900.574217 422.35156,900.234376 422.929688,899.984375 C423.507815,899.734374 424.132809,899.609375 424.804688,899.609375 C425.726567,899.609375 426.519528,899.878904 427.183594,900.417969 C427.84766,900.957034 428.585933,901.695308 429.398438,902.632812 C429.851565,903.14844 430.332029,903.671872 430.839844,904.203125 C431.347659,904.734378 431.925778,905.222654 432.574219,905.667969 C433.222659,906.113283 433.953121,906.476561 434.765625,906.757812 C435.578129,907.039064 436.499995,907.179688 437.53125,907.179688 L437.625,907.179688 C436.718745,908.148442 435.792973,908.921872 434.847656,909.5 C433.902339,910.078128 433.003911,910.515624 432.152344,910.8125 C431.300777,911.109376 430.519535,911.304687 429.808594,911.398438 C429.097653,911.492188 428.515627,911.539062 428.0625,911.539062 Z" id="moustache"></path>
        </g>
    </g>
</svg>