<?xml version="1.0" encoding="UTF-8"?>
<svg width="42px" height="47px" viewBox="0 0 42 47" version="1.1" xmlns="http://www.w3.org/2000/svg" xmlns:xlink="http://www.w3.org/1999/xlink">
    <!-- Generator: Sketch 42 (36781) - http://www.bohemiancoding.com/sketch -->
    <title>reach</title>
    <desc>Created with Sketch.</desc>
    <defs></defs>
    <g id="Page-1" stroke="none" stroke-width="1" fill="none" fill-rule="evenodd">
        <g id="Artboard-2-Copy-4" transform="translate(-1106.000000, -2962.000000)" fill="#FFFFFF">
            <path d="M1119.60938,3008.39062 C1119.51562,3008.39062 1119.42188,3008.38281 1119.32812,3008.36719 C1119.23437,3008.35156 1119.14844,3008.32031 1119.07031,3008.27344 C1118.77344,3008.13281 1118.57031,3007.90235 1118.46094,3007.58203 C1118.35156,3007.26172 1118.375,3006.95313 1118.53125,3006.65625 L1123.33594,2997.07031 C1123.47656,2996.77344 1123.70312,2996.57031 1124.01562,2996.46094 C1124.32813,2996.35156 1124.63281,2996.375 1124.92969,2996.53125 C1125.22656,2996.67188 1125.42969,2996.90234 1125.53906,2997.22266 C1125.64844,2997.54297 1125.625,2997.84375 1125.46875,2998.125 L1120.66406,3007.73438 C1120.57031,3007.95313 1120.42578,3008.11719 1120.23047,3008.22656 C1120.03516,3008.33594 1119.82813,3008.39062 1119.60938,3008.39062 Z M1107.60938,3003.60938 C1107.48437,3003.60938 1107.36719,3003.58984 1107.25781,3003.55078 C1107.14844,3003.51172 1107.03906,3003.46094 1106.92969,3003.39844 C1106.66406,3003.21094 1106.49609,3002.95703 1106.42578,3002.63672 C1106.35547,3002.3164 1106.41406,3002.01563 1106.60156,3001.73438 L1111.40625,2994.53906 C1111.59375,2994.25781 1111.84765,2994.08594 1112.16797,2994.02344 C1112.48828,2993.96094 1112.78906,2994.02344 1113.07031,2994.21094 C1113.33594,2994.38281 1113.50391,2994.63281 1113.57422,2994.96094 C1113.64453,2995.28906 1113.58594,2995.59375 1113.39844,2995.875 L1108.59375,3003.07031 C1108.48437,3003.24219 1108.33984,3003.375 1108.16016,3003.46875 C1107.98047,3003.5625 1107.79688,3003.60938 1107.60938,3003.60938 Z M1147.19531,2966.39062 C1147.19531,2967.3125 1146.89063,2968.11328 1146.28125,2968.79297 C1145.67187,2969.47266 1144.92188,2969.86719 1144.03125,2969.97656 L1139.97656,2988.25781 C1139.91406,2988.53906 1139.76953,2988.76562 1139.54297,2988.9375 C1139.31641,2989.10938 1139.07031,2989.19531 1138.80469,2989.19531 L1138.66406,2989.19531 C1138.61719,2989.19531 1138.57813,2989.1875 1138.54688,2989.17188 C1138.21875,2989.09375 1137.96484,2988.91797 1137.78516,2988.64453 C1137.60547,2988.37109 1137.55469,2988.07031 1137.63281,2987.74219 L1141.03125,2972.41406 L1130.20312,2988.65625 C1130.07812,2988.84375 1129.92969,2988.98047 1129.75781,2989.06641 C1129.58594,2989.15234 1129.39844,2989.19531 1129.19531,2989.19531 C1129.08594,2989.19531 1128.97266,2989.17969 1128.85547,2989.14844 C1128.73828,2989.11719 1128.63281,2989.07031 1128.53906,2989.00781 C1128.25781,2988.82031 1128.08594,2988.5625 1128.02344,2988.23438 C1127.96094,2987.90625 1128.02344,2987.60938 1128.21094,2987.34375 L1140.72656,2968.54688 C1140.71094,2968.54688 1140.70312,2968.54297 1140.70312,2968.53516 L1140.70312,2968.52344 L1119.9375,2974.75781 C1119.89062,2974.77344 1119.83594,2974.78516 1119.77344,2974.79297 C1119.71094,2974.80078 1119.65625,2974.80469 1119.60938,2974.80469 C1119.34375,2974.80469 1119.10547,2974.72656 1118.89453,2974.57031 C1118.68359,2974.41406 1118.53906,2974.20313 1118.46094,2973.9375 C1118.35156,2973.625 1118.37891,2973.32422 1118.54297,2973.03516 C1118.70703,2972.74609 1118.94531,2972.55469 1119.25781,2972.46094 L1140,2966.22656 C1140.04688,2965.27343 1140.41797,2964.46485 1141.11328,2963.80078 C1141.8086,2963.13672 1142.64062,2962.80469 1143.60938,2962.80469 C1144.59375,2962.80469 1145.4375,2963.15625 1146.14062,2963.85938 C1146.84375,2964.5625 1147.19531,2965.40625 1147.19531,2966.39062 Z M1143.60938,2967.60938 C1143.9375,2967.60938 1144.21875,2967.49219 1144.45312,2967.25781 C1144.6875,2967.02344 1144.80469,2966.73438 1144.80469,2966.39062 C1144.80469,2966.0625 1144.6875,2965.78125 1144.45312,2965.54688 C1144.21875,2965.3125 1143.9375,2965.19531 1143.60938,2965.19531 C1143.26562,2965.19531 1142.97656,2965.3125 1142.74219,2965.54688 C1142.50781,2965.78125 1142.39062,2966.0625 1142.39062,2966.39062 C1142.39062,2966.73438 1142.50781,2967.02344 1142.74219,2967.25781 C1142.97656,2967.49219 1143.26562,2967.60938 1143.60938,2967.60938 Z M1133.20312,2974.80469 L1132.54688,2974.19531 C1132.32812,2973.99219 1132.11719,2973.79688 1131.91406,2973.60938 L1133.20312,2974.80469 Z M1133.20312,2976 C1133.04687,2976 1132.89844,2975.97266 1132.75781,2975.91797 C1132.61719,2975.86328 1132.48438,2975.78125 1132.35938,2975.67188 C1132.15625,2975.46875 1131.94922,2975.26953 1131.73828,2975.07422 C1131.52734,2974.87891 1131.3125,2974.6875 1131.09375,2974.5 C1130.85937,2974.26562 1130.73047,2973.98438 1130.70703,2973.65625 C1130.68359,2973.32812 1130.78906,2973.03906 1131.02344,2972.78906 C1131.24219,2972.53906 1131.51562,2972.40625 1131.84375,2972.39062 C1132.17188,2972.375 1132.46094,2972.48437 1132.71094,2972.71875 C1132.92969,2972.90625 1133.14844,2973.10547 1133.36719,2973.31641 C1133.58594,2973.52734 1133.80469,2973.73437 1134.02344,2973.9375 C1134.25781,2974.15625 1134.37891,2974.43359 1134.38672,2974.76953 C1134.39453,2975.10547 1134.28906,2975.39062 1134.07031,2975.625 C1133.94531,2975.75 1133.80859,2975.84375 1133.66016,2975.90625 C1133.51172,2975.96875 1133.35938,2976 1133.20312,2976 Z M1144.61719,2987.4375 C1145.36719,2988.84376 1145.95312,2990.16796 1146.375,2991.41016 C1146.79688,2992.65235 1147.05078,2993.79296 1147.13672,2994.83203 C1147.22266,2995.8711 1147.14844,2996.80078 1146.91406,2997.62109 C1146.67969,2998.44141 1146.27344,2999.14062 1145.69531,2999.71875 C1145.19531,3000.21875 1144.64453,3000.67578 1144.04297,3001.08984 C1143.4414,3001.50391 1142.79688,3001.86719 1142.10938,3002.17969 C1141.42187,3002.49219 1140.70313,3002.75391 1139.95312,3002.96484 C1139.20312,3003.17578 1138.42188,3003.32812 1137.60938,3003.42188 C1137.25,3003.46875 1136.89063,3003.5 1136.53125,3003.51562 C1136.17187,3003.53125 1135.8125,3003.53906 1135.45312,3003.53906 L1134.90234,3003.53906 C1134.72266,3003.53906 1134.53906,3003.53125 1134.35156,3003.51562 L1135.17188,3006.91406 C1135.25,3007.24219 1135.20313,3007.54687 1135.03125,3007.82812 C1134.85937,3008.10938 1134.60938,3008.28906 1134.28125,3008.36719 C1134.23437,3008.38281 1134.1875,3008.39062 1134.14062,3008.39062 L1134,3008.39062 C1133.73437,3008.39062 1133.48828,3008.30859 1133.26172,3008.14453 C1133.03516,3007.98047 1132.89063,3007.75781 1132.82812,3007.47656 L1131.82031,3003.23438 C1131.11718,3003.10937 1130.41407,3002.95703 1129.71094,3002.77734 C1129.00781,3002.59766 1128.30469,3002.38281 1127.60156,3002.13281 C1127.28906,3002.02344 1127.0625,3001.81641 1126.92188,3001.51172 C1126.78125,3001.20703 1126.76562,3000.89844 1126.875,3000.58594 C1126.98438,3000.27344 1127.1875,3000.04688 1127.48438,2999.90625 C1127.78125,2999.76562 1128.08594,2999.75 1128.39844,2999.85938 C1129.35157,3000.20313 1130.28906,3000.47656 1131.21094,3000.67969 C1132.13282,3000.88281 1133.03515,3001.01953 1133.91797,3001.08984 C1134.80079,3001.16016 1135.65234,3001.17188 1136.47266,3001.125 C1137.29297,3001.07812 1138.08593,3000.96875 1138.85156,3000.79688 C1138.25781,3000.64062 1137.64063,3000.44922 1137,3000.22266 C1136.35937,2999.99609 1135.70313,2999.72656 1135.03125,2999.41406 C1133.90624,2998.88281 1132.75782,2998.26172 1131.58594,2997.55078 C1130.41406,2996.83984 1129.23047,2996.04688 1128.03516,2995.17188 C1126.83984,2994.29687 1125.64844,2993.34766 1124.46094,2992.32422 C1123.27343,2991.30078 1122.10157,2990.21094 1120.94531,2989.05469 C1119.80468,2987.91406 1118.71876,2986.7461 1117.6875,2985.55078 C1116.65624,2984.35546 1115.70313,2983.16407 1114.82812,2981.97656 C1113.95312,2980.78906 1113.16016,2979.60547 1112.44922,2978.42578 C1111.73828,2977.24609 1111.125,2976.10157 1110.60938,2974.99219 C1110.29687,2974.32031 1110.02734,2973.66797 1109.80078,2973.03516 C1109.57422,2972.40234 1109.39063,2971.79688 1109.25,2971.21875 C1109.01562,2972.23438 1108.89063,2973.30859 1108.875,2974.44141 C1108.85937,2975.57422 1108.96094,2976.74999 1109.17969,2977.96875 C1109.41406,2979.28126 1109.76562,2980.58593 1110.23438,2981.88281 C1110.70313,2983.17969 1111.28125,2984.45312 1111.96875,2985.70312 C1112.65625,2986.95313 1113.44531,2988.16796 1114.33594,2989.34766 C1115.22657,2990.52735 1116.21093,2991.65624 1117.28906,2992.73438 C1117.77344,2993.21875 1118.27343,2993.6875 1118.78906,2994.14062 C1119.30469,2994.59375 1119.83593,2995.03125 1120.38281,2995.45312 C1120.64844,2995.65625 1120.80078,2995.92187 1120.83984,2996.25 C1120.87891,2996.57813 1120.79688,2996.875 1120.59375,2997.14062 C1120.48437,2997.28125 1120.34375,2997.39453 1120.17188,2997.48047 C1120,2997.56641 1119.82813,2997.60938 1119.65625,2997.60938 C1119.51562,2997.60938 1119.38281,2997.58594 1119.25781,2997.53906 C1119.13281,2997.49219 1119.01563,2997.42969 1118.90625,2997.35156 C1118.32812,2996.89844 1117.76172,2996.42969 1117.20703,2995.94531 C1116.65234,2995.46094 1116.11719,2994.95313 1115.60156,2994.42188 C1114.42968,2993.26562 1113.36329,2992.04688 1112.40234,2990.76562 C1111.4414,2989.48437 1110.58985,2988.16407 1109.84766,2986.80469 C1109.10547,2985.44531 1108.48047,2984.0586 1107.97266,2982.64453 C1107.46484,2981.23046 1107.07813,2979.81251 1106.8125,2978.39062 C1106.6875,2977.70312 1106.59766,2977.01953 1106.54297,2976.33984 C1106.48828,2975.66015 1106.46484,2974.9961 1106.47266,2974.34766 C1106.48047,2973.69922 1106.51953,2973.0625 1106.58984,2972.4375 C1106.66016,2971.8125 1106.76562,2971.20313 1106.90625,2970.60938 C1107.20313,2969.35937 1107.63672,2968.20313 1108.20703,2967.14062 C1108.77735,2966.07812 1109.47656,2965.13282 1110.30469,2964.30469 C1110.78906,2963.82031 1111.53124,2963.40625 1112.53125,2963.0625 C1113.53126,2962.71875 1114.90624,2962.73437 1116.65625,2963.10938 C1117.26563,2963.23438 1117.90234,2963.41016 1118.56641,2963.63672 C1119.23047,2963.86328 1119.91406,2964.13281 1120.61719,2964.44531 C1121.32032,2964.75781 1122.04297,2965.11328 1122.78516,2965.51172 C1123.52735,2965.91016 1124.28125,2966.35156 1125.04688,2966.83594 C1125.32813,2967.00781 1125.50391,2967.2539 1125.57422,2967.57422 C1125.64453,2967.89453 1125.59375,2968.19531 1125.42188,2968.47656 C1125.25,2968.75781 1125,2968.9375 1124.67188,2969.01562 C1124.34375,2969.09375 1124.03906,2969.04688 1123.75781,2968.875 C1123.05468,2968.42187 1122.36328,2968.01172 1121.68359,2967.64453 C1121.0039,2967.27734 1120.34375,2966.95313 1119.70312,2966.67188 C1119.0625,2966.39062 1118.44532,2966.14844 1117.85156,2965.94531 C1117.25781,2965.74219 1116.69532,2965.57813 1116.16406,2965.45312 C1115.47656,2965.3125 1114.73438,2965.24609 1113.9375,2965.25391 C1113.14062,2965.26172 1112.5,2965.51562 1112.01562,2966.01562 C1111.70312,2966.3125 1111.48438,2966.72265 1111.35938,2967.24609 C1111.23437,2967.76953 1111.20703,2968.37109 1111.27734,2969.05078 C1111.34766,2969.73047 1111.50781,2970.48828 1111.75781,2971.32422 C1112.00781,2972.16016 1112.35156,2973.04687 1112.78906,2973.98438 C1113.27344,2975.03126 1113.85547,2976.11328 1114.53516,2977.23047 C1115.21485,2978.34766 1115.97265,2979.47265 1116.80859,2980.60547 C1117.64454,2981.73829 1118.55078,2982.87499 1119.52734,2984.01562 C1120.50391,2985.15626 1121.54687,2986.27343 1122.65625,2987.36719 C1123.75001,2988.46094 1124.86328,2989.5 1125.99609,2990.48438 C1127.12891,2991.46875 1128.26562,2992.3789 1129.40625,2993.21484 C1130.54688,2994.05079 1131.67187,2994.80468 1132.78125,2995.47656 C1133.89063,2996.14844 1134.97656,2996.73437 1136.03906,2997.23438 C1136.97657,2997.65625 1137.85937,2997.99609 1138.6875,2998.25391 C1139.51563,2998.51172 1140.27343,2998.67187 1140.96094,2998.73438 C1141.64844,2998.79688 1142.25,2998.76953 1142.76562,2998.65234 C1143.28125,2998.53516 1143.69531,2998.32031 1144.00781,2998.00781 C1144.36719,2997.66406 1144.59766,2997.1836 1144.69922,2996.56641 C1144.80078,2995.94922 1144.78516,2995.23047 1144.65234,2994.41016 C1144.51953,2993.58984 1144.27344,2992.6875 1143.91406,2991.70312 C1143.55469,2990.71875 1143.07813,2989.67188 1142.48438,2988.5625 C1142.32812,2988.26562 1142.30078,2987.96094 1142.40234,2987.64844 C1142.50391,2987.33594 1142.70312,2987.10156 1143,2986.94531 C1143.28125,2986.78906 1143.58203,2986.75781 1143.90234,2986.85156 C1144.22266,2986.94531 1144.46094,2987.14062 1144.61719,2987.4375 Z" id="reach"></path>
        </g>
    </g>
</svg>