<?xml version="1.0" standalone="no"?>
<!DOCTYPE svg PUBLIC "-//W3C//DTD SVG 20010904//EN"
 "http://www.w3.org/TR/2001/REC-SVG-20010904/DTD/svg10.dtd">
<svg version="1.0" xmlns="http://www.w3.org/2000/svg"
 width="393.000000pt" height="393.000000pt" viewBox="0 0 393.000000 393.000000"
 preserveAspectRatio="xMidYMid meet">
<metadata>
Created by potrace 1.11, written by Peter Selinger 2001-2013
</metadata>
<g transform="translate(0.000000,393.000000) scale(0.100000,-0.100000)"
fill="#000000" stroke="none">
<path d="M114 3465 c3 -8 21 -40 41 -70 19 -31 35 -57 35 -60 0 -2 13 -24 30
-48 17 -25 30 -48 30 -51 0 -3 20 -37 45 -76 25 -39 45 -73 45 -75 0 -3 11
-22 24 -43 24 -38 355 -592 386 -647 9 -16 35 -59 57 -95 22 -36 51 -85 65
-110 14 -25 91 -155 172 -289 80 -134 146 -246 146 -249 0 -3 6 -13 14 -21 7
-9 25 -36 38 -61 14 -25 159 -270 323 -545 164 -275 320 -537 347 -582 27 -46
51 -83 53 -83 2 0 29 44 61 98 31 53 67 113 79 132 35 53 236 394 269 453 l28
52 -36 65 c-21 36 -95 162 -166 280 -71 118 -175 292 -230 385 -56 94 -106
177 -111 185 -22 35 -313 527 -323 545 -10 17 -198 333 -475 798 l-76 127
-439 0 c-385 0 -437 -2 -432 -15z"/>
<path d="M2830 3476 c0 -2 99 -170 220 -372 120 -203 232 -390 247 -417 l29
-47 174 292 c231 387 320 538 320 544 0 2 -223 4 -495 4 -272 0 -495 -2 -495
-4z"/>
</g>
</svg>
